<?xml version="1.0" encoding="UTF-8"?>
<svg width="60px" height="60px" viewBox="0 0 60 60" version="1.1" xmlns="http://www.w3.org/2000/svg" xmlns:xlink="http://www.w3.org/1999/xlink" style="background: #FFFFFF;">
    <title></title>
    <defs>
        <filter x="0.0%" y="0.0%" width="100.0%" height="100.0%" filterUnits="objectBoundingBox" id="filter-1">
            <feGaussianBlur stdDeviation="0" in="SourceGraphic"></feGaussianBlur>
        </filter>
    </defs>
    <g id="symbols" stroke="none" stroke-width="1" fill="none" fill-rule="evenodd">
        <g id="icon-/-chevron-square-CYAN-DWN-Copy">
            <rect fill="#FFFFFF" x="0" y="0" width="60" height="60"></rect>
            <g id="icon-/-square-CYAN" fill="#785891">
                <rect id="Rectangle" filter="url(#filter-1)" x="0" y="0" width="60" height="60" rx="10"></rect>
            </g>
            <path d="M36.9417706,10.7720059 L19.2665566,28.0849066 C18.7727838,28.5817707 18.5,29.2397849 18.5,29.9254906 C18.5,30.611206 18.7727806,31.2692216 19.2596847,31.7592516 L36.9223312,49.1631617 C37.4263233,49.6570623 38.106693,49.9333333 38.8156673,49.9333333 C39.5246218,49.9333333 40.2049766,49.6570613 40.7075888,49.1645517 C41.2134128,48.6743542 41.5,48.0012566 41.5,47.2983992 L41.4949421,47.136795 C41.4545963,46.4930398 41.1742893,45.8845089 40.704749,45.4294794 L24.9522187,29.9765123 L40.7078723,14.5211029 C41.3649949,13.8299893 41.6009782,12.877014 41.3473738,11.9894498 C41.0937715,11.1030976 40.3892446,10.4119497 39.4889974,10.1641289 C38.5904418,9.9170409 37.6255131,10.1469796 36.9417706,10.7720059 Z" id="Path" fill="#FFFFFF" fill-rule="nonzero" transform="translate(30.000000, 30.000000) rotate(-90.000000) translate(-30.000000, -30.000000) "></path>
            <path d="M36.4020131,10.1815294 C37.2889085,9.37079599 38.5378272,9.07286963 39.7013302,9.39281379 C40.8698584,9.71448727 41.7859298,10.6139614 42.1165958,11.769655 C42.4493968,12.9343915 42.1365732,14.1795008 41.2680962,15.0921975 L26.0940062,29.9756605 L41.2614939,44.8549804 C41.8220003,45.3981648 42.1775301,46.1115123 42.2745472,46.896094 L42.2945567,47.1117626 L42.3000062,47.298393 C42.3000062,48.2174729 41.9258726,49.0979364 41.2675087,49.7359444 C40.6151288,50.3752112 39.7336688,50.7333272 38.8156734,50.7333272 C37.897305,50.7333272 37.0159187,50.3749645 36.3608411,49.7329993 L18.6921983,32.3231179 C18.0566037,31.6834429 17.7000062,30.8228218 17.7000062,29.9254844 C17.7000062,29.0264666 18.0578065,28.1663063 18.7067652,27.5133878 L36.3819792,10.2004871 L36.4020131,10.1815294 Z" id="Path" fill="#FFFFFF" fill-rule="nonzero" transform="translate(30.000006, 30.000000) rotate(-90.000000) translate(-30.000006, -30.000000) "></path>
        </g>
    </g>
</svg>