<svg width="16" height="17" viewBox="0 0 16 17" fill="none" xmlns="http://www.w3.org/2000/svg">
<path d="M8.0013 10.661C7.91241 10.661 7.82908 10.6471 7.7513 10.6193C7.67352 10.5916 7.6013 10.5443 7.53464 10.4777L5.13464 8.07767C5.01241 7.95545 4.9513 7.79989 4.9513 7.611C4.9513 7.42211 5.01241 7.26656 5.13464 7.14434C5.25686 7.02211 5.41519 6.95823 5.60964 6.95267C5.80408 6.94711 5.96241 7.00545 6.08464 7.12767L7.33464 8.37767V3.611C7.33464 3.42211 7.39852 3.26378 7.5263 3.136C7.65408 3.00822 7.81241 2.94434 8.0013 2.94434C8.19019 2.94434 8.34853 3.00822 8.4763 3.136C8.60408 3.26378 8.66797 3.42211 8.66797 3.611V8.37767L9.91797 7.12767C10.0402 7.00545 10.1985 6.94711 10.393 6.95267C10.5874 6.95823 10.7457 7.02211 10.868 7.14434C10.9902 7.26656 11.0513 7.42211 11.0513 7.611C11.0513 7.79989 10.9902 7.95545 10.868 8.07767L8.46797 10.4777C8.4013 10.5443 8.32908 10.5916 8.2513 10.6193C8.17352 10.6471 8.09019 10.661 8.0013 10.661ZM4.0013 13.611C3.63464 13.611 3.32075 13.4804 3.05964 13.2193C2.79852 12.9582 2.66797 12.6443 2.66797 12.2777V10.9443C2.66797 10.7554 2.73186 10.5971 2.85964 10.4693C2.98741 10.3416 3.14575 10.2777 3.33464 10.2777C3.52352 10.2777 3.68186 10.3416 3.80964 10.4693C3.93741 10.5971 4.0013 10.7554 4.0013 10.9443V12.2777H12.0013V10.9443C12.0013 10.7554 12.0652 10.5971 12.193 10.4693C12.3207 10.3416 12.4791 10.2777 12.668 10.2777C12.8569 10.2777 13.0152 10.3416 13.143 10.4693C13.2707 10.5971 13.3346 10.7554 13.3346 10.9443V12.2777C13.3346 12.6443 13.2041 12.9582 12.943 13.2193C12.6819 13.4804 12.368 13.611 12.0013 13.611H4.0013Z" fill="#562E76"/>
</svg>
