<?xml version="1.0" encoding="UTF-8"?>
<svg width="60px" height="60px" viewBox="0 0 60 60" version="1.1" xmlns="http://www.w3.org/2000/svg" xmlns:xlink="http://www.w3.org/1999/xlink">
    <title>icon / reset</title>
    <g id="icon-/-reset" stroke="none" stroke-width="1" fill="none" fill-rule="evenodd">
        <g id="icon-/-circle-ppl-0" fill="#EEEAF1" fill-rule="nonzero">
            <path d="M29.9988426,0 C13.4311588,0 0,13.4309249 0,30 C0,46.5690751 13.4311588,60 29.9988426,60 C46.5661149,60 59.9975681,46.5695328 60,30.000212 C60,13.4320824 46.5676837,0 29.9988426,0 Z" id="Path"></path>
        </g>
        <path d="M31.6736136,5.69834357 C32.5869718,6.62152265 32.5781189,8.1093427 31.6537762,9.02148668 L28.1653227,12.4648507 L30,12.4648507 C41.0194558,12.4648507 50,21.2888224 50,32.2320827 C50,43.1753429 41.0194558,52 30,52 C18.9805442,52 10,43.1760283 10,32.2320827 C10,30.934601 11.0535635,29.8821536 12.3528806,29.8821536 C13.6525409,29.8821536 14.7060358,30.934601 14.7060358,32.2320827 C14.7060358,40.5276031 21.5272278,47.3001418 30.0002745,47.3001418 C38.4733212,47.3001418 45.2945133,40.5279458 45.2945133,32.2320827 C45.2945133,23.9365623 38.4733212,17.1647089 30.0002745,17.1647089 L28.1655972,17.1647089 L31.6540507,20.6077988 C32.5783893,21.5200113 32.5872422,23.0078314 31.6738881,23.9312161 C30.7605298,24.854121 29.2705665,24.8629628 28.346571,23.9507612 L20.7831767,16.4859581 C20.3360299,16.0447252 20.0840037,15.442558 20.0840037,14.8147222 C20.0840037,14.1866054 20.3359956,13.5847535 20.7831767,13.1432122 L28.346571,5.6784091 C29.2706351,4.76619658 30.7605984,4.77503837 31.6738881,5.69822156 L31.6736136,5.69834357 Z" id="Path" fill="#562E76" fill-rule="nonzero"></path>
    </g>
</svg>