<svg width="24" height="24" viewBox="0 0 24 24" fill="none" xmlns="http://www.w3.org/2000/svg">
<path fill-rule="evenodd" clip-rule="evenodd" d="M11 5.54167L8.85714 6.6131V4.14286H13.1429V6.6131L11 5.54167ZM1.62946 21.3705C2.04911 21.7902 2.55357 22 3.14286 22H9.88889V19.8571H3.14286V4.14286H6.71429V10.0952L11 7.95238L15.2857 10.0952V4.14286H18.8571V8.83532H21V4.14286C21 3.55357 20.7902 3.04911 20.3705 2.62947C19.9509 2.20982 19.4464 2 18.8571 2H3.14286C2.55357 2 2.04911 2.20982 1.62946 2.62947C1.20982 3.04911 1 3.55357 1 4.14286V19.8571C1 20.4464 1.20982 20.9509 1.62946 21.3705ZM12.2002 22V18.3006L19.0752 11.4583C19.2337 11.2966 19.4097 11.1797 19.6033 11.1077C19.7969 11.0359 19.9892 11 20.1804 11C20.3889 11 20.5887 11.0382 20.7799 11.1146C20.9711 11.191 21.1449 11.3056 21.3014 11.4583L22.7419 12.9315C22.8857 13.09 22.998 13.266 23.0787 13.4596C23.1597 13.6532 23.2002 13.8456 23.2002 14.0368C23.2002 14.228 23.1643 14.4235 23.0925 14.6235C23.0205 14.8232 22.9036 15.0012 22.7419 15.1577L15.8996 22H12.2002Z" fill="#562E76"/>
</svg>
