<svg width="16" height="16" viewBox="0 0 16 16" fill="none" xmlns="http://www.w3.org/2000/svg">
<path d="M2.82552 13.3555C2.45885 13.3555 2.14497 13.2249 1.88385 12.9638C1.62274 12.7027 1.49219 12.3888 1.49219 12.0221V4.02215C1.49219 3.65548 1.62274 3.34159 1.88385 3.08048C2.14497 2.81937 2.45885 2.68881 2.82552 2.68881H6.82552L8.15885 4.02215H13.4922C13.8589 4.02215 14.1727 4.1527 14.4339 4.41381C14.695 4.67492 14.8255 4.98881 14.8255 5.35548V12.0221C14.8255 12.3888 14.695 12.7027 14.4339 12.9638C14.1727 13.2249 13.8589 13.3555 13.4922 13.3555H2.82552ZM2.82552 4.02215V12.0221H13.4922V5.35548H7.60885L6.27552 4.02215H2.82552Z" fill="#4F5474"/>
</svg>
