<svg width="16" height="17" viewBox="0 0 16 17" fill="none" xmlns="http://www.w3.org/2000/svg">
<path d="M5.71666 2.43335L11.3333 8.03335C11.4 8.10001 11.4472 8.17224 11.475 8.25001C11.5028 8.32779 11.5167 8.41112 11.5167 8.50001C11.5167 8.5889 11.5028 8.67224 11.475 8.75001C11.4472 8.82779 11.4 8.90001 11.3333 8.96668L5.71666 14.5833C5.56111 14.7389 5.36666 14.8167 5.13333 14.8167C4.9 14.8167 4.7 14.7333 4.53333 14.5667C4.36666 14.4 4.28333 14.2056 4.28333 13.9833C4.28333 13.7611 4.36666 13.5667 4.53333 13.4L9.43333 8.50001L4.53333 3.60001C4.37777 3.44446 4.3 3.25279 4.3 3.02501C4.3 2.79724 4.38333 2.60001 4.55 2.43335C4.71666 2.26668 4.91111 2.18335 5.13333 2.18335C5.35555 2.18335 5.55 2.26668 5.71666 2.43335Z" fill="#BDBFBE"/>
</svg>
