<svg width="24" height="24" viewBox="0 0 24 24" fill="none" xmlns="http://www.w3.org/2000/svg">
<path fill-rule="evenodd" clip-rule="evenodd" d="M1 2.5C1 1.67157 1.70355 1 2.57143 1H21.4286C22.2964 1 23 1.67157 23 2.5V8.5C23 9.32843 22.2964 10 21.4286 10H20.9802H2.57143C1.70355 10 1 9.32843 1 8.5V2.5ZM15.1429 13C15.5249 13 15.8751 13.1301 16.1474 13.3465L14.099 15.3852C13.8205 15.1457 13.4519 15 13.0476 15H10.9524C10.0845 15 9.38095 15.6716 9.38095 16.5V18.5C9.38095 19.3284 10.0845 20 10.9524 20H11V22H2.57143C1.70355 22 1 21.3284 1 20.5V14.5C1 13.6716 1.70355 13 2.57143 13H15.1429ZM4.14286 3C3.27498 3 2.57143 3.67157 2.57143 4.5V6.5C2.57143 7.32843 3.27498 8 4.14286 8H6.2381C7.10597 8 7.80952 7.32843 7.80952 6.5V4.5C7.80952 3.67157 7.10597 3 6.2381 3H4.14286ZM10.9524 3C10.0845 3 9.38095 3.67157 9.38095 4.5V6.5C9.38095 7.32843 10.0845 8 10.9524 8H13.0476C13.9155 8 14.619 7.32843 14.619 6.5V4.5C14.619 3.67157 13.9155 3 13.0476 3H10.9524ZM17.7619 3C16.894 3 16.1905 3.67157 16.1905 4.5V6.5C16.1905 7.32843 16.894 8 17.7619 8H19.8571C20.725 8 21.4286 7.32843 21.4286 6.5V4.5C21.4286 3.67157 20.725 3 19.8571 3H17.7619ZM4.14286 15C3.27498 15 2.57143 15.6716 2.57143 16.5V18.5C2.57143 19.3284 3.27498 20 4.14286 20H6.23809C7.10597 20 7.80952 19.3284 7.80952 18.5V16.5C7.80952 15.6716 7.10597 15 6.23809 15H4.14286ZM13 23V19.3006L19.875 12.4583C20.0335 12.2966 20.2095 12.1797 20.4031 12.1077C20.5967 12.0359 20.789 12 20.9802 12C21.1887 12 21.3885 12.0382 21.5797 12.1146C21.7709 12.191 21.9447 12.3056 22.1012 12.4583L23.5417 13.9315C23.6855 14.09 23.7978 14.266 23.8785 14.4596C23.9595 14.6532 24 14.8456 24 15.0368C24 15.228 23.9641 15.4235 23.8923 15.6235C23.8203 15.8232 23.7034 16.0012 23.5417 16.1577L16.6994 23H13Z" fill="#562E76"/>
</svg>
