<svg width="32" height="32" viewBox="0 0 32 32" fill="none" xmlns="http://www.w3.org/2000/svg">
<path fill-rule="evenodd" clip-rule="evenodd" d="M24.4853 7.51473C25.006 8.03543 25.006 8.87965 24.4853 9.40035L9.40035 24.4853C8.87965 25.006 8.03543 25.006 7.51473 24.4853C6.99403 23.9646 6.99403 23.1204 7.51473 22.5997L22.5997 7.51473C23.1204 6.99403 23.9646 6.99403 24.4853 7.51473Z" fill="#232951"/>
<path fill-rule="evenodd" clip-rule="evenodd" d="M24.4853 24.4853C23.9646 25.006 23.1204 25.006 22.5997 24.4853L7.51473 9.40035C6.99403 8.87965 6.99403 8.03543 7.51473 7.51473C8.03543 6.99403 8.87965 6.99403 9.40035 7.51473L24.4853 22.5997C25.006 23.1204 25.006 23.9646 24.4853 24.4853Z" fill="#232951"/>
</svg>
