<svg width="41" height="27" viewBox="0 0 41 27" fill="none" xmlns="http://www.w3.org/2000/svg">
<path d="M9.48146 5.62466H12.6526V0.521027H9.48146C3.89443 0.521027 0 4.86595 0 10.1763C0 12.8315 1.06707 15.2437 2.78584 16.9937C4.50323 18.7438 6.32628 19.83 9.48146 19.8302H12.6526V14.7266H9.48146C8.29829 14.7266 7.17829 14.2498 6.33022 13.3849C5.48077 12.52 5.01246 11.381 5.01246 10.1763C5.01246 8.97025 5.48077 7.83128 6.33022 6.96638C7.17829 6.10148 8.29829 5.62466 9.48146 5.62466Z" fill="#562E76"/>
<path d="M28.9955 0.52124L22.4402 10.5318L15.8833 0.52124H28.9955Z" fill="#562E76"/>
<path d="M28.0142 9.66025V19.83H16.8648V9.66025L22.1208 17.4936L22.4402 17.9702L22.7596 17.4936L24.569 14.7971L24.572 14.7925L27.3303 10.68V10.6786L28.0142 9.66025Z" fill="#562E76"/>
<path d="M37.6649 0.520867L37.6649 19.8281L32.3589 19.8281L32.3589 0.520867L37.6649 0.520867Z" fill="#562E76"/>
<path d="M3.592 23.3924H4.21477V26.4704H3.51781V24.8746L2.69296 26.3023L1.86398 24.8746V26.4704H1.16683V23.3924H1.7896L2.69277 25.1477L3.592 23.3924Z" fill="#562E76"/>
<path d="M6.29834 25.7942H7.66745V26.4704H5.59726V23.3966H7.62633V24.0726H6.29834V24.6394H7.29222V25.3156H6.29834V25.7942Z" fill="#562E76"/>
<path fill-rule="evenodd" clip-rule="evenodd" d="M9.89526 23.3924H8.92204V26.4702H9.90765C10.3695 26.4702 10.7408 26.3273 11.0253 26.046C11.3098 25.7647 11.4542 25.3911 11.4542 24.9333C11.4542 24.4757 11.3057 24.1019 11.0046 23.8206C10.7077 23.5351 10.3366 23.3924 9.89526 23.3924ZM9.90368 24.0223C10.1553 24.0223 10.3574 24.1103 10.5141 24.2826C10.6748 24.4547 10.7531 24.6688 10.7533 24.9335C10.7533 25.1979 10.675 25.4163 10.5141 25.5886C10.3572 25.7565 10.1469 25.8407 9.88715 25.8407H9.60676V24.0223H9.90368Z" fill="#562E76"/>
<path d="M12.6262 23.3924H13.3273V26.4704H12.6262V23.3924Z" fill="#562E76"/>
<path fill-rule="evenodd" clip-rule="evenodd" d="M16.1527 23.3924H15.5547L14.3792 26.4704H15.1503L15.3689 25.8196H16.3424L16.561 26.4704H17.3321L16.1527 23.3924ZM16.1859 25.2947H15.5342L15.8559 24.3078L16.1859 25.2947Z" fill="#562E76"/>
<path d="M22.4103 26.1218C22.1258 26.3738 21.7999 26.4996 21.4369 26.4996C20.6203 26.5206 19.9151 25.7227 19.9357 24.9165C19.9357 24.4923 20.0841 24.1271 20.381 23.8164C20.6779 23.5014 21.0286 23.3459 21.4369 23.3459C21.8121 23.3459 22.1462 23.4762 22.439 23.7408L22.0472 24.2952C21.8741 24.1187 21.672 24.0307 21.4369 24.0307C21.2183 24.0307 21.0327 24.1189 20.8802 24.291C20.7277 24.4633 20.6492 24.673 20.6492 24.9167C20.6492 25.1645 20.7275 25.3745 20.8802 25.5466C21.0327 25.7187 21.2185 25.8068 21.4369 25.8068C21.7669 25.8278 22.0638 25.6513 22.1627 25.3364H21.441V24.6268H22.9215C22.9463 24.7654 22.9463 24.9501 22.9215 25.1727C22.868 25.5508 22.6948 25.8657 22.4103 26.1218Z" fill="#562E76"/>
<path fill-rule="evenodd" clip-rule="evenodd" d="M25.6814 26.4746H26.5227L25.7927 25.3701C26.1516 25.1895 26.3372 24.8494 26.3372 24.442C26.3372 24.1145 26.2341 23.8584 26.032 23.6737C25.8299 23.489 25.5743 23.3966 25.2567 23.3966H24.106V26.4746H24.803V25.4877H25.0338L25.6814 26.4746ZM24.803 24.8664V24.0349H25.2113C25.4875 24.0349 25.6278 24.1776 25.6278 24.4591C25.6278 24.7151 25.4751 24.8664 25.1658 24.8664H24.803Z" fill="#562E76"/>
<path fill-rule="evenodd" clip-rule="evenodd" d="M30.5323 24.9249C30.5323 24.5052 30.3796 24.1355 30.0744 23.8206C29.7692 23.5058 29.4146 23.3461 29.0107 23.3459C28.586 23.3459 28.2271 23.5014 27.9302 23.8122C27.6372 24.1187 27.4889 24.4925 27.4889 24.9249C27.4889 25.349 27.6414 25.7185 27.9424 26.0334C28.2476 26.3443 28.6022 26.4996 29.0105 26.4996C29.427 26.4996 29.7818 26.3441 30.0829 26.0292C30.3839 25.7142 30.5323 25.349 30.5323 24.9249ZM29.0105 24.0476C29.2371 24.0476 29.4353 24.1355 29.596 24.312C29.757 24.4841 29.8394 24.6899 29.8394 24.9251C29.8394 25.1643 29.7568 25.37 29.596 25.5466C29.4353 25.7227 29.2373 25.811 29.0105 25.811C28.7836 25.811 28.5856 25.7229 28.4208 25.5466C28.2598 25.3702 28.1774 25.1645 28.1774 24.9251C28.1774 24.6899 28.26 24.4843 28.4208 24.312C28.5856 24.1357 28.7836 24.0476 29.0105 24.0476Z" fill="#562E76"/>
<path d="M33.4324 23.3924H34.1294V25.1601C34.1294 25.559 34.018 25.8823 33.7953 26.1302C33.5767 26.378 33.2715 26.4996 32.888 26.4996C32.5127 26.4996 32.2158 26.3696 31.9889 26.1133C31.7621 25.8531 31.6507 25.5339 31.6507 25.1601V23.3924H32.3477V25.1937C32.3477 25.6179 32.5415 25.8699 32.888 25.8699C33.2345 25.8699 33.4324 25.6179 33.4324 25.1937V23.3924Z" fill="#562E76"/>
<path fill-rule="evenodd" clip-rule="evenodd" d="M36.5841 23.3966H35.4499V26.4704H36.1468V25.4834H36.5262C36.8686 25.4834 37.1449 25.3953 37.3552 25.2148C37.5655 25.0343 37.6686 24.7738 37.6686 24.442C37.6686 24.1103 37.5655 23.8542 37.3635 23.6737C37.1614 23.489 36.9016 23.3966 36.5841 23.3966ZM36.1468 24.8874V24.0265H36.5469C36.782 24.0307 36.9593 24.2155 36.9593 24.4675C36.9593 24.749 36.8066 24.8874 36.4973 24.8874H36.1468Z" fill="#562E76"/>
<path d="M39.9058 1.60481H39.7447V0.5H39.9013L40.2914 1.18128L40.6814 0.5H40.838V1.60481H40.677V0.819536L40.2914 1.48122L39.9058 0.819536V1.60481Z" fill="#562E76"/>
<path d="M39.1074 0.653739H38.7838V0.5H39.5949V0.653739H39.2684V1.60481H39.1074V0.653739Z" fill="#562E76"/>
</svg>
