<svg width="25" height="24" viewBox="0 0 25 24" fill="none" xmlns="http://www.w3.org/2000/svg">
<path fill-rule="evenodd" clip-rule="evenodd" d="M2.25 22C1.5625 22 1.01562 21.7969 0.609375 21.3906C0.203125 20.9844 0 20.4375 0 19.75V3.25C0 2.5625 0.203125 2.01562 0.609375 1.60938C1.01562 1.20312 1.5625 1 2.25 1H18.75C19.4375 1 19.9844 1.20312 20.3906 1.60938C20.7969 2.01562 21 2.5625 21 3.25V9.86052C20.3644 9.54348 19.6605 9.37866 18.913 9.37866C18.8584 9.37866 18.8041 9.37954 18.75 9.38129V7.75H11.625V12.625H14.4311C14.2815 13.0868 14.2047 13.5767 14.2047 14.087C14.2047 14.3557 14.226 14.6187 14.268 14.875H11.625V19.75V20.6386C11.625 21.1274 11.7224 21.5949 11.9085 22.024L2.25 22ZM9.375 14.875H2.25V19.75H9.375V14.875ZM9.375 12.625V7.75H2.25V12.625H9.375ZM2.25 5.5H18.75V3.25H2.25V5.5ZM18.913 11.3789C18.1703 11.3789 17.5277 11.6465 17 12.1742C16.4723 12.702 16.2047 13.3445 16.2047 14.0872C16.2047 14.83 16.4723 15.4725 17 16.0002C17.5277 16.528 18.1703 16.7956 18.913 16.7956C19.6557 16.7956 20.2983 16.528 20.826 16.0002C21.3537 15.4725 21.6213 14.83 21.6213 14.0872C21.6213 13.3445 21.3537 12.702 20.826 12.1742C20.2983 11.6465 19.6557 11.3789 18.913 11.3789ZM18.9593 17.2971C18.2676 17.2971 17.586 17.3784 16.9151 17.5409C16.2442 17.7033 15.5852 17.9467 14.9382 18.2702L14.9349 18.2719C14.5955 18.4475 14.323 18.7031 14.1201 19.0335C13.9157 19.3663 13.8135 19.7329 13.8135 20.1273V20.6148C13.8135 21.0224 13.9618 21.378 14.2508 21.6671C14.5399 21.9561 14.8955 22.1044 15.3031 22.1044H22.6156C23.0231 22.1044 23.3788 21.9561 23.6678 21.6671C23.9569 21.378 24.1051 21.0224 24.1051 20.6148V20.1273C24.1051 19.7329 24.0029 19.3663 23.7985 19.0335C23.5956 18.7031 23.3232 18.4475 22.9837 18.2719L22.9804 18.2702C22.3334 17.9467 21.6744 17.7033 21.0035 17.5409C20.3326 17.3784 19.6511 17.2971 18.9593 17.2971Z" fill="#562E76"/>
</svg>
