<svg width="25" height="24" viewBox="0 0 25 24" fill="none" xmlns="http://www.w3.org/2000/svg">
<path fill-rule="evenodd" clip-rule="evenodd" d="M12 23C10.4783 23 9.04833 22.7113 7.71 22.1338C6.37167 21.5562 5.2075 20.7725 4.2175 19.7825C3.2275 18.7925 2.44375 17.6283 1.86625 16.29C1.28875 14.9517 1 13.5217 1 12C1 10.4783 1.28875 9.04833 1.86625 7.71C2.44375 6.37167 3.2275 5.2075 4.2175 4.2175C5.2075 3.2275 6.37167 2.44375 7.71 1.86625C9.04833 1.28875 10.4783 1 12 1C13.5217 1 14.9517 1.28875 16.29 1.86625C17.6283 2.44375 18.7925 3.2275 19.7825 4.2175C20.7725 5.2075 21.5562 6.37167 22.1338 7.71C22.7113 9.04833 23 10.4783 23 12C23 12.2375 22.993 12.4727 22.9789 12.7057C22.7777 12.3671 22.5308 12.0504 22.2402 11.7598C21.7908 11.3104 21.279 10.9654 20.7201 10.7326C20.472 8.81953 19.6462 7.16115 18.2425 5.7575C16.5375 4.0525 14.4567 3.2 12 3.2C9.54333 3.2 7.4625 4.0525 5.7575 5.7575C4.0525 7.4625 3.2 9.54333 3.2 12C3.2 14.4567 4.0525 16.5375 5.7575 18.2425C7.42216 19.9072 9.44507 20.7592 11.8262 20.7986C11.8177 20.9074 11.8135 21.0169 11.8135 21.1271V21.6146C11.8135 22.1033 11.9109 22.5706 12.0968 22.9996C12.0646 22.9999 12.0323 23 12 23ZM16.675 7.325C17.5679 8.21786 18.1501 9.24384 18.4218 10.4029C17.6591 10.4791 16.9504 10.7336 16.3243 11.1519C16.1662 10.2987 15.7606 9.54558 15.1075 8.8925C14.2458 8.03083 13.21 7.6 12 7.6C10.79 7.6 9.75417 8.03083 8.8925 8.8925C8.03083 9.75417 7.6 10.79 7.6 12C7.6 13.21 8.03083 14.2458 8.8925 15.1075C9.75417 15.9692 10.79 16.4 12 16.4C12.8342 16.4 13.5856 16.1952 14.2542 15.7857C14.3252 16.2778 14.4719 16.7458 14.6903 17.1815C14.4728 17.2744 14.2573 17.3743 14.0438 17.4811L14.0316 17.4872L14.016 17.4952C13.5006 17.7618 13.0621 18.1255 12.7104 18.5666C12.4783 18.5889 12.2416 18.6 12 18.6C10.1667 18.6 8.60833 17.9583 7.325 16.675C6.04167 15.3917 5.4 13.8333 5.4 12C5.4 10.1667 6.04167 8.60833 7.325 7.325C8.60833 6.04167 10.1667 5.4 12 5.4C13.8333 5.4 15.3917 6.04167 16.675 7.325ZM12 14.2C11.395 14.2 10.8771 13.9846 10.4463 13.5538C10.0154 13.1229 9.8 12.605 9.8 12C9.8 11.395 10.0154 10.8771 10.4463 10.4463C10.8771 10.0154 11.395 9.8 12 9.8C12.605 9.8 13.1229 10.0154 13.5538 10.4463C13.9846 10.8771 14.2 11.395 14.2 12C14.2 12.605 13.9846 13.1229 13.5538 13.5538C13.1229 13.9846 12.605 14.2 12 14.2ZM18.913 12.3789C18.1703 12.3789 17.5277 12.6465 17 13.1742C16.4723 13.702 16.2047 14.3445 16.2047 15.0872C16.2047 15.83 16.4723 16.4725 17 17.0002C17.5277 17.528 18.1703 17.7956 18.913 17.7956C19.6557 17.7956 20.2983 17.528 20.826 17.0002C21.3537 16.4725 21.6213 15.83 21.6213 15.0872C21.6213 14.3445 21.3537 13.702 20.826 13.1742C20.2983 12.6465 19.6557 12.3789 18.913 12.3789ZM18.9593 18.2971C18.2676 18.2971 17.586 18.3784 16.9151 18.5409C16.2442 18.7033 15.5852 18.9467 14.9382 19.2702L14.9349 19.2719C14.5955 19.4475 14.323 19.7031 14.1201 20.0335C13.9157 20.3663 13.8135 20.7329 13.8135 21.1273V21.6148C13.8135 22.0224 13.9618 22.378 14.2508 22.6671C14.5399 22.9561 14.8955 23.1044 15.3031 23.1044H22.6156C23.0231 23.1044 23.3788 22.9561 23.6678 22.6671C23.9569 22.378 24.1051 22.0224 24.1051 21.6148V21.1273C24.1051 20.7329 24.0029 20.3663 23.7985 20.0335C23.5956 19.7031 23.3232 19.4475 22.9837 19.2719L22.9804 19.2702C22.3334 18.9467 21.6744 18.7033 21.0035 18.5409C20.3326 18.3784 19.6511 18.2971 18.9593 18.2971Z" fill="#562E76"/>
</svg>
