<svg width="24" height="24" viewBox="0 0 24 24" fill="none" xmlns="http://www.w3.org/2000/svg">
<path fill-rule="evenodd" clip-rule="evenodd" d="M0.692411 22.2961C1.15402 22.7654 1.70893 23 2.35714 23H11.5146C11.5048 22.9847 11.4951 22.9694 11.4856 22.9539L11.4695 22.9277L10.362 20.9971C10.2939 20.8825 10.2353 20.7641 10.1862 20.6429H2.35714V3.35714H19.6429V10.1009C20.0145 10.2081 20.36 10.3996 20.6565 10.6691C20.998 10.9796 21.2422 11.3627 21.38 11.785C21.5836 11.7435 21.7913 11.7257 22 11.7327V3.35714C22 2.72421 21.7692 2.17312 21.3076 1.70387C20.846 1.23462 20.2911 1 19.6429 1H2.35714C1.70893 1 1.15402 1.23462 0.692411 1.70387C0.230803 2.17312 0 2.72421 0 3.35714V20.6429C0 21.2758 0.230803 21.8269 0.692411 22.2961ZM10.7181 18.0101C10.5596 17.7917 10.352 17.5059 10.2628 17.3728L9.82143 16.7143L7.46429 13.5714L3.92857 18.2857H10.4072H10.9165C10.8954 18.2543 10.8161 18.1451 10.7181 18.0101ZM16.6895 23.9167H18.9239C19.0728 23.9167 19.2019 23.867 19.3112 23.7677C19.4204 23.6684 19.4849 23.5443 19.5048 23.3953L19.6835 22.01C19.8027 21.9604 19.9219 21.9008 20.041 21.8313C20.1602 21.7617 20.2744 21.6873 20.3837 21.6078L21.6498 22.1441C21.7888 22.1937 21.9303 22.1962 22.0743 22.1515C22.2183 22.1068 22.33 22.0199 22.4095 21.8908L23.5118 19.9842C23.5912 19.8551 23.6161 19.716 23.5863 19.5671C23.5565 19.4181 23.482 19.299 23.3628 19.2096L22.2456 18.3605C22.2655 18.291 22.2754 18.224 22.2754 18.1594V17.7572C22.2754 17.6927 22.2705 17.6257 22.2605 17.5562L23.3777 16.7071C23.4969 16.6177 23.5714 16.4985 23.6012 16.3496C23.6309 16.2006 23.6061 16.0616 23.5267 15.9325L22.4244 14.0109C22.3449 13.8818 22.2357 13.7974 22.0967 13.7577C21.9576 13.718 21.8186 13.723 21.6796 13.7726L20.3837 14.3089C20.2744 14.2294 20.1627 14.1549 20.0485 14.0854C19.9343 14.0159 19.8126 13.9563 19.6835 13.9067L19.5048 12.5214C19.4849 12.3724 19.4204 12.2483 19.3112 12.149C19.2019 12.0497 19.0728 12 18.9239 12H16.6895C16.5405 12 16.4114 12.0497 16.3022 12.149C16.193 12.2483 16.1284 12.3724 16.1085 12.5214L15.9298 13.9067C15.8106 13.9563 15.6915 14.0159 15.5723 14.0854C15.4531 14.1549 15.3389 14.2294 15.2297 14.3089L13.9338 13.7726C13.7947 13.723 13.6532 13.7155 13.5092 13.7503C13.3652 13.785 13.2585 13.8719 13.189 14.0109L12.0867 15.9325C12.0072 16.0616 11.9824 16.2006 12.0122 16.3496C12.042 16.4985 12.1165 16.6177 12.2356 16.7071L13.3528 17.5562C13.3429 17.6257 13.3379 17.6927 13.3379 17.7572V18.1594C13.3379 18.224 13.3429 18.291 13.3528 18.3605L12.2356 19.2096C12.1165 19.299 12.042 19.4181 12.0122 19.5671C11.9824 19.716 12.0072 19.8551 12.0867 19.9842L13.189 21.9057C13.2684 22.0348 13.3776 22.1192 13.5167 22.159C13.6557 22.1987 13.7947 22.1937 13.9338 22.1441L15.2297 21.6078C15.3389 21.6873 15.4506 21.7617 15.5648 21.8313C15.679 21.9008 15.8007 21.9604 15.9298 22.01L16.1085 23.3953C16.1284 23.5443 16.193 23.6684 16.3022 23.7677C16.4114 23.867 16.5405 23.9167 16.6895 23.9167ZM17.8365 20.0438C18.4124 20.0438 18.904 19.8402 19.3112 19.433C19.7183 19.0259 19.9219 18.5343 19.9219 17.9583C19.9219 17.3824 19.7183 16.8908 19.3112 16.4837C18.904 16.0765 18.4124 15.8729 17.8365 15.8729C17.2506 15.8729 16.7565 16.0765 16.3543 16.4837C15.9521 16.8908 15.751 17.3824 15.751 17.9583C15.751 18.5343 15.9521 19.0259 16.3543 19.433C16.7565 19.8402 17.2506 20.0438 17.8365 20.0438Z" fill="#562E76"/>
</svg>
