<svg width="24" height="24" viewBox="0 0 24 24" fill="none" xmlns="http://www.w3.org/2000/svg">
<path fill-rule="evenodd" clip-rule="evenodd" d="M15.75 8.7V10.1756C16.0466 10.0597 16.364 10 16.6895 10H18V7.6L11.25 1H2.25C1.63125 1 1.10156 1.21542 0.660938 1.64625C0.220313 2.07708 0 2.595 0 3.2V20.8C0 21.405 0.220313 21.9229 0.660938 22.3538C1.10156 22.7846 1.63125 23 2.25 23H11.5146L11.4961 22.9707L11.4856 22.9539L11.4695 22.9277L10.362 20.9971C10.3237 20.9326 10.2883 20.8668 10.2559 20.8H2.25V3.2H10.125V8.7H15.75ZM14 7H12V5L14.5 7H14ZM18.9239 23.9167H16.6895C16.5405 23.9167 16.4114 23.867 16.3022 23.7677C16.193 23.6684 16.1284 23.5443 16.1085 23.3953L15.9298 22.01C15.8007 21.9604 15.679 21.9008 15.5648 21.8313C15.4506 21.7617 15.3389 21.6873 15.2297 21.6078L13.9338 22.1441C13.7947 22.1937 13.6557 22.1987 13.5167 22.159C13.3776 22.1192 13.2684 22.0348 13.189 21.9057L12.0867 19.9842C12.0072 19.8551 11.9824 19.716 12.0122 19.5671C12.042 19.4181 12.1165 19.299 12.2356 19.2096L13.3528 18.3605C13.3429 18.291 13.3379 18.224 13.3379 18.1594V17.7572C13.3379 17.6927 13.3429 17.6257 13.3528 17.5562L12.2356 16.7071C12.1165 16.6177 12.042 16.4985 12.0122 16.3496C11.9824 16.2006 12.0072 16.0616 12.0867 15.9325L13.189 14.0109C13.2585 13.8719 13.3652 13.785 13.5092 13.7503C13.6532 13.7155 13.7947 13.723 13.9338 13.7726L15.2297 14.3089C15.3389 14.2294 15.4531 14.1549 15.5723 14.0854C15.6915 14.0159 15.8106 13.9563 15.9298 13.9067L16.1085 12.5214C16.1284 12.3724 16.193 12.2483 16.3022 12.149C16.4114 12.0497 16.5405 12 16.6895 12H18.9239C19.0728 12 19.2019 12.0497 19.3112 12.149C19.4204 12.2483 19.4849 12.3724 19.5048 12.5214L19.6835 13.9067C19.8126 13.9563 19.9343 14.0159 20.0485 14.0854C20.1627 14.1549 20.2744 14.2294 20.3837 14.3089L21.6796 13.7726C21.8186 13.723 21.9576 13.718 22.0967 13.7577C22.2357 13.7974 22.3449 13.8818 22.4244 14.0109L23.5267 15.9325C23.6061 16.0616 23.6309 16.2006 23.6012 16.3496C23.5714 16.4985 23.4969 16.6177 23.3777 16.7071L22.2605 17.5562C22.2705 17.6257 22.2754 17.6927 22.2754 17.7572V18.1594C22.2754 18.224 22.2655 18.291 22.2456 18.3605L23.3628 19.2096C23.482 19.299 23.5565 19.4181 23.5863 19.5671C23.6161 19.716 23.5912 19.8551 23.5118 19.9842L22.4095 21.8908C22.33 22.0199 22.2183 22.1068 22.0743 22.1515C21.9303 22.1962 21.7888 22.1937 21.6498 22.1441L20.3837 21.6078C20.2744 21.6873 20.1602 21.7617 20.041 21.8313C19.9219 21.9008 19.8027 21.9604 19.6835 22.01L19.5048 23.3953C19.4849 23.5443 19.4204 23.6684 19.3112 23.7677C19.2019 23.867 19.0728 23.9167 18.9239 23.9167ZM19.3112 19.433C18.904 19.8402 18.4124 20.0438 17.8365 20.0438C17.2506 20.0438 16.7565 19.8402 16.3543 19.433C15.9521 19.0259 15.751 18.5343 15.751 17.9583C15.751 17.3824 15.9521 16.8908 16.3543 16.4837C16.7565 16.0765 17.2506 15.8729 17.8365 15.8729C18.4124 15.8729 18.904 16.0765 19.3112 16.4837C19.7183 16.8908 19.9219 17.3824 19.9219 17.9583C19.9219 18.5343 19.7183 19.0259 19.3112 19.433ZM7.78947 8L11.5789 12L10.2368 13.4167L8.73684 11.8333V16H6.8421V11.8333L5.3421 13.4167L4 12L7.78947 8ZM4 19V17.3333H10.5789V19H4Z" fill="#562E76"/>
</svg>
