<svg width="24" height="24" viewBox="0 0 24 24" fill="none" xmlns="http://www.w3.org/2000/svg">
<path d="M4.23828 20.0332C3.68828 20.0332 3.21745 19.8374 2.82578 19.4457C2.43411 19.054 2.23828 18.5832 2.23828 18.0332V6.0332C2.23828 5.4832 2.43411 5.01237 2.82578 4.6207C3.21745 4.22904 3.68828 4.0332 4.23828 4.0332H10.2383L12.2383 6.0332H20.2383C20.7883 6.0332 21.2591 6.22904 21.6508 6.6207C22.0424 7.01237 22.2383 7.4832 22.2383 8.0332V18.0332C22.2383 18.5832 22.0424 19.054 21.6508 19.4457C21.2591 19.8374 20.7883 20.0332 20.2383 20.0332H4.23828ZM4.23828 6.0332V18.0332H20.2383V8.0332H11.4133L9.41328 6.0332H4.23828Z" fill="#7B7F97"/>
</svg>
