<svg width="24" height="24" viewBox="0 0 24 24" fill="none" xmlns="http://www.w3.org/2000/svg">
<path fill-rule="evenodd" clip-rule="evenodd" d="M3.31182 21.875C2.66505 21.875 2.11806 21.6455 1.67083 21.1865C1.22361 20.7275 1 20.1758 1 19.5312V2.34375C1 1.69922 1.22521 1.14746 1.67562 0.688477C2.12604 0.229493 2.6675 0 3.3 0H20.1667C20.7992 0 21.3406 0.229493 21.791 0.688477C22.2415 1.14746 22.4667 1.69922 22.4667 2.34375V11.2242C21.998 11.0762 21.4998 11 20.9779 11C20.7029 11 20.4322 11.0228 20.1667 11.0672V2.34375H3.3V19.5312H11.8675C12.0011 19.7661 12.1476 19.9973 12.3037 20.2247C12.661 20.7452 13.1054 21.2964 13.6228 21.875H3.31182ZM17.8667 9.76562V11.358C17.2825 11.1242 16.664 11 16.0221 11C14.8468 11 13.7917 11.3862 12.9239 12.1094H10.2V9.76562H17.8667ZM6.74329 17.1875C7.06721 17.1875 7.34097 17.0758 7.56458 16.8525C7.78819 16.6292 7.9 16.3525 7.9 16.0225C7.9 15.6924 7.79043 15.4134 7.57129 15.1855C7.35215 14.9577 7.08062 14.8437 6.75671 14.8437C6.43279 14.8437 6.15903 14.9554 5.93542 15.1787C5.71181 15.402 5.6 15.6787 5.6 16.0088C5.6 16.3389 5.70957 16.6178 5.92871 16.8457C6.14785 17.0736 6.41938 17.1875 6.74329 17.1875ZM6.74329 12.1094C7.06721 12.1094 7.34097 11.9977 7.56458 11.7744C7.78819 11.5511 7.9 11.2744 7.9 10.9443C7.9 10.6143 7.79043 10.3353 7.57129 10.1074C7.35215 9.87956 7.08062 9.76562 6.75671 9.76562C6.43279 9.76562 6.15903 9.87728 5.93542 10.1006C5.71181 10.3239 5.6 10.6006 5.6 10.9307C5.6 11.2607 5.70957 11.5397 5.92871 11.7676C6.14785 11.9954 6.41938 12.1094 6.74329 12.1094ZM6.74329 7.03125C7.06721 7.03125 7.34097 6.9196 7.56458 6.69629C7.78819 6.47298 7.9 6.19629 7.9 5.86621C7.9 5.53613 7.79043 5.25716 7.57129 5.0293C7.35215 4.80143 7.08062 4.6875 6.75671 4.6875C6.43279 4.6875 6.15903 4.79915 5.93542 5.02246C5.71181 5.24577 5.6 5.52246 5.6 5.85254C5.6 6.18262 5.70957 6.46159 5.92871 6.68945C6.14785 6.91732 6.41938 7.03125 6.74329 7.03125ZM10.2 7.03125H17.8667V4.6875H10.2V7.03125ZM17.7839 23.2888L18.5 24L19.1875 23.3204C20.1614 22.3511 20.9612 21.5266 21.5866 20.847C22.212 20.1674 22.7038 19.5694 23.0618 19.0532C23.4199 18.5369 23.6658 18.068 23.7995 17.6466C23.9332 17.2251 24 16.7878 24 16.3348C24 15.397 23.7088 14.6068 23.1263 13.9641C22.5438 13.3214 21.8277 13 20.9779 13C20.51 13 20.0564 13.1106 19.6172 13.3319C19.178 13.5532 18.8056 13.864 18.5 14.2644C18.1944 13.864 17.822 13.5532 17.3828 13.3319C16.9436 13.1106 16.49 13 16.0221 13C15.1723 13 14.4562 13.3214 13.8737 13.9641C13.2912 14.6068 13 15.397 13 16.3348C13 16.7878 13.0692 17.2304 13.2077 17.6624C13.3461 18.0943 13.5944 18.5711 13.9525 19.0927C14.3105 19.6142 14.7999 20.2095 15.4206 20.8786C16.0412 21.5477 16.829 22.3511 17.7839 23.2888Z" fill="#562E76"/>
</svg>
