<svg width="32" height="33" viewBox="0 0 32 33" fill="none" xmlns="http://www.w3.org/2000/svg">
<path fill-rule="evenodd" clip-rule="evenodd" d="M7.1233 2.10001H4.56059C3.74491 2.10001 3.00527 2.42662 2.4688 2.95384C1.93236 3.48011 1.59998 4.208 1.59998 5.00859V7.52798C1.59998 8.32958 1.93233 9.05646 2.4688 9.58367C3.00527 10.1109 3.74594 10.4375 4.56059 10.4375H7.1233C7.93898 10.4375 8.67862 10.1109 9.21509 9.58367C9.75061 9.05646 10.0839 8.32857 10.0839 7.52798V5.00859C10.0839 4.20792 9.75156 3.48105 9.21509 2.95384C8.67862 2.42756 7.93898 2.10001 7.1233 2.10001ZM4.56247 3.59696H7.12519C7.51926 3.59696 7.87914 3.75563 8.14021 4.0122C8.40129 4.26875 8.56274 4.62243 8.56274 5.0097V7.52909C8.56274 7.91727 8.40128 8.27003 8.14021 8.5266C7.87915 8.78317 7.52021 8.94274 7.12519 8.94274H4.56247C4.16748 8.94274 3.80852 8.78316 3.54745 8.5266C3.28637 8.27004 3.124 7.9173 3.124 7.52909V5.0097C3.124 4.62243 3.28638 4.26876 3.54745 4.0122C3.80851 3.75562 4.16745 3.59696 4.56247 3.59696Z" fill="#785891"/>
<path fill-rule="evenodd" clip-rule="evenodd" d="M27.4393 22.5623H24.8756C24.06 22.5623 23.3203 22.889 22.7839 23.4162C22.2474 23.9434 21.915 24.6713 21.915 25.4719V27.9913C21.915 28.7919 22.2474 29.5188 22.7839 30.046C23.3203 30.5723 24.061 30.8998 24.8756 30.8998H27.4393C28.254 30.8998 28.9937 30.5732 29.5301 30.046C30.0656 29.5197 30.3989 28.7918 30.3989 27.9913V25.4719C30.3989 24.6703 30.0666 23.9434 29.5301 23.4162C28.9946 22.889 28.2539 22.5623 27.4393 22.5623ZM24.8758 24.0579H27.4394C27.8335 24.0579 28.1934 24.2175 28.4544 24.474C28.7155 24.7306 28.877 25.0833 28.877 25.4715V27.9909C28.877 28.3782 28.7155 28.7319 28.4544 28.9884C28.1934 29.245 27.8335 29.4037 27.4394 29.4037H24.8758C24.4808 29.4037 24.1218 29.245 23.8608 28.9884C23.5997 28.7319 23.4373 28.3782 23.4373 27.9909V25.4715C23.4373 25.0834 23.5997 24.7306 23.8608 24.474C24.1218 24.2175 24.4808 24.0579 24.8758 24.0579Z" fill="#785891"/>
<path fill-rule="evenodd" clip-rule="evenodd" d="M17.2819 22.5623H14.7183C13.9026 22.5623 13.163 22.889 12.6265 23.4162C12.0901 23.9434 11.7577 24.6713 11.7577 25.4719V27.9913C11.7577 28.7919 12.09 29.5188 12.6265 30.046C13.163 30.5723 13.9037 30.8998 14.7183 30.8998H17.2819C18.0967 30.8998 18.8363 30.5732 19.3728 30.046C19.9083 29.5197 20.2416 28.7918 20.2416 27.9913V25.4719C20.2416 24.6703 19.9092 23.9434 19.3728 23.4162C18.8373 22.889 18.0966 22.5623 17.2819 22.5623ZM14.7184 24.0579H17.2821C17.6761 24.0579 18.036 24.2175 18.2971 24.474C18.5582 24.7306 18.7196 25.0833 18.7196 25.4715V27.9909C18.7196 28.3782 18.5582 28.7319 18.2971 28.9884C18.036 29.245 17.6761 29.4037 17.2821 29.4037H14.7184C14.3234 29.4037 13.9645 29.245 13.7034 28.9884C13.4423 28.7319 13.28 28.3782 13.28 27.9909V25.4715C13.28 25.0834 13.4423 24.7306 13.7034 24.474C13.9645 24.2175 14.3234 24.0579 14.7184 24.0579Z" fill="#5AAAD1"/>
<path fill-rule="evenodd" clip-rule="evenodd" d="M7.12403 22.5623H4.56132C3.74564 22.5623 3.006 22.889 2.46953 23.4162C1.93309 23.9434 1.60071 24.6713 1.60071 25.4719V27.9913C1.60071 28.7919 1.93306 29.5188 2.46953 30.046C3.006 30.5723 3.74667 30.8998 4.56132 30.8998H7.12403C7.93971 30.8998 8.67935 30.5732 9.21582 30.046C9.75134 29.5197 10.0846 28.7918 10.0846 27.9913V25.4719C10.0846 24.6703 9.75229 23.9434 9.21582 23.4162C8.67935 22.889 7.93971 22.5623 7.12403 22.5623ZM4.56145 24.0579H7.12416C7.51823 24.0579 7.87811 24.2175 8.13918 24.474C8.40027 24.7306 8.56171 25.0833 8.56171 25.4715V27.9909C8.56171 28.3782 8.40026 28.7319 8.13918 28.9884C7.87812 29.245 7.51918 29.4037 7.12416 29.4037H4.56145C4.16645 29.4037 3.8075 29.245 3.54643 28.9884C3.28534 28.7319 3.12297 28.3782 3.12297 27.9909V25.4715C3.12297 25.0834 3.28535 24.7306 3.54643 24.474C3.80749 24.2175 4.16643 24.0579 4.56145 24.0579Z" fill="#785891"/>
<path fill-rule="evenodd" clip-rule="evenodd" d="M27.4397 12.3305H24.876C24.0603 12.3305 23.3207 12.6571 22.7842 13.1843C22.2478 13.7106 21.9154 14.4385 21.9154 15.2391V17.7585C21.9154 18.5601 22.2478 19.2869 22.7842 19.8141C23.3207 20.3413 24.0614 20.668 24.876 20.668H27.4397C28.2544 20.668 28.994 20.3413 29.5305 19.8141C30.066 19.2869 30.3993 18.559 30.3993 17.7585V15.2391C30.3993 14.4384 30.067 13.7115 29.5305 13.1843C28.995 12.658 28.2543 12.3305 27.4397 12.3305ZM24.8761 13.8274H27.4398C27.8339 13.8274 28.1937 13.9861 28.4548 14.2427C28.7159 14.4992 28.8773 14.8529 28.8773 15.2402V17.7596C28.8773 18.1477 28.7159 18.5005 28.4548 18.7571C28.1937 19.0136 27.8339 19.1732 27.4398 19.1732H24.8761C24.4812 19.1732 24.1222 19.0136 23.8611 18.7571C23.6 18.5005 23.4377 18.1478 23.4377 17.7596V15.2402C23.4377 14.8529 23.6001 14.4992 23.8611 14.2427C24.1222 13.9861 24.4811 13.8274 24.8761 13.8274Z" fill="#5AAAD1"/>
<path fill-rule="evenodd" clip-rule="evenodd" d="M17.2827 12.3305H14.719C13.9034 12.3305 13.1637 12.6571 12.6272 13.1843C12.0908 13.7106 11.7584 14.4385 11.7584 15.2391V17.7585C11.7584 18.5601 12.0908 19.2869 12.6272 19.8141C13.1637 20.3413 13.9044 20.668 14.719 20.668H17.2827C18.0974 20.668 18.837 20.3413 19.3735 19.8141C19.909 19.2869 20.2423 18.559 20.2423 17.7585V15.2391C20.2423 14.4384 19.91 13.7115 19.3735 13.1843C18.838 12.658 18.0973 12.3305 17.2827 12.3305ZM14.7192 13.8274H17.2828C17.6769 13.8274 18.0368 13.9861 18.2978 14.2427C18.5589 14.4992 18.7204 14.8529 18.7204 15.2402V17.7596C18.7204 18.1477 18.5589 18.5005 18.2978 18.7571C18.0368 19.0136 17.6769 19.1732 17.2828 19.1732H14.7192C14.3242 19.1732 13.9652 19.0136 13.7041 18.7571C13.4431 18.5005 13.2807 18.1478 13.2807 17.7596V15.2402C13.2807 14.8529 13.4431 14.4992 13.7041 14.2427C13.9652 13.9861 14.3241 13.8274 14.7192 13.8274Z" fill="#785891"/>
<path fill-rule="evenodd" clip-rule="evenodd" d="M7.12477 12.3305H4.56205C3.74637 12.3305 3.00673 12.6571 2.47026 13.1843C1.93382 13.7106 1.60144 14.4385 1.60144 15.2391V17.7585C1.60144 18.5601 1.93379 19.2869 2.47026 19.8141C3.00673 20.3413 3.7474 20.668 4.56205 20.668H7.12477C7.94044 20.668 8.68008 20.3413 9.21655 19.8141C9.75207 19.2869 10.0854 18.559 10.0854 17.7585V15.2391C10.0854 14.4384 9.75302 13.7115 9.21655 13.1843C8.68008 12.658 7.94044 12.3305 7.12477 12.3305ZM4.56218 13.8274H7.12489C7.51897 13.8274 7.87884 13.9861 8.13992 14.2427C8.401 14.4992 8.56245 14.8529 8.56245 15.2402V17.7596C8.56245 18.1477 8.40099 18.5005 8.13992 18.7571C7.87885 19.0136 7.51992 19.1732 7.12489 19.1732H4.56218C4.16719 19.1732 3.80823 19.0136 3.54716 18.7571C3.28608 18.5005 3.12371 18.1478 3.12371 17.7596V15.2402C3.12371 14.8529 3.28609 14.4992 3.54716 14.2427C3.80822 13.9861 4.16716 13.8274 4.56218 13.8274Z" fill="#5AAAD1"/>
<path fill-rule="evenodd" clip-rule="evenodd" d="M27.4404 2.10001H24.8767C24.0611 2.10001 23.3214 2.42662 22.785 2.95384C22.2485 3.48011 21.9161 4.208 21.9161 5.00859V7.52798C21.9161 8.32958 22.2485 9.05648 22.785 9.58367C23.3214 10.1109 24.0621 10.4375 24.8767 10.4375H27.4404C28.2551 10.4375 28.9948 10.1109 29.5312 9.58367C30.0667 9.05646 30.4 8.32857 30.4 7.52798V5.00859C30.4 4.20792 30.0677 3.48105 29.5312 2.95384C28.9957 2.42756 28.255 2.10001 27.4404 2.10001ZM24.8769 3.59696H27.4405C27.8346 3.59696 28.1945 3.75563 28.4555 4.0122C28.7166 4.26875 28.8781 4.62243 28.8781 5.0097V7.52909C28.8781 7.91727 28.7166 8.27003 28.4555 8.5266C28.1945 8.78317 27.8346 8.94274 27.4405 8.94274H24.8769C24.4819 8.94274 24.1229 8.78316 23.8619 8.5266C23.6008 8.27004 23.4384 7.9173 23.4384 7.52909V5.0097C23.4384 4.62243 23.6008 4.26876 23.8619 4.0122C24.1229 3.75562 24.4819 3.59696 24.8769 3.59696Z" fill="#785891"/>
<path fill-rule="evenodd" clip-rule="evenodd" d="M17.2834 2.10001H14.7198C13.9041 2.10001 13.1644 2.42662 12.628 2.95384C12.0915 3.48011 11.7592 4.208 11.7592 5.00859V7.52798C11.7592 8.32958 12.0915 9.05646 12.628 9.58367C13.1644 10.1109 13.9051 10.4375 14.7198 10.4375H17.2834C18.0981 10.4375 18.8378 10.1109 19.3742 9.58367C19.9098 9.05646 20.2431 8.32857 20.2431 7.52798V5.00859C20.2431 4.20792 19.9107 3.48105 19.3742 2.95384C18.8387 2.42756 18.0981 2.10001 17.2834 2.10001ZM14.7199 3.59696H17.2835C17.6776 3.59696 18.0375 3.75563 18.2986 4.0122C18.5596 4.26875 18.7211 4.62243 18.7211 5.0097V7.52909C18.7211 7.91727 18.5596 8.27003 18.2986 8.5266C18.0375 8.78317 17.6776 8.94274 17.2835 8.94274H14.7199C14.3249 8.94274 13.9659 8.78316 13.7049 8.5266C13.4438 8.27004 13.2814 7.9173 13.2814 7.52909V5.0097C13.2814 4.62243 13.4438 4.26876 13.7049 4.0122C13.9659 3.75562 14.3249 3.59696 14.7199 3.59696Z" fill="#5AAAD1"/>
</svg>
