<svg width="24" height="24" viewBox="0 0 24 24" fill="none" xmlns="http://www.w3.org/2000/svg">
<path fill-rule="evenodd" clip-rule="evenodd" d="M2.25 22C1.5625 22 1.01562 21.7969 0.609375 21.3906C0.203125 20.9844 0 20.4375 0 19.75V3.25C0 2.5625 0.203125 2.01562 0.609375 1.60938C1.01562 1.20312 1.5625 1 2.25 1H18.75C19.4375 1 19.9844 1.20312 20.3906 1.60938C20.7969 2.01562 21 2.5625 21 3.25V9.95041C20.6448 9.80634 20.2606 9.73108 19.8602 9.73108H18.75V7.75H11.625C11.625 7.88046 11.6271 8.26927 11.6299 8.8024C11.6406 10.8127 11.6622 14.875 11.625 14.875V19.75L11.6504 21.0457C11.6504 21.3774 11.702 21.6979 11.8016 22H2.25ZM9.375 14.875H2.25V19.75H9.375V14.875ZM9.375 12.625V7.75H2.25V12.625H9.375ZM2.25 5.5H18.75V3.25H2.25V5.5ZM13.9544 21.7761C14.1571 21.9787 14.4007 22.0801 14.6854 22.0801H22.965C23.2497 22.0801 23.4933 21.9787 23.696 21.7761C23.8987 21.5734 24 21.3297 24 21.0451V14.8354C24 14.5507 23.8987 14.3071 23.696 14.1044C23.4933 13.9017 23.2497 13.8004 22.965 13.8004H20.8951V12.7654C20.8951 12.4808 20.7938 12.2372 20.5911 12.0345C20.3884 11.8318 20.1448 11.7305 19.8602 11.7305H17.7902C17.5056 11.7305 17.262 11.8318 17.0593 12.0345C16.8566 12.2372 16.7553 12.4808 16.7553 12.7654V13.8004H14.6854C14.4007 13.8004 14.1571 13.9017 13.9544 14.1044C13.7517 14.3071 13.6504 14.5507 13.6504 14.8354V21.0451C13.6504 21.3297 13.7517 21.5734 13.9544 21.7761ZM19.8602 13.8004H17.7902V12.7654H19.8602V13.8004ZM18.3077 18.4577V19.4927C18.3077 19.6393 18.3573 19.7622 18.4565 19.8614C18.5557 19.9606 18.6786 20.0102 18.8252 20.0102C18.9718 20.0102 19.0947 19.9606 19.1939 19.8614C19.2931 19.7622 19.3427 19.6393 19.3427 19.4927V18.4577H20.3776C20.5243 18.4577 20.6472 18.4081 20.7463 18.3089C20.8455 18.2098 20.8951 18.0869 20.8951 17.9402C20.8951 17.7936 20.8455 17.6707 20.7463 17.5715C20.6472 17.4723 20.5243 17.4228 20.3776 17.4228H19.3427V16.3878C19.3427 16.2412 19.2931 16.1183 19.1939 16.0191C19.0947 15.9199 18.9718 15.8703 18.8252 15.8703C18.6786 15.8703 18.5557 15.9199 18.4565 16.0191C18.3573 16.1183 18.3077 16.2412 18.3077 16.3878V17.4228H17.2728C17.1261 17.4228 17.0032 17.4723 16.904 17.5715C16.8049 17.6707 16.7553 17.7936 16.7553 17.9402C16.7553 18.0869 16.8049 18.2098 16.904 18.3089C17.0032 18.4081 17.1261 18.4577 17.2728 18.4577H18.3077Z" fill="#562E76"/>
</svg>
