<svg width="24" height="24" viewBox="0 0 24 24" fill="none" xmlns="http://www.w3.org/2000/svg">
<path fill-rule="evenodd" clip-rule="evenodd" d="M11 23C9.47833 23 8.04833 22.7113 6.71 22.1338C5.37167 21.5562 4.2075 20.7725 3.2175 19.7825C2.2275 18.7925 1.44375 17.6283 0.86625 16.29C0.28875 14.9517 0 13.5217 0 12C0 10.4783 0.28875 9.04833 0.86625 7.71C1.44375 6.37167 2.2275 5.2075 3.2175 4.2175C4.2075 3.2275 5.37167 2.44375 6.71 1.86625C8.04833 1.28875 9.47833 1 11 1C12.5217 1 13.9517 1.28875 15.29 1.86625C16.6283 2.44375 17.7925 3.2275 18.7825 4.2175C19.7725 5.2075 20.5562 6.37167 21.1338 7.71C21.6616 8.93317 21.9482 10.2329 21.9936 11.6092C21.4204 11.0419 20.6739 10.7311 19.8602 10.7311H19.7199C19.4716 8.81863 18.6458 7.16078 17.2425 5.7575C15.5375 4.0525 13.4567 3.2 11 3.2C8.54333 3.2 6.4625 4.0525 4.7575 5.7575C3.0525 7.4625 2.2 9.54333 2.2 12C2.2 14.4567 3.0525 16.5375 4.7575 18.2425C6.4625 19.9475 8.54333 20.8 11 20.8C11.2198 20.8 11.4366 20.7932 11.6504 20.7795V22.0457C11.6504 22.3676 11.699 22.679 11.7929 22.9733C11.5315 22.9911 11.2671 23 11 23ZM15.675 7.325C16.6548 8.30477 17.2605 9.44483 17.4923 10.7452C16.7895 10.8122 16.1494 11.1166 15.6451 11.6209C15.5569 11.7091 15.4747 11.8015 15.399 11.8976C15.3753 10.7315 14.9448 9.72977 14.1075 8.8925C13.2458 8.03083 12.21 7.6 11 7.6C9.79 7.6 8.75417 8.03083 7.8925 8.8925C7.03083 9.75417 6.6 10.79 6.6 12C6.6 13.21 7.03083 14.2458 7.8925 15.1075C8.75417 15.9692 9.79 16.4 11 16.4C11.2227 16.4 11.4395 16.3854 11.6504 16.3562V18.5721C11.4376 18.5907 11.2208 18.6 11 18.6C9.16667 18.6 7.60833 17.9583 6.325 16.675C5.04167 15.3917 4.4 13.8333 4.4 12C4.4 10.1667 5.04167 8.60833 6.325 7.325C7.60833 6.04167 9.16667 5.4 11 5.4C12.8333 5.4 14.3917 6.04167 15.675 7.325ZM11 14.2C10.395 14.2 9.87708 13.9846 9.44625 13.5538C9.01542 13.1229 8.8 12.605 8.8 12C8.8 11.395 9.01542 10.8771 9.44625 10.4463C9.87708 10.0154 10.395 9.8 11 9.8C11.605 9.8 12.1229 10.0154 12.5538 10.4463C12.9846 10.8771 13.2 11.395 13.2 12C13.2 12.605 12.9846 13.1229 12.5538 13.5538C12.1229 13.9846 11.605 14.2 11 14.2ZM13.9544 22.7761C14.1571 22.9787 14.4007 23.0801 14.6854 23.0801H22.965C23.2497 23.0801 23.4933 22.9787 23.696 22.7761C23.8987 22.5734 24 22.3297 24 22.0451V15.8354C24 15.5507 23.8987 15.3071 23.696 15.1044C23.4933 14.9017 23.2497 14.8004 22.965 14.8004H20.8951V13.7654C20.8951 13.4808 20.7938 13.2372 20.5911 13.0345C20.3884 12.8318 20.1448 12.7305 19.8602 12.7305H17.7902C17.5056 12.7305 17.262 12.8318 17.0593 13.0345C16.8566 13.2372 16.7553 13.4808 16.7553 13.7654V14.8004H14.6854C14.4007 14.8004 14.1571 14.9017 13.9544 15.1044C13.7517 15.3071 13.6504 15.5507 13.6504 15.8354V22.0451C13.6504 22.3297 13.7517 22.5734 13.9544 22.7761ZM19.8602 14.8004H17.7902V13.7654H19.8602V14.8004ZM18.3077 19.4577V20.4927C18.3077 20.6393 18.3573 20.7622 18.4565 20.8614C18.5557 20.9606 18.6786 21.0102 18.8252 21.0102C18.9718 21.0102 19.0947 20.9606 19.1939 20.8614C19.2931 20.7622 19.3427 20.6393 19.3427 20.4927V19.4577H20.3776C20.5243 19.4577 20.6472 19.4081 20.7463 19.3089C20.8455 19.2098 20.8951 19.0869 20.8951 18.9402C20.8951 18.7936 20.8455 18.6707 20.7463 18.5715C20.6472 18.4723 20.5243 18.4228 20.3776 18.4228H19.3427V17.3878C19.3427 17.2412 19.2931 17.1183 19.1939 17.0191C19.0947 16.9199 18.9718 16.8703 18.8252 16.8703C18.6786 16.8703 18.5557 16.9199 18.4565 17.0191C18.3573 17.1183 18.3077 17.2412 18.3077 17.3878V18.4228H17.2728C17.1261 18.4228 17.0032 18.4723 16.904 18.5715C16.8049 18.6707 16.7553 18.7936 16.7553 18.9402C16.7553 19.0869 16.8049 19.2098 16.904 19.3089C17.0032 19.4081 17.1261 19.4577 17.2728 19.4577H18.3077Z" fill="white"/>
</svg>
