<svg width="24" height="24" viewBox="0 0 24 24" fill="none" xmlns="http://www.w3.org/2000/svg">
<path fill-rule="evenodd" clip-rule="evenodd" d="M2.25 22C1.5625 22 1.01562 21.7969 0.609375 21.3906C0.203125 20.9844 0 20.4375 0 19.75V3.25C0 2.5625 0.203125 2.01562 0.609375 1.60938C1.01562 1.20312 1.5625 1 2.25 1H18.75C19.4375 1 19.9844 1.20312 20.3906 1.60938C20.7969 2.01562 21 2.5625 21 3.25V9.18458C20.5855 9.06415 20.1495 9 19.7031 9C19.3785 9 19.0594 9.03393 18.75 9.09875V7.75H11.625V10.4035C11.0207 9.78104 10.2389 9.33292 9.375 9.12682V7.75H2.25V12.625H3.80107C3.7474 12.9003 3.71917 13.186 3.71917 13.48C3.71917 13.9714 3.79802 14.4395 3.94276 14.875H2.25V19.75C2.25 20.5898 2.45743 21.3893 2.91131 22H2.25ZM2.25 5.5H18.75V3.25H2.25V5.5ZM10.741 13.6142C10.741 14.9103 9.64655 15.9609 8.29649 15.9609C6.94644 15.9609 5.852 14.9103 5.852 13.6142C5.852 12.3182 6.94644 11.2676 8.29649 11.2676C9.64655 11.2676 10.741 12.3182 10.741 13.6142ZM19.7041 15.9609C21.0542 15.9609 22.1486 14.9103 22.1486 13.6142C22.1486 12.3182 21.0542 11.2676 19.7041 11.2676C18.3541 11.2676 17.2596 12.3182 17.2596 13.6142C17.2596 14.9103 18.3541 15.9609 19.7041 15.9609ZM14.0003 17.5254C15.3504 17.5254 16.4448 16.4747 16.4448 15.1787C16.4448 13.8827 15.3504 12.832 14.0003 12.832C12.6502 12.832 11.5558 13.8827 11.5558 15.1787C11.5558 16.4747 12.6502 17.5254 14.0003 17.5254ZM5.8521 21.4365C4.95206 21.4365 4.19829 20.7222 4.44921 19.8925C4.47486 19.8076 4.50265 19.7236 4.53256 19.6404C4.73731 19.071 5.03741 18.5536 5.41573 18.1178C5.79405 17.682 6.24318 17.3363 6.73748 17.1004C7.23178 16.8645 7.76156 16.7431 8.29659 16.7431C8.83161 16.7431 9.3614 16.8645 9.8557 17.1004C10.2141 17.2714 10.5487 17.5002 10.8498 17.7791C10.4892 18.0404 10.1601 18.3437 9.86759 18.6807C9.35526 19.2709 8.96103 19.957 8.6959 20.6944C8.65709 20.8023 8.62112 20.9111 8.58798 21.0207C8.5457 21.1605 8.51573 21.2994 8.49715 21.4365L5.8521 21.4365ZM19.5036 21.4365C19.4851 21.2994 19.4551 21.1605 19.4128 21.0207C19.3797 20.9111 19.3437 20.8023 19.3049 20.6944C19.0398 19.957 18.6455 19.2709 18.1332 18.6807C17.8406 18.3437 17.5116 18.0404 17.1509 17.7791C17.4521 17.5002 17.7867 17.2714 18.1451 17.1004C18.6394 16.8645 19.1692 16.7431 19.7042 16.7431C20.2392 16.7431 20.769 16.8645 21.2633 17.1004C21.7576 17.3363 22.2067 17.682 22.5851 18.1178C22.9634 18.5536 23.2635 19.071 23.4682 19.6404C23.4981 19.7236 23.5259 19.8076 23.5516 19.8925C23.8025 20.7222 23.0487 21.4365 22.1487 21.4365H19.5036ZM10.2362 21.2049C10.2063 21.288 10.1785 21.3721 10.1528 21.4569C9.90191 22.2867 10.6557 23.0009 11.5557 23.0009H16.4447C17.3447 23.0009 18.0985 22.2867 17.8476 21.4569C17.8219 21.3721 17.7941 21.288 17.7642 21.2049C17.5595 20.6354 17.2594 20.118 16.8811 19.6822C16.8505 19.6471 16.8196 19.6125 16.7882 19.5785C16.43 19.1914 16.0137 18.8817 15.5593 18.6648C15.065 18.429 14.5352 18.3076 14.0002 18.3076C13.4652 18.3076 12.9354 18.429 12.4411 18.6648C11.9468 18.9007 11.4977 19.2464 11.1193 19.6822C10.741 20.118 10.4409 20.6354 10.2362 21.2049Z" fill="white"/>
</svg>
