<svg width="24" height="24" viewBox="0 0 24 24" fill="none" xmlns="http://www.w3.org/2000/svg">
<path fill-rule="evenodd" clip-rule="evenodd" d="M21 12C21 16.9706 16.9706 21 12 21C7.02944 21 3 16.9706 3 12C3 7.02944 7.02944 3 12 3C16.9706 3 21 7.02944 21 12ZM23 12C23 18.0751 18.0751 23 12 23C5.92487 23 1 18.0751 1 12C1 5.92487 5.92487 1 12 1C18.0751 1 23 5.92487 23 12ZM4.75 12.1667C4.75 9.29676 6.49565 6.83017 9 5.71645V8.2142C7.75909 9.11107 6.95732 10.5491 6.95732 12.1667C6.95732 14.8764 9.20929 17.0833 12 17.0833C14.7907 17.0833 17.0427 14.8764 17.0427 12.1667C17.0427 10.5491 16.2409 9.11107 15 8.2142V5.71645C17.5043 6.83017 19.25 9.29676 19.25 12.1667C19.25 16.0843 15.9984 19.25 12 19.25C8.00165 19.25 4.75 16.0843 4.75 12.1667ZM10.8963 4.83333C10.8963 4.22938 11.3962 3.75 12 3.75C12.6038 3.75 13.1037 4.22938 13.1037 4.83333V8.83333C13.1037 9.43729 12.6038 9.91667 12 9.91667C11.3962 9.91667 10.8963 9.43729 10.8963 8.83333V4.83333Z" fill="white"/>
</svg>
