<svg width="24" height="24" viewBox="0 0 24 24" fill="none" xmlns="http://www.w3.org/2000/svg">
<path d="M5.71429 18.2857H8.07143V8.85714H5.71429V18.2857ZM10.8214 18.2857H13.1786V5.71429H10.8214V18.2857ZM15.9286 18.2857H18.2857V13.5714H15.9286V18.2857ZM3.35714 23C2.70893 23 2.15402 22.7692 1.69241 22.3076C1.2308 21.846 1 21.2911 1 20.6429V3.35714C1 2.70893 1.2308 2.15402 1.69241 1.69241C2.15402 1.2308 2.70893 1 3.35714 1H20.6429C21.2911 1 21.846 1.2308 22.3076 1.69241C22.7692 2.15402 23 2.70893 23 3.35714V20.6429C23 21.2911 22.7692 21.846 22.3076 22.3076C21.846 22.7692 21.2911 23 20.6429 23H3.35714ZM3.35714 20.6429H20.6429V3.35714H3.35714V20.6429Z" fill="white"/>
</svg>
