<svg width="16" height="16" viewBox="0 0 16 16" fill="none" xmlns="http://www.w3.org/2000/svg">
<path d="M5.7166 1.93332L11.3333 7.53332C11.3999 7.59998 11.4472 7.67221 11.4749 7.74998C11.5027 7.82776 11.5166 7.91109 11.5166 7.99998C11.5166 8.08887 11.5027 8.17221 11.4749 8.24998C11.4472 8.32776 11.3999 8.39998 11.3333 8.46665L5.7166 14.0833C5.56105 14.2389 5.3666 14.3166 5.13327 14.3166C4.89994 14.3166 4.69993 14.2333 4.53327 14.0666C4.3666 13.9 4.28327 13.7055 4.28327 13.4833C4.28327 13.2611 4.3666 13.0666 4.53327 12.9L9.43327 7.99998L4.53327 3.09998C4.37771 2.94443 4.29994 2.75276 4.29994 2.52498C4.29994 2.29721 4.38327 2.09998 4.54994 1.93332C4.7166 1.76665 4.91105 1.68332 5.13327 1.68332C5.35549 1.68332 5.54994 1.76665 5.7166 1.93332Z" fill="#E9EAEE"/>
</svg>
