<svg width="24" height="24" viewBox="0 0 24 24" fill="none" xmlns="http://www.w3.org/2000/svg">
<path fill-rule="evenodd" clip-rule="evenodd" d="M0.629464 22.3666C1.04911 22.7889 1.55357 23 2.14286 23H11V20.8438H2.14286V10.0625H17.8571V11.5H18.0027L18.4569 11.0479C18.7992 10.7014 19.2158 10.4155 19.7057 10.2332L19.7075 10.2325C19.8034 10.197 19.9009 10.1651 20 10.1371V5.03125C20 4.45226 19.7867 3.94813 19.3601 3.51888C18.9335 3.08963 18.4325 2.875 17.8571 2.875H15.7143V0H13.5714V2.875H6.42857V0H4.28571V2.875H2.14286C1.56746 2.875 1.06647 3.08963 0.639881 3.51888C0.213294 3.94813 0 4.45226 0 5.03125V20.8438C0 21.4367 0.209821 21.9443 0.629464 22.3666ZM17.8571 7.90625H2.14286V5.03125H17.8571V7.90625ZM13 19.3006V23H16.6994L23.5417 16.1577C23.7034 16.0012 23.8203 15.8232 23.8923 15.6235C23.9641 15.4235 24 15.228 24 15.0368C24 14.8456 23.9595 14.6532 23.8785 14.4596C23.7978 14.266 23.6855 14.09 23.5417 13.9315L22.1012 12.4583C21.9447 12.3056 21.7709 12.191 21.5797 12.1146C21.3885 12.0382 21.1887 12 20.9802 12C20.789 12 20.5967 12.0359 20.4031 12.1077C20.2095 12.1797 20.0335 12.2966 19.875 12.4583L13 19.3006ZM12.5354 11.5L9.48186 15.5714L7.44615 12.8571L4.39258 16.9286H13L15 14.7861L12.5354 11.5Z" fill="white"/>
</svg>
