<svg width="24" height="24" viewBox="0 0 24 24" fill="none" xmlns="http://www.w3.org/2000/svg">
<g clip-path="url(#clip0_2470_8062)">
<path fill-rule="evenodd" clip-rule="evenodd" d="M2.14286 23C1.55357 23 1.04911 22.7889 0.629464 22.3666C0.209821 21.9443 0 21.4367 0 20.8438V5.03125C0 4.45226 0.213294 3.94813 0.639881 3.51888C1.06647 3.08963 1.56746 2.875 2.14286 2.875H4.28571V0H6.42857V2.875H13.5714V0H15.7143V2.875H17.8571C18.4325 2.875 18.9335 3.08963 19.3601 3.51888C19.7867 3.94813 20 4.45226 20 5.03125V11.5H17.8571V10.0625H2.14286V20.8438H14.7143V23H2.14286ZM2.14286 7.90625H17.8571V5.03125H2.14286V7.90625ZM18 12L19.6205 16.3795L24 18L19.6205 19.6205L18 24L16.3795 19.6205L12 18L16.3795 16.3795L18 12ZM10.0804 13.9196L9 11L7.91964 13.9196L5 15L7.91964 16.0804L9 19L10.0804 16.0804L13 15L10.0804 13.9196Z" fill="white"/>
</g>
<defs>
<clipPath id="clip0_2470_8062">
<rect width="24" height="24" fill="white"/>
</clipPath>
</defs>
</svg>
