<svg width="24" height="24" viewBox="0 0 24 24" fill="none" xmlns="http://www.w3.org/2000/svg">
<path fill-rule="evenodd" clip-rule="evenodd" d="M11 5.54167L8.85714 6.6131V4.14286H13.1429V6.6131L11 5.54167ZM1.62946 21.3705C2.04911 21.7902 2.55357 22 3.14286 22H11.8889V19.8571H3.14286V4.14286H6.71429V10.0952L11 7.95238L15.2857 10.0952V4.14286H18.8571V8.83532H21V4.14286C21 3.55357 20.7902 3.04911 20.3705 2.62947C19.9509 2.20982 19.4464 2 18.8571 2H3.14286C2.55357 2 2.04911 2.20982 1.62946 2.62947C1.20982 3.04911 1 3.55357 1 4.14286V19.8571C1 20.4464 1.20982 20.9509 1.62946 21.3705ZM16.6895 21.9167H18.9239C19.0728 21.9167 19.2019 21.867 19.3112 21.7677C19.4204 21.6684 19.4849 21.5443 19.5048 21.3953L19.6835 20.01C19.8027 19.9604 19.9219 19.9008 20.041 19.8313C20.1602 19.7617 20.2744 19.6873 20.3837 19.6078L21.6498 20.1441C21.7888 20.1937 21.9303 20.1962 22.0743 20.1515C22.2183 20.1068 22.33 20.0199 22.4095 19.8908L23.5118 17.9842C23.5912 17.8551 23.6161 17.716 23.5863 17.5671C23.5565 17.4181 23.482 17.299 23.3628 17.2096L22.2456 16.3605C22.2655 16.291 22.2754 16.224 22.2754 16.1594V15.7572C22.2754 15.6927 22.2705 15.6257 22.2605 15.5562L23.3777 14.7071C23.4969 14.6177 23.5714 14.4985 23.6012 14.3496C23.6309 14.2006 23.6061 14.0616 23.5267 13.9325L22.4244 12.0109C22.3449 11.8818 22.2357 11.7974 22.0967 11.7577C21.9576 11.718 21.8186 11.723 21.6796 11.7726L20.3837 12.3089C20.2744 12.2294 20.1627 12.1549 20.0485 12.0854C19.9343 12.0159 19.8126 11.9563 19.6835 11.9067L19.5048 10.5214C19.4849 10.3724 19.4204 10.2483 19.3112 10.149C19.2019 10.0497 19.0728 10 18.9239 10H16.6895C16.5405 10 16.4114 10.0497 16.3022 10.149C16.193 10.2483 16.1284 10.3724 16.1085 10.5214L15.9298 11.9067C15.8106 11.9563 15.6915 12.0159 15.5723 12.0854C15.4531 12.1549 15.3389 12.2294 15.2297 12.3089L13.9338 11.7726C13.7947 11.723 13.6532 11.7155 13.5092 11.7503C13.3652 11.785 13.2585 11.8719 13.189 12.0109L12.0867 13.9325C12.0072 14.0616 11.9824 14.2006 12.0122 14.3496C12.042 14.4985 12.1165 14.6177 12.2356 14.7071L13.3528 15.5562C13.3429 15.6257 13.3379 15.6927 13.3379 15.7572V16.1594C13.3379 16.224 13.3429 16.291 13.3528 16.3605L12.2356 17.2096C12.1165 17.299 12.042 17.4181 12.0122 17.5671C11.9824 17.716 12.0072 17.8551 12.0867 17.9842L13.189 19.9057C13.2684 20.0348 13.3776 20.1192 13.5167 20.159C13.6557 20.1987 13.7947 20.1937 13.9338 20.1441L15.2297 19.6078C15.3389 19.6873 15.4506 19.7617 15.5648 19.8313C15.679 19.9008 15.8007 19.9604 15.9298 20.01L16.1085 21.3953C16.1284 21.5443 16.193 21.6684 16.3022 21.7677C16.4114 21.867 16.5405 21.9167 16.6895 21.9167ZM17.8365 18.0438C18.4124 18.0438 18.904 17.8402 19.3112 17.433C19.7183 17.0259 19.9219 16.5343 19.9219 15.9583C19.9219 15.3824 19.7183 14.8908 19.3112 14.4837C18.904 14.0765 18.4124 13.8729 17.8365 13.8729C17.2506 13.8729 16.7565 14.0765 16.3543 14.4837C15.9521 14.8908 15.751 15.3824 15.751 15.9583C15.751 16.5343 15.9521 17.0259 16.3543 17.433C16.7565 17.8402 17.2506 18.0438 17.8365 18.0438Z" fill="white"/>
</svg>
