<svg width="24" height="24" viewBox="0 0 24 24" fill="none" xmlns="http://www.w3.org/2000/svg">
<g clip-path="url(#clip0_2470_34631)">
<path d="M9.75 17.25C11.8333 17.25 13.6042 16.5208 15.0625 15.0625C16.5208 13.6042 17.25 11.8333 17.25 9.75C17.25 7.66667 16.5208 5.89583 15.0625 4.4375C13.6042 2.97917 11.8333 2.25 9.75 2.25C7.66667 2.25 5.89583 2.97917 4.4375 4.4375C2.97917 5.89583 2.25 7.66667 2.25 9.75C2.25 11.8333 2.97917 13.6042 4.4375 15.0625C5.89583 16.5208 7.66667 17.25 9.75 17.25ZM8.625 13.5V4.5H10.875V13.5H8.625ZM4.5 13.5V7.5H6.75V13.5H4.5ZM12.75 13.5V9H15V13.5H12.75ZM22.4062 24L15.8125 17.4062C14.9704 18.0729 14.0359 18.5885 13.0091 18.9531C11.9822 19.3177 10.8994 19.5 9.76062 19.5C7.03583 19.5 4.72781 18.5521 2.83656 16.6562C0.945521 14.7604 0 12.4583 0 9.75C0 7.04167 0.947917 4.73958 2.84375 2.84375C4.73958 0.947917 7.04167 0 9.75 0C12.4583 0 14.7604 0.945521 16.6562 2.83656C18.5521 4.72781 19.5 7.03583 19.5 9.76063C19.5 10.8994 19.3177 11.9822 18.9531 13.0091C18.5885 14.0359 18.0729 14.9704 17.4062 15.8125L24 22.4062L22.4062 24Z" fill="#562E76"/>
</g>
<defs>
<clipPath id="clip0_2470_34631">
<rect width="24" height="24" fill="white"/>
</clipPath>
</defs>
</svg>
