<svg width="40" height="41" viewBox="0 0 40 41" fill="none" xmlns="http://www.w3.org/2000/svg">
<g clip-path="url(#clip0_2471_3895)">
<path fill-rule="evenodd" clip-rule="evenodd" d="M38 20.5C38 30.4411 29.9411 38.5 20 38.5C10.0589 38.5 2 30.4411 2 20.5C2 10.5589 10.0589 2.5 20 2.5C29.9411 2.5 38 10.5589 38 20.5ZM20 36.5C28.8366 36.5 36 29.3366 36 20.5C36 11.6634 28.8366 4.5 20 4.5C11.1634 4.5 4 11.6634 4 20.5C4 29.3366 11.1634 36.5 20 36.5Z" fill="#785891"/>
<mask id="mask0_2471_3895" style="mask-type:alpha" maskUnits="userSpaceOnUse" x="2" y="2" width="36" height="37">
<path d="M38 20.5C38 30.4411 29.9411 38.5 20 38.5C10.0589 38.5 2 30.4411 2 20.5C2 10.5589 10.0589 2.5 20 2.5C29.9411 2.5 38 10.5589 38 20.5Z" fill="#785891"/>
</mask>
<g mask="url(#mask0_2471_3895)">
<path fill-rule="evenodd" clip-rule="evenodd" d="M20 24.0996C23.3137 24.0996 26 21.4133 26 18.0996C26 14.7859 23.3137 12.0996 20 12.0996C16.6863 12.0996 14 14.7859 14 18.0996C14 21.4133 16.6863 24.0996 20 24.0996ZM20 26.0996C24.4183 26.0996 28 22.5179 28 18.0996C28 13.6813 24.4183 10.0996 20 10.0996C15.5817 10.0996 12 13.6813 12 18.0996C12 22.5179 15.5817 26.0996 20 26.0996Z" fill="#785891"/>
<path fill-rule="evenodd" clip-rule="evenodd" d="M20 48.5C25.5228 48.5 30 44.0228 30 38.5C30 32.9772 25.5228 28.5 20 28.5C14.4772 28.5 10 32.9772 10 38.5C10 44.0228 14.4772 48.5 20 48.5ZM20 50.5C26.6274 50.5 32 45.1274 32 38.5C32 31.8726 26.6274 26.5 20 26.5C13.3726 26.5 8 31.8726 8 38.5C8 45.1274 13.3726 50.5 20 50.5Z" fill="#785891"/>
</g>
<path d="M40 32.5C40 36.9183 36.4183 40.5 32 40.5C27.5817 40.5 24 36.9183 24 32.5C24 28.0817 27.5817 24.5 32 24.5C36.4183 24.5 40 28.0817 40 32.5Z" fill="#3195C5"/>
<path fill-rule="evenodd" clip-rule="evenodd" d="M32 38.5C35.3137 38.5 38 35.8137 38 32.5C38 29.1863 35.3137 26.5 32 26.5C28.6863 26.5 26 29.1863 26 32.5C26 35.8137 28.6863 38.5 32 38.5ZM32 40.5C36.4183 40.5 40 36.9183 40 32.5C40 28.0817 36.4183 24.5 32 24.5C27.5817 24.5 24 28.0817 24 32.5C24 36.9183 27.5817 40.5 32 40.5Z" fill="white"/>
<path fill-rule="evenodd" clip-rule="evenodd" d="M31.0001 33.0859L29.7071 31.7929L28.2929 33.2071L31.0001 35.9143L35.9706 30.9437L34.5564 29.5295L31.0001 33.0859Z" fill="white"/>
</g>
<defs>
<clipPath id="clip0_2471_3895">
<rect width="40" height="40" fill="white" transform="translate(0 0.5)"/>
</clipPath>
</defs>
</svg>
