<svg width="20" height="21" viewBox="0 0 20 21" fill="none" xmlns="http://www.w3.org/2000/svg">
<path d="M2.5013 18.0547C2.26519 18.0547 2.06727 17.9748 1.90755 17.8151C1.74783 17.6554 1.66797 17.4575 1.66797 17.2214C1.66797 16.9852 1.74783 16.7873 1.90755 16.6276C2.06727 16.4679 2.26519 16.388 2.5013 16.388H17.5013C17.7374 16.388 17.9353 16.4679 18.0951 16.6276C18.2548 16.7873 18.3346 16.9852 18.3346 17.2214C18.3346 17.4575 18.2548 17.6554 18.0951 17.8151C17.9353 17.9748 17.7374 18.0547 17.5013 18.0547H2.5013ZM3.7513 15.5547C3.40408 15.5547 3.10894 15.4332 2.86589 15.1901C2.62283 14.947 2.5013 14.6519 2.5013 14.3047V10.9714C2.5013 10.6241 2.62283 10.329 2.86589 10.0859C3.10894 9.84288 3.40408 9.72135 3.7513 9.72135C4.09852 9.72135 4.39366 9.84288 4.63672 10.0859C4.87977 10.329 5.0013 10.6241 5.0013 10.9714V14.3047C5.0013 14.6519 4.87977 14.947 4.63672 15.1901C4.39366 15.4332 4.09852 15.5547 3.7513 15.5547ZM7.91797 15.5547C7.57075 15.5547 7.27561 15.4332 7.03255 15.1901C6.7895 14.947 6.66797 14.6519 6.66797 14.3047V6.80469C6.66797 6.45747 6.7895 6.16233 7.03255 5.91927C7.27561 5.67622 7.57075 5.55469 7.91797 5.55469C8.26519 5.55469 8.56033 5.67622 8.80339 5.91927C9.04644 6.16233 9.16797 6.45747 9.16797 6.80469V14.3047C9.16797 14.6519 9.04644 14.947 8.80339 15.1901C8.56033 15.4332 8.26519 15.5547 7.91797 15.5547ZM12.0846 15.5547C11.7374 15.5547 11.4423 15.4332 11.1992 15.1901C10.9562 14.947 10.8346 14.6519 10.8346 14.3047V9.30469C10.8346 8.95747 10.9562 8.66233 11.1992 8.41927C11.4423 8.17622 11.7374 8.05469 12.0846 8.05469C12.4319 8.05469 12.727 8.17622 12.9701 8.41927C13.2131 8.66233 13.3346 8.95747 13.3346 9.30469V14.3047C13.3346 14.6519 13.2131 14.947 12.9701 15.1901C12.727 15.4332 12.4319 15.5547 12.0846 15.5547ZM16.2513 15.5547C15.9041 15.5547 15.6089 15.4332 15.3659 15.1901C15.1228 14.947 15.0013 14.6519 15.0013 14.3047V4.30469C15.0013 3.95747 15.1228 3.66233 15.3659 3.41927C15.6089 3.17622 15.9041 3.05469 16.2513 3.05469C16.5985 3.05469 16.8937 3.17622 17.1367 3.41927C17.3798 3.66233 17.5013 3.95747 17.5013 4.30469V14.3047C17.5013 14.6519 17.3798 14.947 17.1367 15.1901C16.8937 15.4332 16.5985 15.5547 16.2513 15.5547Z" fill="#232951"/>
</svg>
