<?xml version="1.0" encoding="utf-8"?>
<!-- Svg Vector Icons : http://www.onlinewebfonts.com/icon -->
<!DOCTYPE svg PUBLIC "-//W3C//DTD SVG 1.1//EN" "http://www.w3.org/Graphics/SVG/1.1/DTD/svg11.dtd">
<svg version="1.1" xmlns="http://www.w3.org/2000/svg" xmlns:xlink="http://www.w3.org/1999/xlink" x="0px" y="0px" viewBox="0 0 1000 1000" enable-background="new 0 0 1000 1000" xml:space="preserve">
<metadata> Svg Vector Icons : http://www.onlinewebfonts.com/icon </metadata>
<g><path d="M65.5,608.1"/><path d="M916.9,696.1"/><path d="M94.8,696.1"/><path d="M887.5,813.6"/><path d="M124.2,813.6"/><path d="M505.9,960.4"/><path d="M505.9,578.7"/><path d="M711.4,960.4"/><path d="M711.4,578.7"/><path d="M438.9,869.8c-13.2,0-25.6-5.1-35-14.4L89.2,540.6c-19.3-19.3-19.3-50.6,0-69.9L529.8,30c12.2-12.2,32.2-20,51-20c4.7,0,9.3,0.5,13.6,1.5l236.1,54.3c22.3,5.1,43,25.8,48.2,48.2L933,350.1c5,21.7-2.8,48.9-18.5,64.6L473.9,855.4C464.5,864.7,452.1,869.8,438.9,869.8z M124.1,505.6C124.1,505.6,124.2,505.7,124.1,505.6l314.8,314.8v0c0,0,0.1,0,0.1,0l440.6-440.6c3.6-3.6,6.5-13.6,5.3-18.5l-54.4-236.1c-0.9-4-7-10.2-11.1-11.1L583.3,59.7c-0.4-0.1-1.2-0.2-2.5-0.2c-6.2,0-13.4,2.9-16,5.5L124.1,505.6C124.1,505.6,124.1,505.6,124.1,505.6z"/><path d="M704,176c17.8-17.8,46.7-17.8,64.5,0c17.8,17.8,17.9,46.7,0,64.6c-17.8,17.8-46.7,17.8-64.5,0C686.2,222.7,686.2,193.8,704,176z"/><path d="M438.9,990c-9.5,0-19-3.6-26.2-10.8L80.4,646.9l17.5-17.5l332.3,332.2c4.8,4.8,12.7,4.8,17.5,0l458.1-458.1l17.5,17.5L465.1,979.2C457.9,986.4,448.4,990,438.9,990z"/></g>
</svg>