<?xml version="1.0" encoding="utf-8"?>
<!-- Svg Vector Icons : http://www.onlinewebfonts.com/icon -->
<!DOCTYPE svg PUBLIC "-//W3C//DTD SVG 1.1//EN" "http://www.w3.org/Graphics/SVG/1.1/DTD/svg11.dtd">
<svg version="1.1" xmlns="http://www.w3.org/2000/svg" xmlns:xlink="http://www.w3.org/1999/xlink" x="0px" y="0px" viewBox="0 0 1000 1000" enable-background="new 0 0 1000 1000" xml:space="preserve">
<metadata> Svg Vector Icons : http://www.onlinewebfonts.com/icon </metadata>
<g><g transform="translate(0.000000,511.000000) scale(0.100000,-0.100000)"><path d="M3283.5,3057c-71.5-38.8-130.7-87.8-171.5-145l-61.3-89.9v-841.3v-841.3l57.2-85.8c30.6-47,93.9-110.3,140.9-140.9l85.8-57.2h1666.3h1666.3l85.8,57.2c47,30.6,110.3,93.9,140.9,140.9l57.2,85.8v841.3v841.3l-61.3,89.9c-40.8,57.2-100.1,106.2-171.5,145l-112.3,55.1h-1605h-1605L3283.5,3057z M6614,2765c38.8-38.8,40.8-67.4,40.8-786.2c0-718.8-2-747.4-40.8-786.2c-40.8-40.8-67.4-40.8-1609.1-40.8c-1384.5,0-1572.3,4.1-1613.2,32.7l-44.9,30.6v755.5c0,727,2,755.5,40.8,794.3c40.8,40.8,67.4,40.8,1613.2,40.8C6546.6,2805.9,6573.1,2805.9,6614,2765z"/><path d="M2133.8-195.9c-923-976.1-914.8-967.9-837.2-1078.2c22.5-32.7,51-44.9,108.2-44.9c77.6,0,96,18.4,939.3,912.8c473.7,502.3,865.8,935.2,874,961.8c18.4,73.5-53.1,155.2-142.9,163.4C3003.7,725.1,2989.4,710.8,2133.8-195.9z"/><path d="M6820.2,669.9c-87.8-110.3-155.2-24.5,910.7-1153.7c769.8-816.8,788.2-835.2,865.8-835.2c57.2,0,85.8,12.2,108.2,44.9c77.6,110.3,85.8,102.1-831.1,1072.1c-798.4,845.4-869.9,914.8-937.3,920.9C6877.4,723,6854.9,714.9,6820.2,669.9z"/><path d="M4902.8,574c-44.9-47-44.9-53.1-44.9-929.1c0-855.6,2-884.2,40.8-923c22.5-22.5,67.4-40.8,102.1-40.8c34.7,0,79.6,18.4,102.1,40.8c38.8,38.8,40.8,67.4,40.8,925v886.2l-47,42.9C5035.5,633.2,4957.9,633.2,4902.8,574z"/><path d="M316.5-1584.4c-32.7-10.2-81.7-38.8-110.3-65.4c-96-87.8-106.2-147-106.2-584c0-377.8,2-408.4,47-494.2c85.8-167.5,51-163.4,1178.2-163.4c1092.5,0,1076.1-2,1172.1,128.6c40.8,53.1,42.9,89.9,49,510.5c6.1,522.8-2,559.5-159.3,641.2l-87.8,47l-961.8-2C808.6-1566,349.1-1576.2,316.5-1584.4z"/><path d="M3990-1584.4c-75.6-22.5-140.9-81.7-183.8-165.4c-28.6-51-32.7-134.8-26.5-508.5c10.2-684.1-89.9-633,1217-633c1086.3,0,1080.2,0,1170.1,124.6c49,67.4,49,75.6,49,533c0,434.9-2,465.6-42.9,518.7c-22.5,30.6-67.4,75.6-98,98c-55.1,40.8-81.7,42.9-1039.4,47C4494.4-1568.1,4022.7-1574.2,3990-1584.4z"/><path d="M7645.2-1594.6c-93.9-32.7-167.5-116.4-185.8-204.2c-6.1-32.7-8.2-251.2-4.1-484c10.2-655.5-85.8-608.5,1221.1-608.5c1127.2,0,1092.5-4.1,1180.3,165.4c44.9,85.8,47,106.2,40.8,522.8c-6.1,473.8-10.2,484-147,586.1c-55.1,40.8-81.7,42.9-1039.4,47C7898.4-1566,7712.6-1570.1,7645.2-1594.6z"/></g></g>
</svg>