<svg width="16" height="10" viewBox="0 0 16 10" fill="none" xmlns="http://www.w3.org/2000/svg">
<path d="M15.5846 2.39648L8.58464 9.41732C8.5013 9.50065 8.41103 9.55968 8.3138 9.5944C8.21658 9.62912 8.11241 9.64648 8.0013 9.64648C7.89019 9.64648 7.78603 9.62912 7.6888 9.5944C7.59158 9.55968 7.5013 9.50065 7.41797 9.41732L0.397135 2.39648C0.202691 2.20204 0.105468 1.95898 0.105468 1.66732C0.105468 1.37565 0.209635 1.12565 0.417968 0.917317C0.626302 0.708984 0.869357 0.604817 1.14714 0.604817C1.42491 0.604817 1.66797 0.708984 1.8763 0.917317L8.0013 7.04232L14.1263 0.917317C14.3207 0.722872 14.5603 0.625651 14.8451 0.625651C15.1298 0.625651 15.3763 0.729818 15.5846 0.938151C15.793 1.14648 15.8971 1.38954 15.8971 1.66732C15.8971 1.94509 15.793 2.18815 15.5846 2.39648Z" fill="#4F5474"/>
</svg>
