<?xml version="1.0" encoding="utf-8"?>
<!-- Svg Vector Icons : http://www.onlinewebfonts.com/icon -->
<!DOCTYPE svg PUBLIC "-//W3C//DTD SVG 1.1//EN" "http://www.w3.org/Graphics/SVG/1.1/DTD/svg11.dtd">
<svg version="1.1" xmlns="http://www.w3.org/2000/svg" xmlns:xlink="http://www.w3.org/1999/xlink" x="0px" y="0px" viewBox="0 0 1000 1000" enable-background="new 0 0 1000 1000" xml:space="preserve">
<metadata> Svg Vector Icons : http://www.onlinewebfonts.com/icon </metadata>
<g><g transform="translate(0.000000,418.000000) scale(0.100000,-0.100000)"><path d="M394.8,3144c-116.8-53.6-208.6-143.6-254.6-248.8l-40.2-95.7L103.8-843c5.7-3460.6,7.7-3646.3,40.2-3711.4c47.9-95.7,141.7-187.6,233.5-229.7c72.7-34.5,235.4-36.4,3795.6-36.4c3296,0,3726.7,3.8,3787.9,28.7c105.3,44,193.3,118.7,233.5,197.1C8257.7-4468.2,9900,52.8,9900,102.6c0,91.9-57.4,239.3-126.3,317.7c-114.8,135.9-147.4,143.6-518.7,153.1l-329.2,7.7L8920,1140l-5.7,557l-51.7,88c-59.3,101.4-147.4,183.8-239.3,222c-51.7,21-438.3,24.9-2124.6,24.9H4435.4l-390.5,545.5c-214.4,300.5-407.7,558.9-428.7,574.2c-36.4,24.9-250.7,28.7-1592.5,28.7C557.5,3180.4,469.4,3178.5,394.8,3144z M3843.9,2298c252.7-356,413.4-562.7,442.2-574.2c26.8-9.6,920.7-17.2,2145.7-17.2c1288.2,0,2111.2-7.7,2128.4-19.1c24.9-15.3,28.7-103.4,34.5-564.6l5.7-545.5l-3259.6-3.8l-3259.6-5.7l-80.4-42.1c-168.4-90-153.1-55.5-859.4-1986.8C779.5-2450.8,469.4-3291,454.1-3327.4c-23-59.3-26.8,310.1-26.8,3028.1c-1.9,2788.8,1.9,3096.9,28.7,3123.7c26.8,26.8,189.5,30.6,1510.2,30.6h1479.6L3843.9,2298z M9561.2,175.3c15.3-40.2-134-461.3-823-2354.3L7896-4485.4l-3692.2-5.7c-2030.8-1.9-3711.4,0-3734.3,5.7c-28.7,5.7-44,24.9-44,51.7c0,23,281.4,807.7,624,1745.6C1392-1750.2,1772.9-709,1893.5-374l222,606.8l3715.2-3.8l3715.2-5.7L9561.2,175.3z"/></g></g>
</svg>