<?xml version="1.0" encoding="UTF-8"?>
<svg width="60px" height="60px" viewBox="0 0 60 60" version="1.1" xmlns="http://www.w3.org/2000/svg" xmlns:xlink="http://www.w3.org/1999/xlink">
    <title>icon / menu apps</title>
    <g id="symbols" stroke="none" stroke-width="1" fill="none" fill-rule="evenodd">
        <g id="icon-/-menu-apps">
            <g id="rectangle-/-white-shadow-round" fill="#FFFFFF">
                <rect id="Rectangle" x="0" y="0" width="60" height="60" rx="10"></rect>
            </g>
            <path d="M13.9726706,4 C15.4454222,4 16.7808802,4.59141059 17.7495075,5.54163618 C18.7181348,6.49354656 19.3182171,7.80595673 19.3182171,9.25160627 L19.3182171,13.8005117 C19.3182171,15.2460209 18.7164205,16.5602562 17.7495075,17.5121666 C16.7808802,18.464077 15.4454222,19.0538028 13.9726706,19.0538028 L9.34554649,19.0538028 C7.87465211,19.0538028 6.53733686,18.4640302 5.56870955,17.5121666 C4.60008224,16.5602562 4,15.2478461 4,13.8005117 L4,9.25160627 C4,7.80609713 4.60012986,6.49186176 5.56870955,5.54163618 C6.53733686,4.5897258 7.87279486,4 9.34554649,4 L13.9726706,4 Z M13.9763851,6.70264861 L9.34926099,6.70264861 C8.63602937,6.70264861 7.98794436,6.9891156 7.51658383,7.45238333 C7.04520426,7.91562766 6.75201591,8.55419386 6.75201591,9.25343147 L6.75201591,13.8023369 C6.75201591,14.5032593 7.04518521,15.1401595 7.51658383,15.6033851 C7.98796341,16.0666294 8.63607699,16.3547578 9.34926099,16.3547578 L13.9763851,16.3547578 C14.6896167,16.3547578 15.3377017,16.0666481 15.8090622,15.6033851 C16.2804418,15.1401407 16.5719634,14.5032125 16.5719634,13.8023369 L16.5719634,9.25343147 C16.5719634,8.55419386 16.2804656,7.91560894 15.8090622,7.45238333 C15.3376827,6.989139 14.6879023,6.70264861 13.9763851,6.70264861 Z" id="Combined-Shape" fill="#785891" fill-rule="nonzero"></path>
            <path d="M50.6540725,40.9461972 C52.1249669,40.9461972 53.4622822,41.5359698 54.4291951,42.4878334 C55.3978224,43.4397438 55.9979046,44.7521539 55.9979046,46.1994883 L55.9979046,50.7483937 C55.9979046,52.1939029 55.396108,53.5081382 54.4291951,54.4583638 C53.4605678,55.4102742 52.1251098,56 50.6540725,56 L46.0252817,56 C44.5543873,56 43.217072,55.4085894 42.2484447,54.4583638 C41.2798174,53.5064534 40.6797352,52.1940433 40.6797352,50.7483937 L40.6797352,46.1994883 C40.6797352,44.7539791 41.279865,43.4397438 42.2484447,42.4878334 C43.217072,41.535923 44.55253,40.9461972 46.0252817,40.9461972 L50.6540725,40.9461972 Z M50.6540725,43.6468802 L46.0252817,43.6468802 C45.3120501,43.6468802 44.663965,43.9349899 44.1926045,44.3982529 C43.7212249,44.8614973 43.4280366,45.4984255 43.4280366,46.1993011 L43.4280366,50.7482065 C43.4280366,51.4474441 43.7212059,52.0860291 44.1926045,52.5492547 C44.6639841,53.012499 45.3120977,53.2989894 46.0252817,53.2989894 L50.6540725,53.2989894 C51.3655898,53.2989894 52.0153892,53.0125224 52.4867497,52.5492547 C52.9581293,52.0860103 53.2496508,51.4474441 53.2496508,50.7482065 L53.2496508,46.1993011 C53.2496508,45.4983787 52.9581531,44.8614785 52.4867497,44.3982529 C52.0153701,43.9350086 51.3655898,43.6468802 50.6540725,43.6468802 Z" id="Combined-Shape" fill="#785891" fill-rule="nonzero"></path>
            <path d="M32.3148716,40.9461972 C33.785766,40.9461972 35.1230813,41.5359698 36.0899942,42.4878334 C37.0586215,43.4397438 37.6587038,44.7521539 37.6587038,46.1994883 L37.6587038,50.7483937 C37.6587038,52.1939029 37.0569071,53.5081382 36.0899942,54.4583638 C35.1213669,55.4102742 33.7859089,56 32.3148716,56 L27.6860808,56 C26.2151864,56 24.8778712,55.4085894 23.9092438,54.4583638 C22.9406165,53.5064534 22.3405343,52.1940433 22.3405343,50.7483937 L22.3405343,46.1994883 C22.3405343,44.7539791 22.9406642,43.4397438 23.9092438,42.4878334 C24.8778712,41.535923 26.2133292,40.9461972 27.6860808,40.9461972 L32.3148716,40.9461972 Z M32.3148716,43.6468802 L27.6860808,43.6468802 C26.9728492,43.6468802 26.3247642,43.9349899 25.8534036,44.3982529 C25.3820241,44.8614973 25.0888357,45.4984255 25.0888357,46.1993011 L25.0888357,50.7482065 C25.0888357,51.4474441 25.382005,52.0860291 25.8534036,52.5492547 C26.3247832,53.012499 26.9728968,53.2989894 27.6860808,53.2989894 L32.3148716,53.2989894 C33.0263889,53.2989894 33.6761883,53.0125224 34.1475488,52.5492547 C34.6189284,52.0860103 34.91045,51.4474441 34.91045,50.7482065 L34.91045,46.1993011 C34.91045,45.4983787 34.6189522,44.8614785 34.1475488,44.3982529 C33.6761692,43.9350086 33.0263889,43.6468802 32.3148716,43.6468802 Z" id="Combined-Shape" fill="#5AAAD1" fill-rule="nonzero"></path>
            <path d="M13.974004,40.9461972 C15.4467556,40.9461972 16.7822136,41.5359698 17.7508409,42.4878334 C18.7194682,43.4397438 19.3195505,44.7521539 19.3195505,46.1994883 L19.3195505,50.7483937 C19.3195505,52.1939029 18.7177539,53.5081382 17.7508409,54.4583638 C16.7822136,55.4102742 15.4467556,56 13.974004,56 L9.3468799,56 C7.87598552,56 6.53867027,55.4085894 5.57004296,54.4583638 C4.60141565,53.5064534 4.00133341,52.1940433 4.00133341,50.7483937 L4.00133341,46.1994883 C4.00133341,44.7539791 4.60146327,43.4397438 5.57004296,42.4878334 C6.53867027,41.535923 7.87412827,40.9461972 9.3468799,40.9461972 L13.974004,40.9461972 Z M13.974004,43.6468802 L9.3468799,43.6468802 C8.63364828,43.6468802 7.98556327,43.9349899 7.51420274,44.3982529 C7.04282317,44.8614973 6.74963482,45.4984255 6.74963482,46.1993011 L6.74963482,50.7482065 C6.74963482,51.4474441 7.04280412,52.0860291 7.51420274,52.5492547 C7.98558232,53.012499 8.6336959,53.2989894 9.3468799,53.2989894 L13.974004,53.2989894 C14.6872356,53.2989894 15.3353206,53.0125224 15.8066812,52.5492547 C16.2780607,52.0860103 16.5695823,51.4474441 16.5695823,50.7482065 L16.5695823,46.1993011 C16.5695823,45.4983787 16.2780845,44.8614785 15.8066812,44.3982529 C15.3353016,43.9350086 14.6855212,43.6468802 13.974004,43.6468802 Z" id="Combined-Shape" fill="#785891" fill-rule="nonzero"></path>
            <path d="M50.6551202,22.4722562 C52.1260146,22.4722562 53.4633298,23.0636668 54.4302428,24.0138924 C55.3988701,24.9658028 55.9989523,26.2782129 55.9989523,27.7238625 L55.9989523,32.2727679 C55.9989523,33.7182771 55.3971557,35.0325124 54.4302428,35.9844228 C53.4616155,36.9363332 52.1261575,37.526059 50.6551202,37.526059 L46.0263294,37.526059 C44.555435,37.526059 43.2181197,36.9362864 42.2494924,35.9844228 C41.2808651,35.0325592 40.6807829,33.7201023 40.6807829,32.2727679 L40.6807829,27.7238625 C40.6807829,26.2783533 41.2809127,24.964118 42.2494924,24.0138924 C43.2181197,23.061982 44.5535777,22.4722562 46.0263294,22.4722562 L50.6551202,22.4722562 Z M50.6551202,25.1747644 L46.0263294,25.1747644 C45.3130977,25.1747644 44.6650127,25.4612314 44.1936522,25.9244991 C43.7222726,26.3877435 43.4290843,27.0263097 43.4290843,27.7255473 L43.4290843,32.2744527 C43.4290843,32.9753751 43.7222536,33.6122753 44.1936522,34.0755009 C44.6650318,34.5387452 45.3131454,34.8268736 46.0263294,34.8268736 L50.6551202,34.8268736 C51.3666375,34.8268736 52.0164368,34.5387639 52.4877974,34.0755009 C52.9591769,33.6122565 53.2506985,32.9753283 53.2506985,32.2744527 L53.2506985,27.7255473 C53.2506985,27.0263097 52.9592008,26.3877247 52.4877974,25.9244991 C52.0164178,25.4612548 51.3666375,25.1747644 50.6551202,25.1747644 Z" id="Combined-Shape" fill="#5AAAD1" fill-rule="nonzero"></path>
            <path d="M32.3159193,22.4722562 C33.7868137,22.4722562 35.124129,23.0636668 36.0910419,24.0138924 C37.0596692,24.9658028 37.6597514,26.2782129 37.6597514,27.7238625 L37.6597514,32.2727679 C37.6597514,33.7182771 37.0579548,35.0325124 36.0910419,35.9844228 C35.1224146,36.9363332 33.7869566,37.526059 32.3159193,37.526059 L27.6871285,37.526059 C26.2162341,37.526059 24.8789188,36.9362864 23.9102915,35.9844228 C22.9416642,35.0325124 22.341582,33.7201023 22.341582,32.2727679 L22.341582,27.7238625 C22.341582,26.2783533 22.9417118,24.964118 23.9102915,24.0138924 C24.8789188,23.061982 26.2143768,22.4722562 27.6871285,22.4722562 L32.3159193,22.4722562 Z M32.3159193,25.1747644 L27.6871285,25.1747644 C26.9738968,25.1747644 26.3258118,25.4612314 25.8544513,25.9244991 C25.3830717,26.3877435 25.0898834,27.0263097 25.0898834,27.7255473 L25.0898834,32.2744527 C25.0898834,32.9753751 25.3830527,33.6122753 25.8544513,34.0755009 C26.3258309,34.5387452 26.9739445,34.8268736 27.6871285,34.8268736 L32.3159193,34.8268736 C33.0274366,34.8268736 33.677236,34.5387639 34.1485965,34.0755009 C34.6199761,33.6122565 34.9114976,32.9753283 34.9114976,32.2744527 L34.9114976,27.7255473 C34.9114976,27.0263097 34.6199999,26.3877247 34.1485965,25.9244991 C33.6772169,25.4612548 33.0274366,25.1747644 32.3159193,25.1747644 Z" id="Combined-Shape" fill="#785891" fill-rule="nonzero"></path>
            <path d="M13.9750517,22.4722562 C15.4478033,22.4722562 16.7832613,23.0636668 17.7518886,24.0138924 C18.7205159,24.9658028 19.3205982,26.2782129 19.3205982,27.7238625 L19.3205982,32.2727679 C19.3205982,33.7182771 18.7188015,35.0325124 17.7518886,35.9844228 C16.7832613,36.9363332 15.4478033,37.526059 13.9750517,37.526059 L9.34792758,37.526059 C7.8770332,37.526059 6.53971795,36.9362864 5.57109064,35.9844228 C4.60246333,35.0325124 4.00238109,33.7201023 4.00238109,32.2727679 L4.00238109,27.7238625 C4.00238109,26.2783533 4.60251095,24.964118 5.57109064,24.0138924 C6.53971795,23.061982 7.87517595,22.4722562 9.34792758,22.4722562 L13.9750517,22.4722562 Z M13.9750517,25.1747644 L9.34792758,25.1747644 C8.63469596,25.1747644 7.98661095,25.4612314 7.51525042,25.9244991 C7.04387085,26.3877435 6.7506825,27.0263097 6.7506825,27.7255473 L6.7506825,32.2744527 C6.7506825,32.9753751 7.0438518,33.6122753 7.51525042,34.0755009 C7.98663,34.5387452 8.63474358,34.8268736 9.34792758,34.8268736 L13.9750517,34.8268736 C14.6882833,34.8268736 15.3363683,34.5387639 15.8077288,34.0755009 C16.2791084,33.6122565 16.57063,32.9753283 16.57063,32.2744527 L16.57063,27.7255473 C16.57063,27.0263097 16.2791322,26.3877247 15.8077288,25.9244991 C15.3363493,25.4612548 14.6865689,25.1747644 13.9750517,25.1747644 Z" id="Combined-Shape" fill="#5AAAD1" fill-rule="nonzero"></path>
            <path d="M50.6561679,4.0001404 C52.1270623,4.0001404 53.4643775,4.59155099 54.4312904,5.54177658 C55.3999178,6.49368696 56,7.80609713 56,9.25174667 L56,13.8006521 C56,15.2461613 55.3982034,16.5603966 54.4312904,17.512307 C53.4626631,18.4642174 52.1272051,19.0539432 50.6561679,19.0539432 L46.027377,19.0539432 C44.5564827,19.0539432 43.2191674,18.4641706 42.2505401,17.512307 C41.2819128,16.5604434 40.6818305,15.2479865 40.6818305,13.8006521 L40.6818305,9.25174667 C40.6818305,7.80623753 41.2819604,6.49200216 42.2505401,5.54177658 C43.2191674,4.5898662 44.5546254,4.0001404 46.027377,4.0001404 L50.6561679,4.0001404 Z M50.6561679,6.70264861 L46.027377,6.70264861 C45.3141454,6.70264861 44.6660604,6.9891156 44.1946999,7.45238333 C43.7233203,7.91562766 43.430132,8.55419386 43.430132,9.25343147 L43.430132,13.8023369 C43.430132,14.5032593 43.7233013,15.1401595 44.1946999,15.6033851 C44.6660795,16.0666294 45.314193,16.3547578 46.027377,16.3547578 L50.6561679,16.3547578 C51.3676851,16.3547578 52.0174845,16.0666481 52.4888451,15.6033851 C52.9602246,15.1401407 53.2517462,14.5032125 53.2517462,13.8023369 L53.2517462,9.25343147 C53.2517462,8.55419386 52.9602484,7.91560894 52.4888451,7.45238333 C52.0174655,6.989139 51.3676851,6.70264861 50.6561679,6.70264861 Z" id="Combined-Shape" fill="#785891" fill-rule="nonzero"></path>
            <path d="M32.316967,4.0001404 C33.7878614,4.0001404 35.1251766,4.59155099 36.0920896,5.54177658 C37.0607169,6.49368696 37.6607991,7.80609713 37.6607991,9.25174667 L37.6607991,13.8006521 C37.6607991,15.2461613 37.0590025,16.5603966 36.0920896,17.512307 C35.1234623,18.4642174 33.7880043,19.0539432 32.316967,19.0539432 L27.6881761,19.0539432 C26.2172818,19.0539432 24.8799665,18.4641706 23.9113392,17.512307 C22.9427119,16.5603966 22.3426297,15.2479865 22.3426297,13.8006521 L22.3426297,9.25174667 C22.3426297,7.80623753 22.9427595,6.49200216 23.9113392,5.54177658 C24.8799665,4.5898662 26.2154245,4.0001404 27.6881761,4.0001404 L32.316967,4.0001404 Z M32.316967,6.70264861 L27.6881761,6.70264861 C26.9749445,6.70264861 26.3268595,6.9891156 25.855499,7.45238333 C25.3841194,7.91562766 25.0909311,8.55419386 25.0909311,9.25343147 L25.0909311,13.8023369 C25.0909311,14.5032593 25.3841004,15.1401595 25.855499,15.6033851 C26.3268786,16.0666294 26.9749921,16.3547578 27.6881761,16.3547578 L32.316967,16.3547578 C33.0284842,16.3547578 33.6782836,16.0666481 34.1496442,15.6033851 C34.6210237,15.1401407 34.9125453,14.5032125 34.9125453,13.8023369 L34.9125453,9.25343147 C34.9125453,8.55419386 34.6210476,7.91560894 34.1496442,7.45238333 C33.6782646,6.989139 33.0284842,6.70264861 32.316967,6.70264861 Z" id="Combined-Shape" fill="#5AAAD1" fill-rule="nonzero"></path>
        </g>
    </g>
</svg>