<svg width="14" height="8" viewBox="0 0 14 8" fill="none" xmlns="http://www.w3.org/2000/svg">
<path d="M13.0669 1.9168L7.46693 7.53346C7.40026 7.60013 7.32804 7.64735 7.25026 7.67513C7.17248 7.70291 7.08915 7.7168 7.00026 7.7168C6.91137 7.7168 6.82804 7.70291 6.75026 7.67513C6.67248 7.64735 6.60026 7.60013 6.53359 7.53346L0.916927 1.9168C0.761371 1.76124 0.683593 1.5668 0.683593 1.33346C0.683593 1.10013 0.766927 0.90013 0.933593 0.733463C1.10026 0.566797 1.2947 0.483463 1.51693 0.483463C1.73915 0.483463 1.93359 0.566797 2.10026 0.733463L7.00026 5.63346L11.9003 0.733463C12.0558 0.577907 12.2475 0.50013 12.4753 0.50013C12.703 0.50013 12.9003 0.583463 13.0669 0.75013C13.2336 0.916796 13.3169 1.11124 13.3169 1.33346C13.3169 1.55569 13.2336 1.75013 13.0669 1.9168Z" fill="#562E76"/>
</svg>
