<svg width="20" height="20" viewBox="0 0 20 20" fill="none" xmlns="http://www.w3.org/2000/svg">
<path d="M10 19.1667C8.84723 19.1667 7.76389 18.948 6.75 18.5105C5.73612 18.073 4.85417 17.4758 4.10417 16.7188C3.35417 15.9619 2.76042 15.0765 2.32292 14.0626C1.88542 13.0487 1.66667 11.9723 1.66667 10.8334C1.66667 8.65286 2.38889 6.77786 3.83334 5.20841C5.27778 3.63897 7.05556 2.75008 9.16667 2.54175V5.04175C7.73612 5.23619 6.54514 5.87855 5.59376 6.96883C4.64237 8.05911 4.16667 9.3473 4.16667 10.8334C4.16667 12.4445 4.73612 13.8195 5.87501 14.9584C7.01389 16.0973 8.38889 16.6667 10 16.6667C10.9167 16.6667 11.7743 16.4723 12.5729 16.0834C13.3715 15.6945 14.0417 15.1667 14.5833 14.5001L16.75 15.7501C16 16.7917 15.0347 17.6216 13.8542 18.2397C12.6736 18.8577 11.3889 19.1667 10 19.1667ZM17.625 14.2084L15.4583 12.9584C15.5833 12.6251 15.6771 12.2813 15.7396 11.9272C15.8021 11.573 15.8333 11.2084 15.8333 10.8334C15.8333 9.3473 15.3576 8.05911 14.4063 6.96883C13.4549 5.87855 12.2639 5.23619 10.8333 5.04175V2.54175C12.9444 2.75008 14.7222 3.63897 16.1667 5.20841C17.6111 6.77786 18.3333 8.65286 18.3333 10.8334C18.3333 11.4445 18.2778 12.0348 18.1667 12.6042C18.0556 13.1737 17.875 13.7084 17.625 14.2084Z" fill="#232951"/>
</svg>
