<svg width="20" height="21" viewBox="0 0 20 21" fill="none" xmlns="http://www.w3.org/2000/svg">
<path d="M15.8333 12.9697V11.3031H4.16667V12.9697H15.8333ZM15.8333 9.63639V7.96973H4.16667V9.63639H15.8333ZM15.8333 6.30306V4.63639H4.16667V6.30306H15.8333ZM4.16667 17.9697C3.70833 17.9697 3.31597 17.8065 2.98958 17.4801C2.66319 17.1538 2.5 16.7614 2.5 16.3031V4.63639C2.5 4.17806 2.66319 3.7857 2.98958 3.45931C3.31597 3.13292 3.70833 2.96973 4.16667 2.96973H15.8333C16.2917 2.96973 16.684 3.13292 17.0104 3.45931C17.3368 3.7857 17.5 4.17806 17.5 4.63639V16.3031C17.5 16.7614 17.3368 17.1538 17.0104 17.4801C16.684 17.8065 16.2917 17.9697 15.8333 17.9697H4.16667ZM15.8333 16.3031V14.6364H4.16667V16.3031H15.8333Z" fill="#232951"/>
</svg>
