<?xml version="1.0" encoding="UTF-8"?><svg width="60px" height="60px" viewBox="0 0 60 60" version="1.1" xmlns="http://www.w3.org/2000/svg" xmlns:xlink="http://www.w3.org/1999/xlink">    <title>icon / admin 2</title>    <defs>        <path d="M56.8421053,28.4210526 C56.8421053,44.1175263 44.1173684,56.8421053 28.4210526,56.8421053 C12.7247368,56.8421053 0,44.1175263 0,28.4210526 C0,12.7245789 12.7247368,0 28.4210526,0 C44.1173684,0 56.8421053,12.7245789 56.8421053,28.4210526 Z" id="path-1"></path>    </defs>    <g id="symbols" stroke="none" stroke-width="1" fill="none" fill-rule="evenodd">        <g id="Group-2">            <path d="M56.8421053,28.4210526 C56.8421053,44.1175263 44.1173684,56.8421053 28.4210526,56.8421053 C12.7247368,56.8421053 0,44.1175263 0,28.4210526 C0,12.7245789 12.7247368,0 28.4210526,0 C44.1173684,0 56.8421053,12.7245789 56.8421053,28.4210526 Z M28.4210526,53.6842105 C42.3742105,53.6842105 53.6842105,42.3735789 53.6842105,28.4210526 C53.6842105,14.4685263 42.3742105,3.15789474 28.4210526,3.15789474 C14.4678947,3.15789474 3.15789474,14.4685263 3.15789474,28.4210526 C3.15789474,42.3735789 14.4678947,53.6842105 28.4210526,53.6842105 Z" id="Shape" fill="#785891"></path>            <g id="Clipped">                <mask id="mask-2" fill="white">                    <use xlink:href="#path-1"></use>                </mask>                <g id="Path"></g>                <g id="Group" mask="url(#mask-2)" fill="#785891">                    <g transform="translate(9.473684, 11.999384)" id="Shape">                        <path d="M18.9473684,22.1052474 C24.18,22.1052474 28.4210526,17.8637211 28.4210526,12.6315632 C28.4210526,7.39940526 24.18,3.15787895 18.9473684,3.15787895 C13.7147368,3.15787895 9.47368421,7.39940526 9.47368421,12.6315632 C9.47368421,17.8637211 13.7147368,22.1052474 18.9473684,22.1052474 Z M18.9473684,25.2631421 C25.9231579,25.2631421 31.5789474,19.6078263 31.5789474,12.6315632 C31.5789474,5.6553 25.9231579,0 18.9473684,0 C11.9715789,0 6.31578947,5.6553 6.31578947,12.6315632 C6.31578947,19.6078263 11.9715789,25.2631421 18.9473684,25.2631421 Z"></path>                        <path d="M18.9473684,60.6321947 C27.6678947,60.6321947 34.7368421,53.5629316 34.7368421,44.8427211 C34.7368421,36.1225105 27.6678947,29.0532474 18.9473684,29.0532474 C10.2268421,29.0532474 3.15789474,36.1225105 3.15789474,44.8427211 C3.15789474,53.5629316 10.2268421,60.6321947 18.9473684,60.6321947 Z M18.9473684,63.7900895 C29.4110526,63.7900895 37.8947368,55.3070368 37.8947368,44.8427211 C37.8947368,34.3784053 29.4110526,25.8953526 18.9473684,25.8953526 C8.48368421,25.8953526 0,34.3784053 0,44.8427211 C0,55.3070368 8.48368421,63.7900895 18.9473684,63.7900895 Z"></path>                    </g>                </g>            </g>            <path d="M60,47.3684211 C60,54.3446842 54.3442105,60 47.3684211,60 C40.3926316,60 34.7368421,54.3446842 34.7368421,47.3684211 C34.7368421,40.3921579 40.3926316,34.7368421 47.3684211,34.7368421 C54.3442105,34.7368421 60,40.3921579 60,47.3684211 Z" id="Path" fill="#3195C5" fill-rule="nonzero"></path>            <path d="M47.3684211,56.8421053 C52.6010526,56.8421053 56.8421053,52.6005789 56.8421053,47.3684211 C56.8421053,42.1362632 52.6010526,37.8947368 47.3684211,37.8947368 C42.1357895,37.8947368 37.8947368,42.1362632 37.8947368,47.3684211 C37.8947368,52.6005789 42.1357895,56.8421053 47.3684211,56.8421053 Z M47.3684211,60 C54.3442105,60 60,54.3446842 60,47.3684211 C60,40.3921579 54.3442105,34.7368421 47.3684211,34.7368421 C40.3926316,34.7368421 34.7368421,40.3921579 34.7368421,47.3684211 C34.7368421,54.3446842 40.3926316,60 47.3684211,60 Z" id="Shape" fill="#FFFFFF"></path>            <polygon id="Path" fill="#FFFFFF" points="45.7894737 48.2935263 43.7478947 46.2519474 41.5152632 48.4850526 45.7894737 52.7594211 53.6384211 44.9112632 51.4042105 42.6783158"></polygon>        </g>    </g></svg>