<?xml version="1.0" encoding="UTF-8"?>
<svg  viewBox="0 0 60 60" version="1.1" xmlns="http://www.w3.org/2000/svg" xmlns:xlink="http://www.w3.org/1999/xlink">
    <title>icon / graphic</title>
    <g id="icon-/-graphic" stroke="none" stroke-width="1" fill="none" fill-rule="evenodd">
        <polygon id="Path" fill="#4F5474" fill-rule="nonzero" points="2.67512733 57.1377311 60 57.1377311 60 60 0 59.9997905 0 0 2.67367454 0 2.67367454 57.1363956"></polygon>
        <polygon id="Path" fill="#4F5474" fill-rule="nonzero" points="7 32.6365311 12.310744 27.2565448 15.4682314 30.6094156 20.9468398 23.2024861 26.5056994 34.0095568 31.3456664 29.5160495 35.6232517 34.5428571 39.6478999 27.9169527 50.0064661 21.3556473 55.9949402 28.0384716 56 21.3754802 49.9863306 15 38.3737278 22.1221581 35.1076832 27.2340296 31.5657564 22.1359831 26.5164515 26.8235693 21.0948175 16.2839241 15.8712199 23.3463479 12.5956364 19.868265 7.00033179 25.4627202"></polygon>
        <polygon id="Path" fill="#C0D850" fill-rule="nonzero" points="7.00010369 53 56 53 56 31.886864 49.637946 24.7714286 41.2906988 29.9516659 36.6579766 37.5950449 35.9059985 38.835338 34.9841202 37.7488797 31.1756498 33.2638352 26.9013927 37.2410867 25.915899 38.1573019 25.2777235 36.9140726 20.6316249 27.8601574 16.3984819 33.5960884 15.6616947 34.5941723 14.8210077 33.6990864 12.2686165 30.9832572 7 36.3341407"></polygon>
    </g>
</svg>
