<?xml version="1.0" encoding="UTF-8"?>
<svg viewBox="0 0 60 60" version="1.1" xmlns="http://www.w3.org/2000/svg" xmlns:xlink="http://www.w3.org/1999/xlink">
    <title>icon / table</title>
    <g id="symbols" stroke="none" stroke-width="1" fill="none" fill-rule="evenodd">
        <g id="icon-/-table" fill-rule="nonzero">
            <polygon id="Path" fill="#C0D850" points="22.247191 -1.45661261e-12 37.752809 -1.45661261e-12 37.752809 12 22.247191 12"></polygon>
            <path d="M-2.13162821e-13,8 L-2.13162821e-13,12 L19.5505618,12 L19.5505618,-1.45661261e-12 L8.08988764,-1.45661261e-12 C3.64050562,-1.45661261e-12 -2.13162821e-13,3.60005556 -2.13162821e-13,8 Z" id="Path" fill="#562E76"></path>
            <path d="M19.5505618,14.6666667 L19.5505618,60 L8.08988764,60 C3.64050562,60 -2.13162821e-13,56.3999444 -2.13162821e-13,52 L-2.13162821e-13,14.6666667 L19.5505618,14.6666667 Z M15.505618,46 L8.08988764,46 C7.34837079,46 6.74157303,46.6000556 6.74157303,47.3333333 C6.74157303,48.0666111 7.34837079,48.6666667 8.08988764,48.6666667 L15.505618,48.6666667 C16.2471348,48.6666667 16.8539326,48.0666111 16.8539326,47.3333333 C16.8539326,46.6000556 16.2471348,46 15.505618,46 Z M15.505618,38 L8.08988764,38 C7.34837079,38 6.74157303,38.6000556 6.74157303,39.3333333 C6.74157303,40.0666111 7.34837079,40.6666667 8.08988764,40.6666667 L15.505618,40.6666667 C16.2471348,40.6666667 16.8539326,40.0666111 16.8539326,39.3333333 C16.8539326,38.6000556 16.2471348,38 15.505618,38 Z M15.505618,30 L8.08988764,30 C7.34837079,30 6.74157303,30.6000556 6.74157303,31.3333333 C6.74157303,32.0666111 7.34837079,32.6666667 8.08988764,32.6666667 L15.505618,32.6666667 C16.2471348,32.6666667 16.8539326,32.0666111 16.8539326,31.3333333 C16.8539326,30.6000556 16.2471348,30 15.505618,30 Z M15.505618,22 L8.08988764,22 C7.34837079,22 6.74157303,22.6000556 6.74157303,23.3333333 C6.74157303,24.0666111 7.34837079,24.6666667 8.08988764,24.6666667 L15.505618,24.6666667 C16.2471348,24.6666667 16.8539326,24.0666111 16.8539326,23.3333333 C16.8539326,22.6000556 16.2471348,22 15.505618,22 Z" id="Combined-Shape" fill="#562E76"></path>
            <path d="M51.9101124,-1.45661261e-12 L40.4494382,-1.45661261e-12 L40.4494382,12 L60,12 L60,8 C60,3.60005556 56.3594944,-1.45661261e-12 51.9101124,-1.45661261e-12 Z" id="Path" fill="#562E76"></path>
            <path d="M37.752809,14.6666667 L37.752809,60 L22.247191,60 L22.247191,14.6666667 L37.752809,14.6666667 Z M33.7078652,46 L26.2921348,46 C25.550618,46 24.9438202,46.6000556 24.9438202,47.3333333 C24.9438202,48.0666111 25.550618,48.6666667 26.2921348,48.6666667 L33.7078652,48.6666667 C34.449382,48.6666667 35.0561798,48.0666111 35.0561798,47.3333333 C35.0561798,46.6000556 34.449382,46 33.7078652,46 Z M33.7078652,38 L26.2921348,38 C25.550618,38 24.9438202,38.6000556 24.9438202,39.3333333 C24.9438202,40.0666111 25.550618,40.6666667 26.2921348,40.6666667 L33.7078652,40.6666667 C34.449382,40.6666667 35.0561798,40.0666111 35.0561798,39.3333333 C35.0561798,38.6000556 34.449382,38 33.7078652,38 Z M33.7078652,30 L26.2921348,30 C25.550618,30 24.9438202,30.6000556 24.9438202,31.3333333 C24.9438202,32.0666111 25.550618,32.6666667 26.2921348,32.6666667 L33.7078652,32.6666667 C34.449382,32.6666667 35.0561798,32.0666111 35.0561798,31.3333333 C35.0561798,30.6000556 34.449382,30 33.7078652,30 Z M33.7078652,22 L26.2921348,22 C25.550618,22 24.9438202,22.6000556 24.9438202,23.3333333 C24.9438202,24.0666111 25.550618,24.6666667 26.2921348,24.6666667 L33.7078652,24.6666667 C34.449382,24.6666667 35.0561798,24.0666111 35.0561798,23.3333333 C35.0561798,22.6000556 34.449382,22 33.7078652,22 Z" id="Combined-Shape" fill="#C0D850"></path>
            <path d="M60,14.6666667 L60,52 C60,56.3999444 56.3594944,60 51.9101124,60 L40.4494382,60 L40.4494382,14.6666667 L60,14.6666667 Z M51.9101124,46 L44.494382,46 C43.7528652,46 43.1460674,46.6000556 43.1460674,47.3333333 C43.1460674,48.0666111 43.7528652,48.6666667 44.494382,48.6666667 L51.9101124,48.6666667 C52.6516292,48.6666667 53.258427,48.0666111 53.258427,47.3333333 C53.258427,46.6000556 52.6516292,46 51.9101124,46 Z M51.9101124,38 L44.494382,38 C43.7528652,38 43.1460674,38.6000556 43.1460674,39.3333333 C43.1460674,40.0666111 43.7528652,40.6666667 44.494382,40.6666667 L51.9101124,40.6666667 C52.6516292,40.6666667 53.258427,40.0666111 53.258427,39.3333333 C53.258427,38.6000556 52.6516292,38 51.9101124,38 Z M51.9101124,30 L44.494382,30 C43.7528652,30 43.1460674,30.6000556 43.1460674,31.3333333 C43.1460674,32.0666111 43.7528652,32.6666667 44.494382,32.6666667 L51.9101124,32.6666667 C52.6516292,32.6666667 53.258427,32.0666111 53.258427,31.3333333 C53.258427,30.6000556 52.6516292,30 51.9101124,30 Z M51.9101124,22 L44.494382,22 C43.7528652,22 43.1460674,22.6000556 43.1460674,23.3333333 C43.1460674,24.0666111 43.7528652,24.6666667 44.494382,24.6666667 L51.9101124,24.6666667 C52.6516292,24.6666667 53.258427,24.0666111 53.258427,23.3333333 C53.258427,22.6000556 52.6516292,22 51.9101124,22 Z" id="Combined-Shape" fill="#562E76"></path>
        </g>
    </g>
</svg>
