<?xml version="1.0" encoding="UTF-8"?>
<svg width="24px" height="24px" viewBox="0 0 24 24" version="1.1" xmlns="http://www.w3.org/2000/svg" xmlns:xlink="http://www.w3.org/1999/xlink">
    <title>icon / menu</title>
    <g id="symbols" stroke="none" stroke-width="1" fill="none" fill-rule="evenodd">
        <g id="row-/-header-for-sectionwith-2-text-fields" transform="translate(-675.000000, -40.000000)" fill-rule="nonzero">
            <g id="icon-/-menu" transform="translate(675.000000, 40.000000)">
                <rect id="Rectangle" fill="#562E76" x="0" y="0" width="24" height="24" rx="12"></rect>
                <path d="M12,14.8599911 C11.8933445,14.8599911 11.793313,14.8432871 11.7000015,14.809975 C11.60669,14.7766629 11.5200024,14.7200228 11.4400348,14.6399586 L8.5600492,11.7599514 C8.41336193,11.613359 8.3400183,11.4266386 8.3400183,11.199982 C8.3400183,10.9733254 8.41336193,10.786701 8.5600492,10.6400126 C8.70664047,10.4933242 8.89671952,10.41662 9.12999835,10.409996 C9.36337318,10.403276 9.55335623,10.4733562 9.7000435,10.6199485 L11.200036,12.1199523 L11.200036,6.39997 C11.200036,6.17331343 11.2766436,5.98332896 11.4300508,5.83001658 C11.5833621,5.67660819 11.7733451,5.6 12,5.6 C12.2266549,5.6 12.4166379,5.67660819 12.5700451,5.83001658 C12.7233564,5.98332896 12.799964,6.17331343 12.799964,6.39997 L12.799964,12.1199523 L14.2999565,10.6199485 C14.4466438,10.4733562 14.6366268,10.403276 14.8700016,10.409996 C15.1032805,10.41662 15.2933595,10.4933242 15.4399508,10.6400126 C15.5866381,10.786701 15.6599817,10.9733254 15.6599817,11.199982 C15.6599817,11.4266386 15.5866381,11.613359 15.4399508,11.7599514 L12.5599652,14.6399586 C12.4799976,14.7200228 12.39331,14.7766629 12.2999985,14.809975 C12.206687,14.8432871 12.1066555,14.8599911 12,14.8599911 Z M7.200024,18.4 C6.7600582,18.4 6.38335608,18.2433276 6.07001365,17.9299828 C5.75667122,17.616638 5.6,17.2400291 5.6,16.799964 L5.6,15.200024 C5.6,14.9733674 5.67670362,14.783287 5.83001485,14.6299746 C5.98332608,14.4766622 6.17340513,14.399958 6.40006,14.399958 C6.62671487,14.399958 6.81669792,14.4766622 6.97000915,14.6299746 C7.12332038,14.783287 7.200024,14.9733674 7.200024,15.200024 L7.200024,16.799964 L16.799976,16.799964 L16.799976,15.200024 C16.799976,14.9733674 16.8766796,14.783287 17.0299909,14.6299746 C17.1833021,14.4766622 17.3732851,14.399958 17.59994,14.399958 C17.8265949,14.399958 18.0166739,14.4766622 18.1699852,14.6299746 C18.3232964,14.783287 18.4,14.9733674 18.4,15.200024 L18.4,16.799964 C18.4,17.2400291 18.2433288,17.616638 17.9299864,17.9299828 C17.6166439,18.2433276 17.2399418,18.4 16.799976,18.4 L7.200024,18.4 Z" id="Shape" fill="#FFFFFF"></path>
            </g>
        </g>
    </g>
</svg>