<?xml version="1.0" encoding="UTF-8"?>
<svg width="60px" height="60px" viewBox="0 0 60 60" version="1.1" xmlns="http://www.w3.org/2000/svg" xmlns:xlink="http://www.w3.org/1999/xlink">
    <title></title>
    <g id="icon-/-category-comm-for-manufacturers" stroke="none" stroke-width="1" fill="none" fill-rule="evenodd">
        <path d="M13.5490032,28.0645018 C13.5490032,26.4639071 12.2464673,25.1612114 10.6457347,25.1612114 C9.04515201,25.1612114 7.74246612,26.4637571 7.74246612,28.0645018 C7.74246612,29.6650964 9.04500201,30.9677921 10.6457347,30.9677921 C12.2464673,30.9677921 13.5490032,29.6652464 13.5490032,28.0645018 Z M10.6457347,29.0322485 C10.1115405,29.0322485 9.67799516,28.598655 9.67799516,28.0645018 C9.67799516,27.5303035 10.1115855,27.096755 10.6457347,27.096755 C11.1798839,27.096755 11.6134742,27.5303485 11.6134742,28.0645018 C11.6134742,28.5987 11.1798839,29.0322485 10.6457347,29.0322485 Z" id="Shape" fill="#5AAAD1" fill-rule="nonzero"></path>
        <path d="M22.2584089,30.9679921 C23.8589915,30.9679921 25.1616774,29.6654464 25.1616774,28.0647018 C25.1616774,26.4641071 23.8591415,25.1614114 22.2584089,25.1614114 C20.6578262,25.1614114 19.3551403,26.4639571 19.3551403,28.0647018 C19.3553356,29.6654964 20.6578762,30.9679921 22.2584089,30.9679921 L22.2584089,30.9679921 Z M22.2584089,27.096905 C22.7926031,27.096905 23.2261484,27.5304985 23.2261484,28.0646518 C23.2261484,28.59885 22.7925581,29.0323985 22.2584089,29.0323985 C21.7242597,29.0323985 21.2906694,28.598805 21.2906694,28.0646518 C21.2906694,27.5304535 21.7242597,27.096905 22.2584089,27.096905 Z" id="Shape" fill="#5AAAD1" fill-rule="nonzero"></path>
        <path d="M20.9974225,35.1599781 L21.5626664,32.9033356 L11.3412771,32.9033356 L11.906521,35.1601781 C12.4289654,37.2504211 14.2976951,38.7097663 16.4517718,38.7097663 C18.6060484,38.7097663 20.4747782,37.2503711 20.9972225,35.1599781 L20.9974225,35.1599781 Z M13.8245002,34.8386892 L19.0794433,34.8386892 C18.7243672,35.9863353 17.6646086,36.7742327 16.4521218,36.7742327 C15.2394349,36.7742327 14.1796964,35.9865353 13.8246002,34.8386892 L13.8245002,34.8386892 Z" id="Shape" fill="#5AAAD1" fill-rule="nonzero"></path>
        <path d="M35.8067621,48.386934 C34.2061794,48.386934 32.9034935,49.6894797 32.9034935,51.2902243 C32.9034935,52.890819 34.2060294,54.1935147 35.8067621,54.1935147 C37.4073448,54.1935147 38.7100306,52.890969 38.7100306,51.2902243 C38.7100306,49.6894797 37.4072948,48.386934 35.8067621,48.386934 Z M35.8067621,52.2578211 C35.2725679,52.2578211 34.8390226,51.8242276 34.8390226,51.2900743 C34.8390226,50.7558761 35.2726129,50.3223276 35.8067621,50.3223276 C36.3409113,50.3223276 36.7745016,50.7559211 36.7745016,51.2900743 C36.7745016,51.8244726 36.3409113,52.2578211 35.8067621,52.2578211 Z" id="Shape" fill="#5AAAD1" fill-rule="nonzero"></path>
        <path d="M43.5486782,48.386934 C41.9480956,48.386934 40.6454097,49.6894797 40.6454097,51.2902243 C40.6454097,52.890819 41.9479456,54.1935147 43.5486782,54.1935147 C45.1492609,54.1935147 46.4519468,52.890969 46.4519468,51.2902243 C46.4517515,49.6894297 45.1492109,48.386934 43.5486782,48.386934 Z M43.5486782,52.2578211 C43.014484,52.2578211 42.5809387,51.8242276 42.5809387,51.2900743 C42.5809387,50.7558761 43.014529,50.3223276 43.5486782,50.3223276 C44.0828274,50.3223276 44.5164177,50.7559211 44.5164177,51.2900743 C44.5164177,51.8244726 44.0828274,52.2578211 43.5486782,52.2578211 Z" id="Shape" fill="#5AAAD1" fill-rule="nonzero"></path>
        <path d="M48.3871258,51.2899243 C48.3871258,52.890519 49.6896617,54.1932147 51.2903944,54.1932147 C52.890977,54.1932147 54.1936629,52.890669 54.1936629,51.2899243 C54.1936629,49.6893297 52.891127,48.386634 51.2903944,48.386634 C49.6896117,48.3868294 48.3871258,49.6893797 48.3871258,51.2899243 Z M52.2579839,51.2899243 C52.2579839,51.8241226 51.8243936,52.2576711 51.2902444,52.2576711 C50.7560501,52.2576711 50.3225048,51.8240776 50.3225048,51.2899243 C50.3225048,50.7557261 50.7560951,50.3221776 51.2902444,50.3221776 C51.8246386,50.3223729 52.2579839,50.7557711 52.2579839,51.2899243 Z" id="Shape" fill="#5AAAD1" fill-rule="nonzero"></path>
        <polygon id="Path" fill="#5AAAD1" fill-rule="nonzero" points="42.5806887 3.8709824 44.5162177 3.8709824 44.5162177 5.80652594 42.5806887 5.80652594"></polygon>
        <polygon id="Path" fill="#5AAAD1" fill-rule="nonzero" points="50.3251048 3.8709824 52.2606338 3.8709824 52.2606338 5.80652594 50.3251048 5.80652594"></polygon>
        <path d="M60,0 L51.2900944,0 C49.7020116,0 48.3026267,0.779192703 47.4192363,1.96453875 C46.5366459,0.778992703 45.137211,0 43.5483782,0 L19.3541403,0 L19.3541403,1.93563885 L39.7034199,1.93563885 C39.0889765,2.74658614 38.7104806,3.74538282 38.7104806,4.83892917 C38.7104806,5.93247553 39.0887965,6.9311222 39.7034199,7.74221949 L26.9650579,7.74202419 C25.0238789,6.52267826 22.7360037,5.80648065 20.2791303,5.80648065 L17.3875616,5.80648065 C17.0672551,2.55199149 14.3149449,0 10.9771311,0 L10.3132883,0 C6.76077676,0 3.87085807,2.88964037 3.87085807,6.44197853 C3.87085807,7.30427565 4.03921624,8.14042287 4.36050276,8.91367029 C1.58903279,11.3146623 0,14.7306509 0,18.4306386 C0,19.789434 0.21874763,21.1325796 0.648442975,22.4235753 L1.65783204,25.4526652 C0.681292619,25.9208286 0,26.9108603 0,28.0643565 C0,29.6649511 1.30258589,30.9676468 2.90331855,30.9676468 L3.92050753,30.9676468 C4.30370838,35.9660801 7.6153675,40.1456162 12.1424185,41.8041107 L11.8308968,42.7388575 L8.72153052,43.5169549 C5.86551146,44.2292526 3.87098306,46.7841441 3.87098306,49.7269342 C3.87098306,53.2564225 6.74320195,56.1289129 10.2729137,56.1289129 L11.6131492,56.1289129 L11.6131492,58.0644565 C11.6131492,59.1318529 12.4810898,60 13.5486782,60 L19.3551153,60 C20.4225038,60 21.2906444,59.1320529 21.2906444,58.0644565 L53.2257984,58.0644565 C56.9603079,58.0644565 60,55.0248166 60,51.290479 C60,47.8850404 57.4700524,45.0659998 54.1932879,44.5940014 L54.1932879,37.0680264 L55.2180768,35.5313316 C55.8141703,34.6362345 56.1288169,33.595788 56.1288169,32.5225416 C56.1286216,29.5311516 53.6946433,27.0970597 50.7043757,27.0970597 L50.1440318,27.0970597 C49.8518449,26.2773124 49.2063419,25.6318146 48.3866508,25.3396655 L48.3866508,8.68522105 C49.197592,9.299669 50.1961812,9.67796774 51.2897194,9.67796774 L60,9.67796774 L60,7.74262419 L55.1358277,7.74262419 C55.750271,6.93167689 56.1287669,5.93288022 56.1287669,4.83933387 C56.1287669,3.74578751 55.750451,2.74714084 55.1358277,1.93604355 L60,1.9362389 L60,0 Z M52.2580839,44.5159469 L42.5806887,44.5159469 L42.5806887,36.7739727 L44.5162177,36.7739727 L44.5162177,38.7095163 C44.5162177,39.7769127 45.3841583,40.6450598 46.4517468,40.6450598 L48.3872758,40.6450598 C49.4546642,40.6450598 50.3228048,39.7771127 50.3228048,38.7095163 L50.3228048,36.7739727 L52.2583339,36.7739727 L52.2580839,44.5159469 Z M46.4516468,36.7739727 L48.3871758,36.7739727 L48.3871758,38.7095163 L46.4516468,38.7095163 L46.4516468,36.7739727 Z M42.5807887,34.8384292 C42.2421224,34.8384292 41.9284458,34.9333489 41.6516988,35.0870633 L41.2317833,34.4569654 C40.8485825,33.8811674 40.6462392,33.2124196 40.6462392,32.5214219 C40.6452631,30.5968283 42.2100727,29.0319835 44.1339019,29.0319835 L44.6942458,29.0319835 C44.9864326,29.8517308 45.6319357,30.4972286 46.4516268,30.7893777 L46.4516268,34.8383642 L42.5807887,34.8384292 Z M47.4193863,29.0319485 C46.8851921,29.0319485 46.4516468,28.598355 46.4516468,28.0642018 C46.4516468,27.5300035 46.8852371,27.096455 47.4193863,27.096455 C47.9535805,27.096455 48.3871258,27.5300485 48.3871258,28.0642018 C48.3871258,28.5984 47.9535355,29.0319485 47.4193863,29.0319485 Z M44.6942158,27.096405 L44.1338719,27.096405 C41.1436543,27.096405 38.7099306,29.5303969 38.7099306,32.5203869 C38.7099306,33.5936333 39.0243822,34.6348299 39.6206708,35.5291769 L40.6452597,37.0668717 L40.6452597,44.5158469 L38.7097306,44.5158469 L38.7097306,36.7738727 C38.7097306,35.7064763 37.84179,34.8383292 36.7742016,34.8383292 L28.061796,34.8383292 C28.5668905,33.6314832 28.8785871,32.3289375 28.983086,30.9674421 L30.000275,30.9674421 C31.6008577,30.9674421 32.9035435,29.6648964 32.9035435,28.0641518 C32.9035435,26.9106556 32.2223009,25.9206089 31.2457615,25.4522605 L32.2561006,22.4231706 C32.6848059,21.1323749 32.9035435,19.7889793 32.9035435,18.4304339 C32.9035435,15.0317952 31.5477082,11.9494555 29.355932,9.67696304 L43.5497782,9.67696304 C44.6421664,9.67696304 45.6407556,9.2986443 46.4516968,8.68516635 L46.4516968,25.3391108 C45.6321557,25.6312999 44.9866626,26.2768077 44.6943158,27.096355 L44.6942158,27.096405 Z M20.2979801,51.9528221 L21.2907194,51.7871977 L21.2907194,54.1930397 L20.4827281,54.1930397 C19.8604848,54.1930397 19.3553903,53.6879413 19.3553903,53.0656934 C19.3553903,52.5119953 19.751091,52.0426468 20.2979801,51.9527971 L20.2979801,51.9528221 Z M23.2262484,51.4639588 L24.3525862,51.2762644 L24.0352046,49.3668707 L21.2906844,49.8246792 L21.2906844,48.386584 C21.2906844,47.3191876 20.4227438,46.4510405 19.3551553,46.4510405 L18.0641693,46.4510405 L20.5338925,44.5977466 L23.7129581,45.392294 C25.7064865,45.8907323 27.0971214,47.6733364 27.0971214,49.7268295 C27.0971214,51.985622 25.4055398,53.8387158 23.2262634,54.1328649 L23.2262484,51.4639588 Z M25.1617774,43.8499841 C24.8483058,43.7154146 24.5221343,43.600375 24.182488,43.5161952 L21.0731217,42.7380978 L20.7616001,41.803351 C22.4182321,41.196303 23.9133159,40.2576561 25.1617774,39.0566601 L25.1617774,43.8499841 Z M27.0971064,36.7740077 L29.0326355,36.7740077 L29.0326355,38.7095513 C29.0326355,39.7769477 29.9005761,40.6450948 30.9681645,40.6450948 L32.9036935,40.6450948 C33.971082,40.6450948 34.8392226,39.7771477 34.8392226,38.7095513 L34.8392226,36.7740077 L36.7747516,36.7740077 L36.7747516,44.5159819 L27.0973564,44.5159819 L27.0971064,36.7740077 Z M30.9681645,36.7740077 L32.9036935,36.7740077 L32.9036935,38.7095513 L30.9681645,38.7095513 L30.9681645,36.7740077 Z M29.0326355,27.09654 L30.000375,27.09654 C30.5345692,27.09654 30.9681145,27.5301335 30.9681145,28.0642868 C30.9681145,28.598485 30.5345242,29.0320335 30.000375,29.0320335 L29.0326355,29.0320335 L29.0326355,27.09654 Z M40.6464878,4.83861417 C40.6464878,3.23801951 41.9490456,1.93532385 43.5497782,1.93532385 C45.1493609,1.93532385 46.4501468,3.23491952 46.4530468,4.83376419 C46.4518749,4.83571733 46.4518749,4.83669388 46.4518749,4.83864702 L46.4518749,4.84841249 C46.4469921,6.44410717 45.147389,7.74195284 43.5497563,7.74195284 C41.9489737,7.74195284 40.6464878,6.43920719 40.6464878,4.83866252 L40.6464878,4.83861417 Z M10.3138383,1.93552385 L10.9776811,1.93552385 C13.4628042,1.93552385 15.4842823,3.95701711 15.4842823,6.44215883 C15.4842823,7.64605481 15.0159273,8.77730104 14.1643966,9.6288482 L12.180618,11.6128416 L11.6134242,11.6128416 L11.6134242,9.49934864 C12.737062,9.09856997 13.5489532,8.03410352 13.5489532,6.77415772 C13.5489532,5.17356305 12.2464173,3.8708674 10.6456847,3.8708674 C9.04510201,3.8708674 7.74261612,5.17361305 7.74261612,6.77415772 C7.74261612,8.03410352 8.55450733,9.09874997 9.67814515,9.49934864 L9.67794986,11.6128416 L9.110956,11.6128416 L7.12717749,9.6290482 C6.27543672,8.77730104 5.80709179,7.64605481 5.80709179,6.44215883 C5.80709179,3.95701711 7.82876989,1.93552385 10.313893,1.93552385 L10.3138383,1.93552385 Z M9.67789516,13.5484851 L11.6134242,13.5484851 L11.6134242,14.5162319 C11.6134242,15.0504301 11.1798339,15.4839787 10.6456847,15.4839787 C10.1115355,15.4839787 9.67794516,15.0503851 9.67794516,14.5162319 L9.67789516,13.5484851 Z M9.67789516,6.77450772 C9.67789516,6.2403095 10.1114855,5.80676094 10.6456347,5.80676094 C11.1797839,5.80676094 11.6133742,6.2403545 11.6133742,6.77450772 C11.6133742,7.30866094 11.1797839,7.74225449 10.6456347,7.74225449 C10.1114855,7.74225449 9.67789516,7.30866094 9.67789516,6.77450772 Z M1.93597903,28.0644368 C1.93597903,27.5302385 2.36956933,27.09669 2.90371854,27.09669 L3.87145806,27.09669 L3.87145806,29.0322335 L2.90371854,29.0322335 C2.36932433,29.0322335 1.93597903,28.59864 1.93597903,28.0644868 L1.93597903,28.0644368 Z M3.89160784,25.1614164 L3.60137599,25.1614164 L2.48558807,21.8109576 C2.11977204,20.7183612 1.93599403,19.580315 1.93599403,18.4307189 C1.93599403,15.4074789 3.18638048,12.6037383 5.38300668,10.583245 C5.50292538,10.7254345 5.62597405,10.8648841 5.75936761,10.9975036 L7.74234612,12.981297 L7.74234612,14.5162419 C7.74234612,16.1168366 9.04488201,17.4195322 10.6456147,17.4195322 C12.2461973,17.4195322 13.5488832,16.1169866 13.5488832,14.5162419 L13.5488832,12.981497 L15.5326617,10.9977036 C16.4375519,10.0928067 17.0384954,8.96746041 17.2880927,7.74226449 L20.2792603,7.74226449 C26.1726965,7.74206919 30.9676445,12.5371485 30.9676445,18.4307289 C30.9676445,19.580325 30.7838565,20.7184212 30.4200004,21.8109676 L29.3032125,25.1614164 L29.0321205,25.1614164 L29.0321205,23.8113609 C29.0321205,22.5137153 28.3875775,21.3098193 27.3084892,20.5906717 L26.9649379,20.3613774 C27.050287,20.0400885 27.0965765,19.7023796 27.0965765,19.3549308 C27.0965765,17.2201879 25.3604453,15.4840437 23.2257184,15.4840437 L23.0845099,15.4840437 C21.6087259,15.4840437 20.2819903,16.304741 19.6220474,17.6236866 L19.4566192,17.9547405 L21.1878505,18.8209376 L21.3532787,18.4898837 C21.6831601,17.8297359 22.3470179,17.4193872 23.0845099,17.4193872 L23.2257184,17.4193872 C24.2931068,17.4193872 25.1612474,18.2873343 25.1612474,19.3549308 C25.1612474,20.4223272 24.2933068,21.2904743 23.2257184,21.2904743 C20.7270955,21.2904743 18.2242726,21.0156702 15.785799,20.4727271 L11.4155463,19.5029803 C10.9772711,19.4051306 10.524356,19.3549358 10.0704609,19.3549358 C6.7849465,19.3549358 4.09552563,21.9262272 3.89152784,25.1614164 L3.89160784,25.1614164 Z M5.80683709,29.9999803 L5.80683709,25.5540951 C5.80683709,23.203503 7.72011637,21.2902593 10.0706409,21.2902593 C10.3821625,21.2902593 10.6938841,21.3240482 10.9958309,21.391819 L15.3670835,22.3625158 C17.9422556,22.9355638 20.586027,23.2258129 23.2259984,23.2258129 C24.3146366,23.2258129 25.3007759,22.7738594 26.0042683,22.0471168 L26.2345408,22.2010213 C26.7747849,22.5609801 27.0968315,23.1639181 27.0968315,23.8113659 L27.0968315,29.9998453 C27.0968315,35.8693257 22.3210832,40.6448098 16.4519468,40.6448098 C10.5828104,40.6448098 5.80706209,35.8690257 5.80706209,29.9998453 L5.80683709,29.9999803 Z M16.4517218,42.5804384 C17.2898127,42.5804384 18.1066038,42.4943037 18.8991453,42.3374692 L19.1837122,43.1929163 L16.4516918,45.2417595 L13.7196714,43.1931163 L14.0042383,42.3376692 C14.7968297,42.4943087 15.6136209,42.5804434 16.4516618,42.5804434 L16.4517218,42.5804384 Z M5.80680209,49.7269145 C5.80680209,47.6734214 7.19842202,45.8907773 9.19000044,45.392379 L12.369066,44.5978316 L14.8395392,46.4511255 L13.5487532,46.4511255 C12.4813648,46.4511255 11.6132242,47.3190726 11.6132242,48.386669 L11.6132242,49.8247642 L8.86870392,49.3669557 L8.55132236,51.2763494 L9.67766016,51.4640438 L9.67766016,54.1329849 C7.49838377,53.8380658 5.80680209,51.985742 5.80680209,49.7269495 L5.80680209,49.7269145 Z M12.4212654,54.1930997 L11.6132742,54.1930997 L11.6132742,51.7872577 L12.6062134,51.9526871 C13.1529075,52.0427268 13.5488032,52.5120853 13.5488032,53.0657834 C13.5488032,53.6880313 13.0435587,54.1931297 12.4212654,54.1931297 L12.4212654,54.1930997 Z M13.5488032,58.0639868 L13.5488032,55.9069439 C14.680041,55.4559704 15.4843323,54.3555991 15.4843323,53.0657534 C15.4843323,51.7835077 14.6985908,50.6765114 13.5488032,50.2235629 L13.5488032,48.386669 L19.3552403,48.386669 L19.3552403,50.2233629 C18.2056528,50.6772664 17.4197113,51.7833077 17.4197113,53.0655534 C17.4197113,54.3555991 18.2238026,55.4567454 19.3552403,55.9067439 L19.3552403,58.0639868 L13.5488032,58.0639868 Z M58.064421,51.2900093 C58.064421,53.9579504 55.8936445,56.1286432 53.2257234,56.1286432 L22.6310548,56.1288385 C26.1603166,56.1288385 29.0324855,53.2565981 29.0324855,49.7268598 C29.0324855,48.5366138 28.6938192,47.4188675 28.1160954,46.4510708 L53.2258234,46.4510708 C55.8939445,46.4510708 58.064421,48.6217635 58.064421,51.2897046 L58.064421,51.2900093 Z M54.1934629,32.5205719 C54.1934629,33.2115696 53.9901451,33.8803174 53.6079192,34.4561154 L53.1880038,35.0862133 C52.9102718,34.9332839 52.5966102,34.8383642 52.2579139,34.8383642 L48.3870558,34.8383642 L48.3870558,30.7893777 C49.2067969,30.4971886 49.8522899,29.8516808 50.1444368,29.0319835 L50.7047807,29.0319835 C52.6286099,29.0319835 54.1933929,30.5968283 54.1933929,32.5206219 L54.1934629,32.5205719 Z M54.1934629,4.83866417 C54.1934629,6.43925884 52.890927,7.74195449 51.2901944,7.74195449 C49.6906117,7.74195449 48.3898258,6.44235883 48.3869258,4.84351415 L48.3869258,4.83863137 L48.3869258,4.83374854 C48.3900508,3.23510387 49.6906117,1.9355082 51.2901944,1.9355082 C52.890977,1.9355082 54.1934629,3.23805386 54.1934629,4.83859852 L54.1934629,4.83866417 Z" id="Shape" fill="#785891" fill-rule="nonzero"></path>
    </g>
</svg>