<?xml version="1.0" encoding="UTF-8"?>
<svg width="60px" height="60px" viewBox="0 0 60 60" version="1.1" xmlns="http://www.w3.org/2000/svg" xmlns:xlink="http://www.w3.org/1999/xlink">
    <title></title>
    <g id="icon-/-category-comm-for-KOLS" stroke="none" stroke-width="1" fill="none" fill-rule="evenodd">
        <g id="Group" transform="translate(0.000000, 4.000000)" fill-rule="nonzero" stroke-width="0.5">
            <path d="M13.9169169,18.0110325 C13.9169169,18.6276926 13.663661,19.1277772 13.3510745,19.1277772 C13.0384881,19.1277772 12.7852321,18.6276926 12.7852321,18.0110325 C12.7852321,17.3943724 13.0384881,16.8942878 13.3510745,16.8942878 C13.663661,16.8942878 13.9169169,17.3943724 13.9169169,18.0110325" id="Path" stroke="#5AAAD1" fill="#5AAAD1"></path>
            <path d="M23.1484469,18.0110325 C23.1484469,18.6276926 22.895191,19.1277772 22.5826045,19.1277772 C22.2700181,19.1277772 22.0167622,18.6276926 22.0167622,18.0110325 C22.0167622,17.3943724 22.2700181,16.8942878 22.5826045,16.8942878 C22.895191,16.8942878 23.1484469,17.3943724 23.1484469,18.0110325" id="Path" stroke="#5AAAD1" fill="#5AAAD1"></path>
            <path d="M22.7465731,24.3087303 C17.5217102,22.7228097 13.3299498,24.2543704 13.1544129,24.3205482 C13.0078421,24.375498 12.8907454,24.489149 12.8314099,24.6343087 C12.7720744,24.7794683 12.7760026,24.9429463 12.8420196,25.0851512 C12.8974269,25.2033301 14.2424921,28.0159253 17.9677972,28.0159253 C21.6931023,28.0159253 23.0367391,25.20571 23.0935748,25.0851512 C23.1615564,24.9370368 23.1625372,24.7668629 23.0961289,24.6181585 C23.0297217,24.4692576 22.9024046,24.3565948 22.7469966,24.3087343 L22.7465731,24.3087303 Z M17.9675437,26.8897276 C15.9081289,26.8897276 14.7575827,25.8509352 14.2270992,25.1749789 C16.6814468,24.5728908 19.2450398,24.5768237 21.6972247,25.1867968 C21.1584924,25.8639632 20.0126741,26.8896963 17.9673928,26.8896963 L17.9675437,26.8897276 Z" id="Shape" stroke="#5AAAD1" fill="#5AAAD1"></path>
            <path d="M48.6017981,10.0755753 C42.3161693,10.0755753 37.202463,14.5344411 37.202463,20.0153038 C37.2020701,21.3186096 37.491279,22.6055283 38.0488627,23.7827793 L35.0180599,27.7298576 C34.8813122,27.9083058 34.8636327,28.1513546 34.9730676,28.3479295 C35.0825041,28.5444943 35.2980322,28.6569604 35.5214066,28.6339176 L41.7879225,27.9862984 C43.8204284,29.2905622 46.1873597,29.974233 48.6006649,29.953913 C54.8862937,29.953913 60,25.4951026 60,20.0152484 C60,14.5353941 54.8872996,10.0755753 48.6016709,10.0755753 L48.6017981,10.0755753 Z M48.6017981,28.828047 C46.2712316,28.828047 44.072695,28.1745285 42.2452504,26.937225 C42.1525126,26.8747875 42.0432774,26.841504 41.9316782,26.841504 L41.873917,26.841504 L36.7058898,27.3756738 L39.1531456,24.1849243 C39.2867447,24.0112057 39.3073766,23.7754429 39.2061939,23.581021 C38.6289341,22.4790499 38.3271515,21.2531418 38.3267994,20.0085271 C38.3267994,15.1491146 42.9360761,11.1962882 48.6014913,11.1962882 C54.2669065,11.1962882 58.8812129,15.1563753 58.8812129,20.0155862 C58.8812129,24.874797 54.2672586,28.8278251 48.6014913,28.8278251 L48.6017981,28.828047 Z" id="Shape" stroke="#5AAAD1" fill="#5AAAD1"></path>
            <path d="M54.8718348,17.7392584 L42.3277377,17.7392584 C42.0275243,17.7530457 41.7911682,18.0010187 41.7911682,18.3023704 C41.7911682,18.603722 42.0275243,18.8517172 42.3277377,18.8654824 L54.8718348,18.8654824 C55.1720481,18.851695 55.4084043,18.603722 55.4084043,18.3023704 C55.4084043,18.0010187 55.1720481,17.7530235 54.8718348,17.7392584 Z" id="Path" stroke="#785891" fill="#785891"></path>
            <path d="M49.2209554,21.5728369 L42.3292466,21.5728369 C42.0290332,21.5866243 41.7926771,21.8345973 41.7926771,22.1359489 C41.7926771,22.4373006 42.0290332,22.6852958 42.3292466,22.6990609 L49.2209554,22.6990609 C49.5211688,22.6852736 49.7575249,22.4373006 49.7575249,22.1359489 C49.7575249,21.8345973 49.5211688,21.5866021 49.2209554,21.5728369 Z" id="Path" stroke="#5AAAD1" fill="#5AAAD1"></path>
            <path d="M35.5461795,29.3998316 C34.2577186,28.9814859 32.8442695,28.1388802 32.9468253,27.6661747 L32.9939788,27.4759126 C34.1009174,23.0454898 36.1143607,12.0170562 30.8944772,5.30942817 C28.1513236,1.78538976 23.8216988,0 18.0249578,0 L17.8988228,0 C12.1025848,0 7.77250733,1.78564187 5.03081233,5.30942817 C-0.185500067,12.0205857 1.82552894,23.0488681 2.93483151,27.4794422 L2.98198505,27.6697042 C3.09161764,28.1424097 1.70177292,28.9696318 0.388565901,29.3997811 C0.184430085,29.4661566 0.0358977142,29.6434199 0.00563897796,29.8563365 C-0.0246177464,30.0692531 0.0685103548,30.2809849 0.245923321,30.4019017 C6.35802709,34.5475415 12.034558,30.6831602 12.9514741,29.9989196 C13.4650578,30.2868742 14.0022309,30.5303162 14.5570582,30.7269113 L14.4391719,31.9087003 C14.4148089,32.1594333 14.3193239,32.3981458 14.1641071,32.596304 C14.0088952,32.7946436 13.8004339,32.9443312 13.5633082,33.027845 L6.46689014,35.1656336 C5.43051836,35.4805739 4.51631825,36.1082714 3.84927809,36.9634776 C3.18203674,37.8186837 2.79459817,38.8592409 2.73942225,39.9435139 L2.6215359,42.2881332 L2.6215359,51.4573593 C2.63528914,51.7583177 2.88264827,51.9952603 3.18325393,51.9952603 C3.48385959,51.9952603 3.73124085,51.7583177 3.74497196,51.4573593 L3.74497196,42.8740359 L7.53138805,44.1739634 L7.53138805,51.4523675 C7.54514129,51.7533259 7.79250043,51.9902686 8.09310608,51.9902686 C8.39371174,51.9902686 8.641093,51.7533259 8.65482411,51.4523675 L8.65482411,43.7710922 C8.65443114,43.5306049 8.50196619,43.316705 8.27523692,43.2381325 L3.77797189,41.6935579 L3.86167129,39.9989276 C3.90509177,39.1466963 4.2098228,38.3289032 4.7344266,37.6568798 C5.2590304,36.9848565 5.97772065,36.4916797 6.79228221,36.244461 L11.6373014,34.7814186 C12.165421,35.8213707 13.8134558,38.2380933 17.7675121,38.3657112 C17.7930535,38.3674838 17.8185939,38.3674838 17.8441347,38.3657112 L18.094051,38.3657112 C18.1195923,38.3674838 18.1451327,38.3674838 18.1706736,38.3657112 C22.1221145,38.2380832 23.7702499,35.8225304 24.3008843,34.7814186 L29.1471106,36.244461 C29.961471,36.4920427 30.6800154,36.9854111 31.2043627,37.6572832 C31.7287603,38.3293065 32.0338625,39.146898 32.0776712,39.9989276 L32.1613707,41.6935579 L27.6617417,43.2428722 C27.4350124,43.3214598 27.2825468,43.5353597 27.2821545,43.7758319 L27.2821545,51.4571072 C27.2959077,51.7580655 27.5432668,51.9950082 27.8438725,51.9950082 C28.1444781,51.9950082 28.3918594,51.7580655 28.4055905,51.4571072 L28.4055905,44.178703 L32.1908498,42.8787755 L32.1908498,51.462099 C32.204603,51.7630573 32.4519622,52 32.7525678,52 C33.0531735,52 33.3005547,51.7630573 33.3142858,51.462099 L33.3142858,42.261107 L33.1963995,39.9436651 C33.1415857,38.8593922 32.7541371,37.8184821 32.0868957,36.9632759 C31.4196544,36.1080697 30.5055046,35.4803672 29.4688813,35.1658353 L22.3961029,33.0292064 C22.155225,32.9472708 21.9428405,32.7977799 21.7844901,32.5982553 C21.6261347,32.3987358 21.5282868,32.1578501 21.5025497,31.9041472 L21.3846634,30.7223582 C21.9392895,30.5261867 22.4760602,30.2827396 22.9890403,29.9943665 C23.5926056,30.445799 26.2780181,32.2881605 29.7957471,32.2881605 C31.5993508,32.2881605 33.62225,31.8024562 35.6900644,30.3973385 C35.868267,30.2767999 35.9621818,30.0648664 35.931923,29.8515716 C35.9014697,29.6380651 35.7521511,29.4609984 35.5474268,29.3952129 L35.5461795,29.3998316 Z M22.0474434,34.102079 L23.1956256,34.4495163 C22.6757548,35.3594807 21.2199052,37.1959478 17.96523,37.2420335 C14.6904361,37.1947629 13.2498768,35.3642203 12.7348345,34.4495163 L13.9042421,34.0949897 C14.3492557,33.9435273 14.7415882,33.6667966 15.0341664,33.2980712 C15.3267145,32.9293609 15.5074722,32.4838581 15.5546409,32.0150855 L15.6501249,31.0448669 C17.1733726,31.3962472 18.7561721,31.3962472 20.2794198,31.0448669 L20.3760858,32.0150855 C20.4244183,32.4873977 20.6079253,32.9356889 20.9046077,33.3059875 C21.201084,33.676276 21.5981545,33.9525982 22.04771,34.1020992 L22.0474434,34.102079 Z M17.9674934,30.1833378 C15.5365339,30.1805804 13.2059674,29.2111527 11.4872148,27.4879332 C9.76826111,25.7649154 8.80124904,23.4285653 8.79848269,20.991573 C8.79789331,20.6805706 8.54640871,20.428461 8.2361611,20.427856 C7.61257764,20.4420371 7.00956569,20.2035188 6.56378248,19.7664717 C6.11778802,19.3292178 5.86631257,18.7304525 5.86631257,18.1051198 C5.86631257,17.4797872 6.11779808,16.8810269 6.56378248,16.443768 C7.00958078,16.0067108 7.61257764,15.7682151 8.2361611,15.7823836 C8.49256063,15.7829745 8.71673482,15.6092549 8.78077812,15.3604934 C8.78077812,15.3474941 9.1862985,14.0605658 11.7656093,13.7497651 C12.2737106,13.687131 12.902022,13.6422253 13.6305252,13.59141 C16.8133761,13.3668762 21.4391502,13.0395421 23.7130822,10.6015415 C24.237681,12.4746149 25.4742855,15.7672672 27.6952043,15.7823937 C28.3187878,15.7682126 28.9217997,16.0067309 29.3675829,16.4437781 C29.8135774,16.8810319 30.0650528,17.4797972 30.0650528,18.1051299 C30.0650528,18.7304625 29.8135673,19.3292228 29.3675829,19.7664817 C28.9217846,20.2035389 28.3187878,20.4420346 27.6952043,20.4278661 C27.385168,20.428457 27.1340899,20.6807622 27.1340899,20.9915831 C27.1313392,23.428172 26.1647138,25.7641187 24.4463133,27.4869349 C22.727762,29.2101544 20.3980002,30.1797679 17.9675437,30.1833378 L17.9674934,30.1833378 Z M23.9986188,29.3478466 C25.2456349,28.4430252 26.2743615,27.2693038 27.0087998,25.913055 C27.743238,24.5569574 28.1648284,23.0527707 28.2424368,21.5115743 C29.3898143,21.3240653 30.3653265,20.5687348 30.835705,19.5029667 C31.3062596,18.4371986 31.2080193,17.2054415 30.574985,16.2281134 C29.9417445,15.2507853 28.8592,14.6598909 27.6966328,14.6573698 C25.9896497,14.6455519 24.799067,10.5932622 24.5137819,9.17499441 C24.4682001,8.94100645 24.280177,8.76137836 24.0449978,8.72651665 C23.8096225,8.69165443 23.5781803,8.80943549 23.4669835,9.02018399 C21.9463009,11.8753252 16.8891286,12.2322116 13.5423594,12.4685895 C12.7985156,12.5217695 12.1560707,12.5666753 11.6196521,12.6328541 C9.14407911,12.9353856 8.20100846,14.0627693 7.85682539,14.6761015 C6.74359964,14.7980217 5.75908418,15.4550698 5.21758558,16.4377426 C4.6758858,17.4203649 4.64505368,18.6056834 5.13467584,19.6153319 C5.62448411,20.6249301 6.57342443,21.3328034 7.67880383,21.5126584 C7.75660842,23.0538548 8.17843512,24.5578902 8.91284321,25.9139373 C9.64728149,27.2701861 10.6758069,28.4439076 11.9226218,29.3489306 C10.6070508,30.2517855 6.47745756,32.5751268 1.80837763,30.046165 C2.91531624,29.5391725 4.3475765,28.6280485 4.06465531,27.4143928 L4.01278893,27.2075823 C2.95891377,22.9390642 1.00084761,12.3230315 5.92251958,6.00667761 C8.44049308,2.76984246 12.4722081,1.12951656 17.9042951,1.12951656 L18.0304302,1.12951656 C23.4625171,1.12951656 27.4943328,2.76979203 30.0132116,6.00667761 C34.9289485,12.3230315 32.9768174,22.9368457 31.9088088,27.2065739 L31.8581194,27.4133844 C31.5740212,28.6317797 33.0075087,29.5405844 34.1132402,30.0451565 C29.4462225,32.5741183 25.3157742,30.2507821 23.9989961,29.3479222 L23.9986188,29.3478466 Z" id="Shape" stroke="#785891" fill="#785891"></path>
        </g>
        <path d="M54.8718348,21.5728369 L51.9412239,21.5728369 C51.7877775,21.5657466 51.6380681,21.6218803 51.5270574,21.7282373 C51.4160467,21.8345943 51.3531803,21.9819201 51.3531803,22.1359439 C51.3531803,22.2899677 51.4160517,22.4372955 51.5270574,22.5436505 C51.6380631,22.6500055 51.7877775,22.7061452 51.9412239,22.6990509 L54.8718348,22.6990509 C55.1720481,22.6852635 55.4084043,22.4372905 55.4084043,22.1359389 C55.4084043,21.8345872 55.1720481,21.586592 54.8718348,21.5728269 L54.8718348,21.5728369 Z" id="Path" stroke="#785891" stroke-width="0.5" fill="#785891" fill-rule="nonzero"></path>
    </g>
</svg>