<?xml version="1.0" encoding="UTF-8"?>
<svg width="60px" height="60px" viewBox="0 0 60 60" version="1.1" xmlns="http://www.w3.org/2000/svg" xmlns:xlink="http://www.w3.org/1999/xlink">
    <title></title>
    <g id="icon-/-category-demographics" stroke="none" stroke-width="1" fill="none" fill-rule="evenodd">
        <path d="M19.6342345,10.579622 C19.6342345,8.49435182 17.9550657,6.73465053 15.8236371,6.73465053 C13.6922086,6.73465053 12.0130398,8.4289665 12.0130398,10.579622 C12.0130398,12.6648922 13.6922086,14.4245935 15.8236371,14.4245935 C17.9550657,14.4245935 19.6342345,12.7302775 19.6342345,10.579622 Z M13.9507119,10.579622 C13.9507119,9.53698692 14.7904309,8.68969316 15.8237448,8.68969316 C16.8570587,8.68969316 17.6967776,9.53698692 17.6967776,10.579622 C17.6967776,11.6222571 16.8570587,12.4695509 15.8237448,12.4695509 C14.7904309,12.4695509 13.9507119,11.6222571 13.9507119,10.579622 Z" id="Shape" fill="#5AAAD1" fill-rule="nonzero"></path>
        <path d="M42.6266665,21.6581969 C42.6266665,23.7434671 44.3058352,25.5031684 46.4372638,25.5031684 C48.5686924,25.5031684 50.2478611,23.8088524 50.2478611,21.6581969 C50.2478611,19.5075414 48.5686924,17.8132255 46.4372638,17.8132255 C44.3058352,17.8132255 42.6266665,19.5728724 42.6266665,21.6581969 L42.6266665,21.6581969 Z M48.310189,21.6581969 C48.310189,22.700832 47.4704701,23.5481258 46.4371562,23.5481258 C45.4038423,23.5481258 44.5641233,22.700832 44.5641233,21.6581969 C44.5641233,20.6155618 45.4038423,19.7682681 46.4371562,19.7682681 C47.4704701,19.7682681 48.310189,20.6155618 48.310189,21.6581969 Z" id="Shape" fill="#5AAAD1" fill-rule="nonzero"></path>
        <path d="M54.6395664,11.8829838 C55.3499529,11.8829838 56.0603393,11.7527345 56.7061942,11.426894 C58.7082903,10.5796003 60,8.62455766 60,6.4090599 C60,3.41138217 57.6104448,1 54.6392973,1 C51.6684188,1 49.2785945,3.41111063 49.2785945,6.4090599 C49.2785945,8.23387497 50.1828451,9.92819095 51.7329505,10.9057123 L49.6663227,15.141638 C48.6975404,14.8157975 47.5996949,14.6855482 46.5015802,14.6855482 C42.5619195,14.6855482 39.1388351,16.9013175 37.2658561,20.0946081 L26.286324,16.1194091 C26.4154088,15.532842 26.4154088,14.8811611 26.4154088,14.294594 C26.4154088,8.42946613 21.6360292,3.60702763 15.8233896,3.60702763 C10.0107499,3.60702763 5.23137032,8.42952043 5.23137032,14.294594 C5.23137032,17.6181122 6.78147574,20.7462347 9.3003634,22.7012774 L6.91080817,26.8720893 C6.39403819,26.74184 5.87749426,26.6113735 5.36070275,26.6113735 C2.38982434,26.6113735 0,29.0224841 0,32.0204334 C0,34.2362027 1.29170966,36.1912453 3.35833748,37.0382675 C4.00419232,37.2989833 4.71457881,37.4292326 5.4249653,37.4292326 C6.1353518,37.4292326 6.84573829,37.2989833 7.49159312,36.9731429 C9.49368928,36.1258491 10.7853989,34.1708065 10.7853989,31.9553087 C10.7853989,30.195879 9.94568002,28.6317906 8.65397036,27.6542692 L10.9789939,23.6790702 C11.2373789,23.8093195 11.5603171,23.939786 11.8187129,24.0700353 C13.1104225,24.5914669 14.4666638,24.8519437 15.8877059,24.8519437 C16.4044759,24.8519437 16.9210198,24.7868191 17.3732797,24.7216944 L20.2796264,38.0811524 C15.8877059,39.3845142 12.7231249,43.4902123 12.7231249,48.3125422 C12.7231249,52.6786955 15.3065442,56.5237213 19.3108442,58.2180916 C20.6025539,58.7395232 21.9587952,59 23.3798373,59 C24.8006103,59 26.2216524,58.7392842 27.513362,58.1527062 C31.1300953,56.5886178 33.519812,53.1999859 33.9073249,49.3550144 L40.3012877,49.876446 L40.3658301,49.876446 L40.5596727,49.876446 C40.7535152,51.8966024 41.9804457,53.6563037 43.8534785,54.4382121 C44.4993333,54.6989279 45.2097198,54.8291772 45.9201063,54.8291772 C46.6304928,54.8291772 47.3408793,54.6989279 47.9867341,54.3730875 C49.9888303,53.5257937 51.28054,51.5707511 51.28054,49.3552533 C51.28054,46.3575756 48.8909847,43.9461934 45.9198372,43.9461934 C43.4009496,43.9461934 41.3343217,45.6405094 40.6884669,47.9865063 C40.6239245,47.9865063 40.559382,47.9213816 40.4300819,47.9213816 L33.8423626,47.39995 C33.6485201,44.9234541 32.6151846,42.7730701 31.0650792,41.0134774 L39.2028501,32.8674665 C40.1071007,33.779874 41.2049462,34.4966687 42.4321242,35.018122 C43.7238339,35.5395536 45.0800752,35.8000304 46.5011173,35.8000304 C47.9218903,35.8000304 49.3429324,35.5393146 50.6346421,34.9527367 C54.5743027,33.2584207 57.0931904,29.4134492 57.0931904,25.1123554 C57.0931904,21.0066573 54.7681668,17.4876891 51.4742534,15.6629827 L53.5408812,11.4921707 C53.7998959,11.8180112 54.1873819,11.8831358 54.6393726,11.8831358 L54.6395664,11.8829838 Z M6.65255235,35.3434954 C5.81283342,35.7344605 4.84405117,35.7344605 4.00460136,35.3434954 C2.71289169,34.8220638 1.87317277,33.5186803 1.87317277,32.1502048 C1.87317277,30.2602759 3.42327819,28.6961875 5.29631102,28.6961875 C7.16934385,28.6961875 8.71944927,30.2602759 8.71944927,32.1502048 C8.7837818,33.5186803 7.94431583,34.7569283 6.65260617,35.3434954 L6.65255235,35.3434954 Z M45.7913552,46.1613979 C47.664388,46.1613979 49.2144934,47.7254864 49.2144934,49.6154152 C49.2144934,50.9838907 48.3747745,52.2872525 47.0830648,52.8087058 C46.2433459,53.1996709 45.2745637,53.1996709 44.4351138,52.8087058 C43.1434042,52.2872742 42.3036852,50.9838907 42.3036852,49.6154152 C42.3682277,47.7254864 43.8537907,46.1613979 45.7913552,46.1613979 L45.7913552,46.1613979 Z M10.8506088,14.9458839 C10.5922238,14.9458839 10.3338388,15.141475 10.2047539,15.336849 C10.0109114,15.5324401 9.94636893,15.7931505 9.94636893,16.0538609 L10.8506195,21.4629208 C8.52559594,19.8337186 7.16935462,17.2269951 7.16935462,14.2944311 C7.16935462,9.4719383 11.0444836,5.56190734 15.8238094,5.56190734 C20.6031351,5.56190734 24.4782641,9.47199261 24.4782641,14.2944311 C24.4782641,17.1618813 23.1220228,19.7685505 20.8615309,21.3977527 L21.7012498,15.9886928 C21.7657922,15.727977 21.7012498,15.4672612 21.5074072,15.2067843 C21.3135647,15.0111932 21.1199374,14.8809439 20.8615524,14.8158193 L16.0176412,14.2943877 L15.8237986,14.2943877 L10.8506088,14.9458839 Z M12.9818221,22.6357183 L12.0130398,16.8357584 L15.8881688,16.4447934 L19.6342345,16.8357584 L18.7299839,22.6357183 C16.856951,23.2222854 14.8548549,23.2222854 12.9818759,22.6357183 L12.9818221,22.6357183 Z M19.1820284,24.4605333 C19.4404134,24.3954087 19.6987984,24.2649422 19.9569466,24.1998175 C22.73423,23.0266833 24.7363262,20.8111856 25.7696401,18.0740173 L36.4262448,21.9189888 C36.038775,23.0267376 35.8449216,24.1998718 35.8449216,25.373006 C35.8449216,27.7190029 36.5553081,29.8696584 37.8470178,31.6291425 L29.5154905,39.9706577 C27.7717901,38.6672959 25.5758298,37.8200022 23.1861131,37.8200022 C22.7986433,37.8200022 22.411195,37.8200022 22.0882675,37.8851268 L19.1820284,24.4605333 Z M20.4089912,56.849073 L19.4402089,50.9839451 L23.3153379,50.59298 L27.0614036,50.9839451 L26.0926213,56.7839049 C24.2841202,57.4355857 22.282024,57.4355857 20.4090988,56.8490295 L20.4089912,56.849073 Z M28.2238346,55.6759388 L29.0635536,50.2668789 C29.128096,50.0061631 29.0635536,49.7454473 28.869711,49.4849704 C28.6758684,49.2893793 28.4822411,49.15913 28.2238562,49.0940053 L23.3799449,48.5725737 L23.1861024,48.5725737 L18.2131278,49.0940053 C17.9547428,49.0940053 17.6963578,49.2895965 17.567273,49.4849704 C17.3734304,49.6805616 17.308888,49.9410601 17.3734304,50.2668789 L18.277681,55.6759388 C15.9526574,54.0467366 14.5964161,51.4400131 14.5964161,48.5074491 C14.5964161,43.6849563 18.4715451,39.7749253 23.2508708,39.7749253 C28.0301966,39.7749253 31.9053256,43.6850106 31.9053256,48.5074491 C31.9051153,51.4400131 30.4843373,54.0467366 28.2238454,55.6759388 L28.2238346,55.6759388 Z M43.5951796,33.6491251 L42.6263974,27.8491653 L46.5015264,27.4582002 L50.247592,27.8491653 L49.3433415,33.6491251 C47.4703086,34.300806 45.4682125,34.300806 43.5952334,33.6491251 L43.5951796,33.6491251 Z M55.0915679,25.3727779 C55.0915679,28.2402281 53.7351543,30.8468973 51.4746624,32.4760995 L52.3143813,27.0670396 C52.3789237,26.8063238 52.3143813,26.545608 52.1205388,26.2851312 C51.9266962,26.08954 51.7330689,25.9592907 51.4746839,25.8941661 L46.6307727,25.3727345 L46.4369301,25.3727345 L41.4639556,25.8941661 C41.2055706,25.8941661 40.9471856,26.0897572 40.8181007,26.2851312 C40.6242582,26.4807223 40.5597157,26.7412209 40.6242582,27.0670396 L41.5285087,32.4760995 C39.2034852,30.8468973 37.8472439,28.2401738 37.8472439,25.3076099 C37.8472439,20.4851171 41.7223728,16.5750861 46.5016986,16.5750861 C51.2808629,16.5750861 55.0915679,20.5505024 55.0915679,25.3727779 L55.0915679,25.3727779 Z M54.6391735,2.95495574 C56.5122063,2.95495574 58.0623117,4.51904416 58.0623117,6.40897301 C58.0623117,7.77744855 57.2225928,9.0808103 55.9308831,9.60226362 C55.0911642,9.92810406 54.122382,9.9932287 53.2829321,9.60226362 C51.9912225,9.08083202 51.1515036,7.77744855 51.1515036,6.40897301 C51.1517138,4.51882693 52.701609,2.95495574 54.6391735,2.95495574 L54.6391735,2.95495574 Z" id="Shape" fill="#785891" fill-rule="nonzero"></path>
        <path d="M23.2510215,41.013119 C21.1843937,41.013119 19.4404242,42.707435 19.4404242,44.8580905 C19.4404242,47.008746 21.1195929,48.703062 23.2510215,48.703062 C25.3824501,48.703062 27.0616189,47.008746 27.0616189,44.8580905 C27.0616189,42.7076522 25.3179185,41.013119 23.2510215,41.013119 Z M23.2510215,46.6827426 C22.2177076,46.6827426 21.3779887,45.8354489 21.3779887,44.7928138 C21.3779887,43.7501787 22.2177076,42.9028849 23.2510215,42.9028849 C24.2843354,42.9028849 25.1240544,43.7501787 25.1240544,44.7928138 C25.1240544,45.8354489 24.2198038,46.6827426 23.2510215,46.6827426 Z" id="Shape" fill="#5AAAD1" fill-rule="nonzero"></path>
    </g>
</svg>