<?xml version="1.0" encoding="UTF-8"?>
<svg width="60px" height="60px" viewBox="0 0 60 60" version="1.1" xmlns="http://www.w3.org/2000/svg" xmlns:xlink="http://www.w3.org/1999/xlink">
    <title></title>
    <g id="icon-/-category-digital-search" stroke="none" stroke-width="1" fill="none" fill-rule="evenodd">
        <path d="M53.6719211,0 L6.32807891,0 C4.6503345,0.00195309349 3.04173986,0.66914777 1.85544382,1.85544382 C0.66914777,3.04173986 0.0019499935,4.6503345 0,6.32807891 L0,53.6719211 C0.00195309349,55.3496655 0.66914777,56.9582601 1.85544382,58.1445562 C3.04173986,59.3308522 4.6503345,59.99805 6.32807891,60 L53.6719211,60 C55.3496655,59.9980469 56.9582601,59.3308522 58.1445562,58.1445562 C59.3308522,56.9582601 59.99805,55.3496655 60,53.6719211 L60,6.32807891 C59.9980469,4.6503345 59.3308522,3.04173986 58.1445562,1.85544382 C56.9582601,0.66914777 55.3496655,0.0019499935 53.6719211,0 L53.6719211,0 Z M58.5938047,53.6698211 C58.5922422,54.9747168 58.0733064,56.2256626 57.1506595,57.1485095 C56.2278126,58.0711564 54.9768167,58.5901047 53.6719711,58.5916547 L6.32812891,58.5916547 C5.02323326,58.5900922 3.77228743,58.0711564 2.8494405,57.1485095 C1.92679358,56.2256626 1.40784531,54.9746668 1.40629531,53.6698211 L1.40629531,14.0604531 L58.5961047,14.0604531 L58.5938047,53.6698211 Z M58.5938047,12.6544578 L1.40399532,12.6544578 L1.40399532,6.32647891 C1.40555781,5.02158326 1.92449359,3.77063743 2.84714051,2.84779051 C3.76998743,1.92514358 5.02098326,1.40619531 6.32582891,1.40464532 L53.6696711,1.40464532 C54.9745668,1.40620781 56.2255126,1.92514358 57.1483595,2.84779051 C58.0710064,3.77063743 58.5899547,5.02163326 58.5915047,6.32647891 L58.5938047,12.6544578 Z" id="Shape" stroke="#785891" stroke-width="0.5" fill="#785891" fill-rule="nonzero"></path>
        <path d="M10,3 C12.209139,3 14,4.790861 14,7 C14,9.209139 12.209139,11 10,11 C7.790861,11 6,9.209139 6,7 C6,4.790861 7.790861,3 10,3 Z M10,4.6 C8.6745166,4.6 7.6,5.6745166 7.6,7 C7.6,8.3254834 8.6745166,9.4 10,9.4 C11.3254834,9.4 12.4,8.3254834 12.4,7 C12.4,5.6745166 11.3254834,4.6 10,4.6 Z" id="Combined-Shape" fill="#785891"></path>
        <path d="M20,3 C22.209139,3 24,4.790861 24,7 C24,9.209139 22.209139,11 20,11 C17.790861,11 16,9.209139 16,7 C16,4.790861 17.790861,3 20,3 Z M20,4.6 C18.6745166,4.6 17.6,5.6745166 17.6,7 C17.6,8.3254834 18.6745166,9.4 20,9.4 C21.3254834,9.4 22.4,8.3254834 22.4,7 C22.4,5.6745166 21.3254834,4.6 20,4.6 Z" id="Combined-Shape-Copy" fill="#785891"></path>
        <path d="M30,3 C32.209139,3 34,4.790861 34,7 C34,9.209139 32.209139,11 30,11 C27.790861,11 26,9.209139 26,7 C26,4.790861 27.790861,3 30,3 Z M30,4.6 C28.6745166,4.6 27.6,5.6745166 27.6,7 C27.6,8.3254834 28.6745166,9.4 30,9.4 C31.3254834,9.4 32.4,8.3254834 32.4,7 C32.4,5.6745166 31.3254834,4.6 30,4.6 Z" id="Combined-Shape-Copy-2" fill="#785891"></path>
        <path d="M51,3 C53.209139,3 55,4.790861 55,7 C55,9.209139 53.209139,11 51,11 L45,11 C42.790861,11 41,9.209139 41,7 C41,4.790861 42.790861,3 45,3 L51,3 Z M51,5 L45,5 C43.8954305,5 43,5.8954305 43,7 C43,8.1045695 43.8954305,9 45,9 L51,9 C52.1045695,9 53,8.1045695 53,7 C53,5.8954305 52.1045695,5 51,5 Z" id="Combined-Shape" fill="#785891"></path>
        <path d="M28.7130043,47.8123406 C32.3182423,47.8123406 35.7759807,46.3800954 38.3254722,43.8309039 C40.8746638,41.2815124 42.306909,37.8239239 42.306909,34.2184359 C42.306909,30.612948 40.8746638,27.1554595 38.3254722,24.605968 C35.7760807,22.0567765 32.3184923,20.6245313 28.7130043,20.6245313 C25.1075163,20.6245313 21.6500278,22.0567765 19.1005363,24.605968 C16.5513448,27.1553595 15.1190996,30.612948 15.1190996,34.2184359 C15.1233965,37.8223239 16.5567948,41.2774124 19.1052363,43.8259039 C21.6536778,46.3743954 25.1087163,47.8077406 28.7127043,47.8120406 L28.7130043,47.8123406 Z M16.5255449,34.2183859 C16.5265215,31.3132956 17.5651914,28.503905 19.4542352,26.2969123 C21.3434789,24.0898697 23.9589201,22.6303246 26.8292106,22.1813261 C29.699501,21.7321076 32.6356912,22.3231206 35.108683,23.8477205 C37.5817247,25.3723154 39.4287686,27.7299576 40.3171656,30.4961983 L35.6095813,34.8938337 C35.0291332,34.5231299 34.3322356,34.3793854 33.6523378,34.48993 C32.9724401,34.6006697 32.3572421,34.9578985 31.9242436,35.4934267 L25.6207646,32.6016363 C25.790489,31.6613895 25.4709601,30.6990927 24.7727174,30.0469448 C24.0742698,29.394597 23.092623,29.1414979 22.1658761,29.3748971 C21.2393292,29.6084913 20.4945817,30.296394 20.1885327,31.201641 C19.8824787,32.106738 20.0570881,33.1055346 20.6520062,33.8531822 L17.2469175,38.3457672 C16.7687941,37.0223216 16.5248699,35.6256762 16.5260199,34.2184309 L16.5255449,34.2183859 Z M35.5099816,37.2652758 C35.5099816,37.6383195 35.3617421,37.9959233 35.098068,38.2596225 C34.8343989,38.5232916 34.4767701,38.6715361 34.1037213,38.6715361 C33.7306726,38.6715361 33.3730738,38.5232966 33.1093746,38.2596225 C32.8457055,37.9959533 32.697461,37.6383245 32.697461,37.2652758 C32.697461,36.892227 32.8457005,36.5346282 33.1093746,36.2709291 C33.3730438,36.00726 33.7306726,35.8590155 34.1037213,35.8590155 C34.4767701,35.8590155 34.8343689,36.007255 35.098068,36.2709291 C35.3617371,36.5345982 35.5099816,36.892227 35.5099816,37.2652758 Z M24.2600191,32.109293 C24.2600191,32.4823367 24.1117796,32.8399405 23.8481055,33.1036397 C23.5844364,33.3673088 23.2268076,33.5155533 22.8537588,33.5155533 C22.4807101,33.5155533 22.1231113,33.3673138 21.8594121,33.1036397 C21.595743,32.8399705 21.4474985,32.4823417 21.4474985,32.109293 C21.4474985,31.7362442 21.595738,31.3786454 21.8594121,31.1149463 C22.1230813,30.8512772 22.4807101,30.7030327 22.8537588,30.7030327 C23.2268076,30.7030327 23.5844064,30.8512722 23.8481055,31.1149463 C24.1117746,31.3786154 24.2600191,31.7362442 24.2600191,32.109293 L24.2600191,32.109293 Z M21.7709774,34.7041843 C22.3307256,34.9381685 22.9510735,34.9844584 23.5393215,34.8360189 C24.1274196,34.6875794 24.6516178,34.3526205 25.0334666,33.8811221 L31.3354455,36.7729124 C31.1739211,37.6713594 31.4586851,38.5920564 32.098943,39.2428042 C32.7391909,39.893402 33.6551878,40.192801 34.5561848,40.0459015 C35.4571818,39.899002 36.2307792,39.3240039 36.6311779,38.5037067 C37.0315766,37.6834094 37.0089116,36.7197126 36.5704381,35.9191653 L40.7034243,32.0586281 C41.2198226,34.9283686 40.6897524,37.8881087 39.2096793,40.4006003 C37.7295842,42.912892 35.397592,44.8109356 32.6372012,45.7500825 C29.8768104,46.6892294 26.8712204,46.6074796 24.1657294,45.5194183 C21.4604885,44.4311219 19.2352959,42.4088786 17.8942504,39.8199373 L21.7709774,34.7041843 Z" id="Shape" stroke="#5AAAD1" stroke-width="0.5" fill="#5AAAD1" fill-rule="nonzero"></path>
        <path d="M11.1350629,50.389832 C11.8436605,50.3910039 12.5266582,50.1242079 13.0467565,49.6431345 C13.5670548,49.1618861 13.8862037,48.5017383 13.9401035,47.7952907 C13.9942034,47.088643 13.7791641,46.3878954 13.3381555,45.8331972 L14.410602,44.4166019 C16.9418435,47.9786901 20.711581,50.4675818 24.9820667,51.3960787 C29.2525525,52.3245756 33.7150376,51.6249829 37.496525,49.4351352 L43.807004,55.7466142 C44.8728004,56.8124106 46.4261452,57.2286592 47.8819904,56.8386105 C49.3378355,56.4483768 50.4749318,55.3112656 50.8651804,53.8554205 C51.2552191,52.3995753 50.8390085,50.8462305 49.7731841,49.7804341 L43.5767047,43.5844547 C45.0342999,41.2803624 45.9340969,38.6678711 46.204646,35.9549802 C46.4751551,33.2418892 46.1087463,30.5029983 45.1347496,27.9570068 L47.2384425,26.1925627 L47.2384425,26.192758 C47.99059,26.7310562 48.9587368,26.8669558 49.8300339,26.5566218 C50.701531,26.2462729 51.3655788,25.5290753 51.608128,24.6365282 C51.8509022,23.7439312 51.6411359,22.7892844 51.0466298,22.0804867 C50.4522818,21.3718891 49.5485848,20.9990404 48.6274879,21.0826401 C47.706391,21.1660398 46.8843437,21.695138 46.4270952,22.4992354 C45.9698718,23.3033327 45.9351069,24.2800794 46.3343206,25.1146766 L44.5563765,26.6052717 C43.1833311,23.7464812 41.0626381,21.3127893 38.4188969,19.5612951 C35.7749558,17.810151 32.706416,16.8070043 29.5389265,16.6583548 C26.3711871,16.5095253 23.2219476,17.2206529 20.4259569,18.716348 C17.6294662,20.212043 15.289974,22.4364356 13.6554795,25.1538265 C12.0207349,27.8712174 11.1517878,30.9803071 11.1406379,34.1517965 C11.1295049,37.3228859 11.9765851,40.4382756 13.5921797,43.1667665 L12.2177843,44.9822104 L12.2179796,44.9824057 C11.4400322,44.6572118 10.5574352,44.6982267 9.81308764,45.0941253 C9.06854012,45.489829 8.54104188,46.1986217 8.37559243,47.0253689 C8.21016298,47.8519161 8.42422527,48.7093633 8.95899049,49.3611111 C9.4935387,50.0128589 10.292586,50.3904077 11.1355332,50.3898077 L11.1350629,50.389832 Z M48.8694371,22.499425 C49.2424809,22.499425 49.6000847,22.6476645 49.8637838,22.9113386 C50.1274529,23.1750077 50.2756974,23.5326366 50.2756974,23.9056853 C50.2756974,24.2787341 50.1274579,24.6363329 49.8637838,24.900032 C49.6001147,25.1637011 49.2424859,25.3119456 48.8694371,25.3119456 C48.4963883,25.3119456 48.1387895,25.1637061 47.8750904,24.900032 C47.6114213,24.6363629 47.4631768,24.2787341 47.4631768,23.9056853 C47.4631768,23.5326366 47.6114163,23.1750377 47.8750904,22.9113386 C48.1387595,22.6476695 48.4963883,22.499425 48.8694371,22.499425 L48.8694371,22.499425 Z M48.7790074,50.7748308 C49.489555,51.4855784 49.7671041,52.5211249 49.506955,53.4918217 C49.2468008,54.4625185 48.4888084,55.2205159 47.5181116,55.4806651 C46.5474148,55.7408192 45.5118683,55.4632821 44.8011207,54.7527175 L43.1437262,53.095323 L47.1214629,49.1175863 L48.7790074,50.7748308 Z M46.1272662,48.1232896 L42.1499295,52.1006263 L38.713041,48.6637378 C40.2636358,47.5877414 41.6323812,46.2711458 42.7677274,44.7637508 L46.1272662,48.1232896 Z M12.5413782,34.2183359 C12.5413782,29.9293002 14.2452725,25.8158639 17.2780624,22.7833741 C20.3108523,19.7508842 24.4240386,18.0466898 28.7130243,18.0466898 C33.00201,18.0466898 37.1154963,19.7505842 40.1479862,22.7833741 C43.1804761,25.8161639 44.8846704,29.9293502 44.8846704,34.2183359 C44.8846704,38.5073216 43.1807761,42.6208079 40.1479862,45.6532978 C37.1151963,48.6857877 33.00201,50.389982 28.7130243,50.389982 C24.4255386,50.3850992 20.3150523,48.6796377 17.2835624,45.6477978 C14.2517225,42.6161579 12.5462782,38.5058216 12.5413782,34.2183359 L12.5413782,34.2183359 Z M11.1351329,46.1712961 C11.5081766,46.1712961 11.8657804,46.3195356 12.1294796,46.5832097 C12.3931487,46.8468788 12.5413932,47.2045077 12.5413932,47.5775564 C12.5413932,47.9506052 12.3931537,48.308204 12.1294796,48.5719031 C11.8658104,48.8355722 11.5081816,48.9838167 11.1351329,48.9838167 C10.7620841,48.9838167 10.4044853,48.8355772 10.1407862,48.5719031 C9.87711708,48.308234 9.72887257,47.9506052 9.72887257,47.5775564 C9.72887257,47.2045077 9.87711208,46.8469088 10.1407862,46.5832097 C10.4044553,46.3195406 10.7620841,46.1712961 11.1351329,46.1712961 Z" id="Shape" stroke="#5AAAD1" stroke-width="0.5" fill="#5AAAD1" fill-rule="nonzero"></path>
    </g>
</svg>