<?xml version="1.0" encoding="UTF-8"?>
<svg width="60px" height="60px" viewBox="0 0 60 60" version="1.1" xmlns="http://www.w3.org/2000/svg" xmlns:xlink="http://www.w3.org/1999/xlink">
    <title></title>
    <g id="icon-/-category-drug-reference-and-med-app" stroke="none" stroke-width="1" fill="none" fill-rule="evenodd">
        <path d="M53.43772,25.3125652 C53.1890956,25.3125652 52.9506308,25.4113952 52.7748483,25.5871751 C52.5990758,25.762955 52.50025,26.0014348 52.50025,26.2500747 L52.50025,45.0000637 C52.50025,45.2486986 52.4014242,45.4871735 52.2256517,45.6629634 C52.0498792,45.8387433 51.8114094,45.9375732 51.56278,45.9375732 L47.81294,45.9375732 C47.4779943,45.9375732 47.1686175,46.1162831 47.0010746,46.4063229 C46.8336968,46.6963628 46.8336968,47.0537726 47.0010746,47.3438224 C47.1686475,47.6338622 47.4780093,47.8125652 47.81294,47.8125652 L51.56278,47.8125652 C52.3086482,47.8125652 53.0240676,47.5162823 53.5513451,46.9887226 C54.0788726,46.4613729 54.37516,45.7459733 54.37516,45.0000737 L54.37516,26.2500847 C54.37516,26.0014498 54.2763342,25.762975 54.1005617,25.5871851 C53.9247892,25.4114052 53.6863194,25.3125652 53.43769,25.3125652 L53.43772,25.3125652 Z" id="Path" fill="#785891" fill-rule="nonzero"></path>
        <path d="M17.81174,45.9375532 L2.81238001,45.9375532 C2.56375561,45.9375532 2.32529079,45.8387233 2.14950829,45.6629434 C1.97373579,45.4871635 1.87491,45.2486836 1.87491,45.0000437 L1.87491,5.62506672 C1.87491,5.37643186 1.97373579,5.137957 2.14950829,4.96216711 C2.32528079,4.78638721 2.56375061,4.68755727 2.81238001,4.68755727 L32.8111001,4.68755727 C33.1460458,4.68755727 33.4554226,4.50884737 33.6229654,4.21880754 C33.7903433,3.92876771 33.7903433,3.57135792 33.6229654,3.28130809 C33.4553926,2.99126826 33.1460308,2.81255836 32.8111001,2.81255836 L2.81238001,2.81255836 C2.06651183,2.81255836 1.35109235,3.10884819 0.823814851,3.63640788 C0.296287358,4.16375757 0,4.87915715 0,5.62505672 L0,45.0000337 C0,45.7459333 0.296277359,46.4613829 0.823814851,46.9886826 C1.35114235,47.5162323 2.06651183,47.8125321 2.81238001,47.8125321 L17.81174,47.8125321 C18.1466857,47.8125321 18.4560625,47.6338222 18.6236054,47.3437824 C18.7909833,47.0537426 18.7909833,46.6963328 18.6236054,46.4062829 C18.4560325,46.1162431 18.1466707,45.9375332 17.81174,45.9375332 L17.81174,45.9375532 Z" id="Path" fill="#785891" fill-rule="nonzero"></path>
        <path d="M57.18756,0 L38.43836,0 C37.6924918,0 36.9770723,0.296369827 36.4497948,0.823929519 C35.9222673,1.35127921 35.62598,2.06667879 35.62598,2.81257836 L35.62598,19.6875685 C35.62598,20.4334681 35.9222573,21.1489177 36.4497948,21.6762174 C36.9771223,22.203767 37.6924918,22.5000669 38.43836,22.5000669 L43.12566,22.5000669 L43.12566,25.3125652 C43.12566,25.5399101 43.2082714,25.759635 43.3580701,25.9305149 C43.5078687,26.1016098 43.7148898,26.2123497 43.9402952,26.2420397 C44.1656756,26.2719227 44.3943758,26.2187977 44.5834178,26.0926248 L49.969188,22.5000269 L51.56287,22.5000269 C51.8978157,22.5000269 52.2071925,22.321317 52.3747353,22.0312771 C52.5421132,21.7412373 52.5421132,21.3838275 52.3747353,21.0937777 C52.2071625,20.8037379 51.8978007,20.625028 51.56287,20.625028 L49.68795,20.625028 C49.5028029,20.6252233 49.3219506,20.6801079 49.1676722,20.7824479 L45.00065,23.5613463 L45.00065,21.5624974 C45.00065,21.3138626 44.9018242,21.0753877 44.7260517,20.8995978 C44.5502792,20.7238179 44.3118094,20.624988 44.06318,20.624988 L38.43842,20.624988 C38.1897956,20.624988 37.9513307,20.526158 37.7755482,20.3503781 C37.5997757,20.1745982 37.50095,19.9361184 37.50095,19.6874785 L37.50095,2.81248836 C37.50095,2.5638535 37.5997757,2.32537864 37.7755482,2.14958875 C37.9513207,1.97380885 38.1897906,1.87497891 38.43842,1.87497891 L57.18762,1.87497891 C57.4362444,1.87497891 57.6747092,1.97380885 57.8504917,2.14958875 C58.0262642,2.32536864 58.12509,2.5638485 58.12509,2.81248836 L58.12509,19.6874785 C58.12509,19.9361134 58.0262642,20.1745882 57.8504917,20.3503781 C57.6747192,20.526158 57.4362494,20.624988 57.18762,20.624988 L55.3127,20.624988 C54.9777543,20.624988 54.6683775,20.8036979 54.5008346,21.0937377 C54.3334568,21.3837775 54.3334568,21.7411873 54.5008346,22.0312371 C54.6684075,22.321277 54.9777693,22.4999869 55.3127,22.4999869 L57.18762,22.4999869 C57.9334882,22.4999869 58.6489076,22.203697 59.1761851,21.6761374 C59.7037126,21.1487877 60,20.4333881 60,19.6874885 L60,2.81249836 C60,2.06659879 59.7037226,1.35114921 59.1761851,0.823849519 C58.6488576,0.296299827 57.9334882,0 57.18762,0 L57.18756,0 Z" id="Path" fill="#785891" fill-rule="nonzero"></path>
        <path d="M45.9355401,17.8125696 L49.6853801,17.8125696 C49.9340045,17.8125696 50.1724693,17.7137397 50.3482518,17.5379598 C50.5240243,17.3621799 50.6228501,17.1237 50.6228501,16.8750602 L50.6228501,14.0625618 L53.4352301,14.0625618 C53.6838545,14.0625618 53.9223193,13.9637319 54.0981018,13.787952 C54.2738743,13.6121721 54.3727001,13.3736922 54.3727001,13.1250523 L54.3727001,9.37505453 C54.3727001,9.12641968 54.2738743,8.88794482 54.0981018,8.71215492 C53.9223293,8.53637502 53.6838595,8.43754508 53.4352301,8.43754508 L50.6228501,8.43754508 L50.6228501,5.62504672 C50.6228501,5.37641186 50.5240243,5.137937 50.3482518,4.96214711 C50.1724793,4.78636721 49.9340095,4.68753727 49.6853801,4.68753727 L45.9355401,4.68753727 C45.6869157,4.68753727 45.4484509,4.78636721 45.2726684,4.96214711 C45.0968959,5.137927 44.9980701,5.37640686 44.9980701,5.62504672 L44.9980701,8.43754508 L42.1856901,8.43754508 C41.9370657,8.43754508 41.6986009,8.53637502 41.5228184,8.71215492 C41.3470459,8.88793482 41.2482201,9.12641468 41.2482201,9.37505453 L41.2482201,13.1250523 C41.2482201,13.3736872 41.3470459,13.6121621 41.5228184,13.787952 C41.6985909,13.9637319 41.9370607,14.0625618 42.1856901,14.0625618 L44.9980701,14.0625618 L44.9980701,16.8750602 C44.9980701,17.123695 45.0968959,17.3621699 45.2726684,17.5379598 C45.4484409,17.7137397 45.6869107,17.8125696 45.9355401,17.8125696 L45.9355401,17.8125696 Z M43.1231601,12.1875729 L43.1231601,10.312574 L45.9355401,10.312574 C46.1841645,10.312574 46.4226293,10.213744 46.5984118,10.0379641 C46.7741843,9.86218425 46.8730101,9.62370439 46.8730101,9.37506453 L46.8730101,6.56256617 L48.7479301,6.56256617 L48.7479301,9.37506453 C48.7479301,9.62369939 48.8467559,9.86217425 49.0225284,10.0379641 C49.1983009,10.213744 49.4367707,10.312574 49.6854001,10.312574 L52.4977801,10.312574 L52.4977801,12.1875729 L49.6854001,12.1875729 C49.4367757,12.1875729 49.1983109,12.2864028 49.0225284,12.4621827 C48.8467559,12.6379626 48.7479301,12.8764425 48.7479301,13.1250823 L48.7479301,15.9375807 L46.8730101,15.9375807 L46.8730101,13.1250823 C46.8730101,12.8764475 46.7741843,12.6379726 46.5984118,12.4621827 C46.4226393,12.2864028 46.1841695,12.1875729 45.9355401,12.1875729 L43.1231601,12.1875729 Z" id="Shape" fill="#5AAAD1" fill-rule="nonzero"></path>
        <path d="M41.4487315,37.5045581 C40.6272666,37.4617846 39.8144013,37.688933 39.1341803,38.1514577 C38.7287276,36.9458084 37.73464,36.031159 36.4995427,35.7270592 C35.2644454,35.4231543 33.9596011,35.7717856 33.0406903,36.6514586 C32.9600287,36.7284136 32.882297,36.8088785 32.8090601,36.8924735 C32.2371845,36.2420739 31.4575678,35.8100741 30.6029043,35.6700242 C29.7480408,35.5301793 28.8713282,35.6907272 28.1217601,36.1245139 L28.1217601,31.8749164 C28.1426577,30.893267 27.7862295,29.9409175 27.1257026,29.214368 C26.4649808,28.4878184 25.5509698,28.0424686 24.5717116,27.9702187 C23.5442054,27.9159237 22.5395483,28.2862335 21.7929302,28.9944181 C21.046462,29.7026177 20.62403,30.6866171 20.62403,31.7155165 L20.62403,51.5625049 C20.626569,53.7994036 21.516192,55.9441524 23.0979245,57.5260014 C24.679657,59.1078505 26.8243155,59.9975 29.0611701,60 L36.5608501,60 C38.7976546,59.997461 40.9423131,59.1078005 42.5240956,57.5260014 C44.1058781,55.9442024 44.9954902,53.7994536 44.9979901,51.5625049 L44.9979901,41.4095108 C45.0188877,40.4278614 44.6624594,39.475712 44.0021326,38.7493624 C43.3418107,38.0228128 42.4277997,37.5773131 41.4487415,37.5048131 L41.4487315,37.5045581 Z M43.1230601,51.5625499 C43.1209117,53.3023989 42.4287397,54.9701479 41.1985422,56.2004472 C39.9683447,57.4306965 38.3006158,58.1228961 36.5608401,58.1250461 L29.0611601,58.1250461 C27.3213843,58.123093 25.6533055,57.4310965 24.4230579,56.2008472 C23.1928104,54.9705979 22.50089,53.3023989 22.49894,51.5625499 L22.49894,31.7155615 C22.49894,31.2182968 22.6963916,30.7413621 23.0481166,30.3897623 C23.3996616,30.0380025 23.8765813,29.8405626 24.37386,29.8405626 L24.4760057,29.8405626 C24.9734445,29.8938826 25.4324149,30.1331424 25.7611009,30.5103122 C26.0897968,30.887462 26.2640294,31.3749617 26.2487751,31.8749614 L26.2487751,43.1249548 C26.2487751,43.4599146 26.4274774,43.7693045 26.7175051,43.9368544 C27.0075327,44.1042393 27.3649274,44.1042393 27.6549651,43.9368544 C27.9449927,43.7692745 28.1236951,43.4598996 28.1236951,43.1249548 L28.1236951,39.374957 C28.1236951,38.7050574 28.4810998,38.0861078 29.0611551,37.751108 C29.6412303,37.4161482 30.3559998,37.4161482 30.9360751,37.751108 C31.5161503,38.0860678 31.8735351,38.7050074 31.8735351,39.374957 L31.8735351,43.1249548 C31.8735351,43.4599146 32.0522374,43.7693045 32.3422651,43.9368544 C32.6322927,44.1042393 32.9896874,44.1042393 33.2797251,43.9368544 C33.5697527,43.7692745 33.7484551,43.4598996 33.7484551,43.1249548 L33.7484551,39.374957 C33.7468926,38.8605073 33.9584061,38.3685076 34.3324301,38.0155578 C34.7025294,37.654228 35.2085428,37.4667081 35.7245708,37.4999581 C36.2222045,37.5532781 36.6811799,37.792538 37.0100659,38.1697077 C37.3387619,38.5468575 37.5131444,39.0341572 37.4983251,39.5343569 L37.4983251,43.1249548 C37.4983251,43.4599146 37.6770274,43.7693045 37.9670551,43.9368544 C38.2570827,44.1042393 38.6144774,44.1042393 38.9045151,43.9368544 C39.1945427,43.7692745 39.3732451,43.4598996 39.3732451,43.1249548 L39.3732451,41.2499559 C39.3716826,40.7355062 39.5831961,40.2435065 39.9572202,39.8905567 C40.3320092,39.5366519 40.8345327,39.350507 41.3493608,39.374957 C41.8469945,39.428277 42.3059699,39.6675369 42.6348559,40.0447066 C42.9635519,40.4218564 43.1379344,40.9091561 43.1231151,41.4093558 L43.1230601,51.5625499 Z" id="Shape" fill="#5AAAD1" fill-rule="nonzero"></path>
        <path d="M17.81174,8.43756508 L6.56222001,8.43756508 C6.31359562,8.43756508 6.07513079,8.53640502 5.89934829,8.71218492 C5.72357579,8.88796482 5.62475001,9.12644468 5.62475001,9.37508453 L5.62475001,24.3750758 C5.62475001,24.6237106 5.72357579,24.8621855 5.89934829,25.0379754 C6.07512079,25.2137553 6.31359062,25.3125852 6.56222001,25.3125852 L26.24888,25.3125852 C26.4975044,25.3125852 26.7359693,25.2137553 26.9117518,25.0379754 C27.0875243,24.8621955 27.18635,24.6237156 27.18635,24.3750758 L27.18635,15.0000812 C27.18635,14.7514464 27.0875243,14.5129715 26.9117518,14.3371816 C26.7359793,14.1614017 26.4975094,14.0625718 26.24888,14.0625718 L18.7492,14.0625718 L18.7492,9.37507453 C18.7492,9.12643968 18.6503743,8.88796482 18.4746018,8.71217492 C18.2988292,8.53639502 18.0603594,8.43756508 17.81173,8.43756508 L17.81174,8.43756508 Z M25.31142,15.9375707 L25.31142,23.4375663 L13.12444,23.4375663 L13.12444,22.5000669 C13.12444,22.1651071 12.9457376,21.8557173 12.65571,21.6881673 C12.3656824,21.5207824 12.0082876,21.5207824 11.71825,21.6881673 C11.4282224,21.8557473 11.24952,22.1651221 11.24952,22.5000669 L11.24952,23.4375663 L7.49968001,23.4375663 L7.49968001,10.312574 L16.87428,10.312574 L16.87428,20.625068 C16.87428,20.9600278 17.0529824,21.2694176 17.34301,21.4369675 C17.6330377,21.6043524 17.9904324,21.6043524 18.28047,21.4369675 C18.5704977,21.2693876 18.7492,20.9600128 18.7492,20.625068 L18.7492,15.9375707 L25.31142,15.9375707 Z" id="Shape" fill="#785891" fill-rule="nonzero"></path>
        <path d="M14.0619,14.0625718 L13.12444,14.0625718 L13.12444,13.1250723 C13.12444,12.7901125 12.9457376,12.4807227 12.65571,12.3131728 C12.3656824,12.1457879 12.0082876,12.1457879 11.71825,12.3131728 C11.4282224,12.4807527 11.24952,12.7901275 11.24952,13.1250723 L11.24952,14.0625718 L10.31206,14.0625718 C9.97711431,14.0625718 9.66773751,14.2412817 9.50019466,14.5313215 C9.3328168,14.8213614 9.3328168,15.1787711 9.50019466,15.468821 C9.66776751,15.7588608 9.97712931,15.9375707 10.31206,15.9375707 L11.24952,15.9375707 L11.24952,16.8750702 C11.24952,17.21003 11.4282224,17.5194198 11.71825,17.6869697 C12.0082776,17.8543546 12.3656724,17.8543546 12.65571,17.6869697 C12.9457376,17.5193898 13.12444,17.210015 13.12444,16.8750702 L13.12444,15.9375707 L14.0619,15.9375707 C14.3968457,15.9375707 14.7062225,15.7588608 14.8737654,15.468821 C15.0411432,15.1787811 15.0411432,14.8213714 14.8737654,14.5313215 C14.7061925,14.2412817 14.3968307,14.0625718 14.0619,14.0625718 Z" id="Path" fill="#5AAAD1" fill-rule="nonzero"></path>
        <path d="M12.18698,31.8750614 L17.81174,31.8750614 C18.1466857,31.8750614 18.4560625,31.6963515 18.6236054,31.4063117 C18.7909833,31.1162718 18.7909833,30.7588621 18.6236054,30.4688122 C18.4560325,30.1787724 18.1466707,30.0000625 17.81174,30.0000625 L12.18698,30.0000625 C10.5124515,30.0000625 8.96506749,30.893412 8.12760322,32.3438111 C7.29033895,33.7942103 7.29033895,35.5809092 8.12760322,37.0313084 C8.96506749,38.4817076 10.5124515,39.375057 12.18698,39.375057 L17.81174,39.375057 C18.1466857,39.375057 18.4560625,39.1963471 18.6236054,38.9063073 C18.7909833,38.6162675 18.7909833,38.2588577 18.6236054,37.9688079 C18.4560325,37.678768 18.1466707,37.5000625 17.81174,37.5000625 L12.18698,37.5000625 C11.1821229,37.5000625 10.2538625,36.9639084 9.75133394,36.0938089 C9.24900538,35.2237095 9.24900538,34.1514101 9.75133394,33.2813106 C10.2538625,32.4112111 11.1821229,31.8750614 12.18698,31.8750614 Z" id="Path" fill="#785891" fill-rule="nonzero"></path>
        <path d="M40.3107801,24.3750658 L30.9361801,24.3750658 C30.6012343,24.3750658 30.2918575,24.5537757 30.1243147,24.8438155 C29.9569368,25.1338553 29.9569368,25.4912651 30.1243147,25.781315 C30.2918875,26.0713548 30.6012493,26.2500647 30.9361801,26.2500647 L40.3107801,26.2500647 C40.6457258,26.2500647 40.9551026,26.0713548 41.1226454,25.781315 C41.2900233,25.4912751 41.2900233,25.1338653 41.1226454,24.8438155 C40.9550726,24.5537757 40.6457108,24.3750658 40.3107801,24.3750658 Z" id="Path" fill="#785891" fill-rule="nonzero"></path>
        <path d="M47.8104601,28.1250636 L30.9361801,28.1250636 C30.6012343,28.1250636 30.2918575,28.3037735 30.1243147,28.5938133 C29.9569368,28.8838532 29.9569368,29.2412629 30.1243147,29.5313128 C30.2918875,29.8213526 30.6012493,30.0000625 30.9361801,30.0000625 L47.8104601,30.0000625 C48.1454058,30.0000625 48.4547826,29.8213526 48.6223254,29.5313128 C48.7897033,29.2412729 48.7897033,28.8838632 48.6223254,28.5938133 C48.4547526,28.3037735 48.1453908,28.1250636 47.8104601,28.1250636 Z" id="Path" fill="#785891" fill-rule="nonzero"></path>
        <path d="M47.8104601,31.8750614 L30.9361801,31.8750614 C30.6012343,31.8750614 30.2918575,32.0537713 30.1243147,32.3438111 C29.9569368,32.633851 29.9569368,32.9912608 30.1243147,33.2813106 C30.2918875,33.5713504 30.6012493,33.7500603 30.9361801,33.7500603 L47.8104601,33.7500603 C48.1454058,33.7500603 48.4547826,33.5713504 48.6223254,33.2813106 C48.7897033,32.9912708 48.7897033,32.633861 48.6223254,32.3438111 C48.4547526,32.0537713 48.1453908,31.8750614 47.8104601,31.8750614 Z" id="Path" fill="#785891" fill-rule="nonzero"></path>
    </g>
</svg>