<?xml version="1.0" encoding="UTF-8"?>
<svg width="60px" height="60px" viewBox="0 0 60 60" version="1.1" xmlns="http://www.w3.org/2000/svg" xmlns:xlink="http://www.w3.org/1999/xlink">
    <title></title>
    <g id="icon-/-category-electronic-health-records" stroke="none" stroke-width="1" fill="none" fill-rule="evenodd">
        <g id="Group" transform="translate(11.000000, 0.000000)" fill-rule="nonzero">
            <path d="M29.5626045,20.6673137 C29.5626045,17.2441644 26.7930056,14.4025016 23.3151469,14.4025016 C21.7049774,14.4025016 20.159161,15.0483585 19,16.1462077 C17.8405706,15.0483585 16.2950226,14.4025016 14.6848531,14.4025016 C11.2711864,14.4025016 8.43739548,17.179794 8.43739548,20.6673137 C8.43739548,21.1840854 8.69506554,21.8299638 9.08146328,22.5403526 L6.5695452,22.5403526 C6.05420508,22.5403526 5.6034435,22.9923663 5.6034435,23.509138 C5.6034435,24.0259096 6.05420508,24.4779234 6.5695452,24.4779234 L10.433952,24.4779234 C12.8815169,27.5781442 16.8746299,31.0656639 18.4847994,32.4219634 C18.6781056,32.5510487 18.8711972,32.6803493 19.1288672,32.6803493 C19.3865373,32.6803493 19.5796288,32.6158066 19.772935,32.4219634 C21.3831045,31.0657177 25.3763249,27.5780366 27.8237825,24.4779234 L31.6881893,24.4779234 C32.2035294,24.4779234 32.654291,24.0259096 32.654291,23.509138 C32.654291,22.9923663 32.2035294,22.5403526 31.6881893,22.5403526 L29.1762712,22.5403526 C29.3691588,21.8944957 29.5624596,21.1841069 29.5624596,20.6673137 L29.5626045,20.6673137 Z M10.3692232,20.6673137 C10.3692232,18.2777508 12.3015876,16.34018 14.6845311,16.34018 C16.1013729,16.34018 17.3895085,17.0505688 18.226904,18.2132189 C18.6133017,18.7299905 19.4506864,18.7299905 19.8370734,18.2132189 C20.6744689,17.0505688 21.9626045,16.34018 23.3794463,16.34018 C25.7623898,16.34018 27.6945932,18.2777508 27.6945932,20.6673137 C27.6945932,21.0547848 27.3081955,21.7651628 26.7284915,22.5403526 L24.7965028,22.5403526 L22.9286525,19.1820043 C22.7353463,18.8590758 22.4133124,18.6652326 22.026904,18.6652326 C21.6405062,18.6652326 21.3184831,18.9236184 21.1895085,19.2465577 L18.9352712,24.6717558 L16.745387,18.4715294 C16.6166593,18.0840583 16.2300469,17.8256725 15.8436384,17.8256725 C15.3928768,17.8256725 15.0708644,18.0840583 14.9418898,18.4715294 L13.4604266,22.5405356 L11.3348955,22.5405356 C10.6912571,21.7653997 10.3692232,21.0547956 10.3692232,20.6672814 L10.3692232,20.6673137 Z M18.9998927,30.4197909 C16.8100085,28.4821824 14.5557712,26.350747 12.8812486,24.4778695 L14.1050311,24.4778695 L14.2337588,24.4778695 L14.2981226,24.4778695 L14.3624864,24.4778695 L14.4268503,24.4778695 C14.4268503,24.4778695 14.4912141,24.4778695 14.4912141,24.4133269 C14.4912141,24.4133269 14.555578,24.4133269 14.555578,24.3487843 L14.8130387,24.0906083 C14.8130387,24.0906083 14.8130387,24.0260657 14.8774025,24.0260657 L14.9417664,23.9615231 L15.7791619,21.7655557 L17.9046929,27.8366108 C18.0334206,28.2240819 18.4200331,28.4824677 18.8064415,28.4824677 C19.19285,28.4824677 19.5792155,28.2240819 19.7081901,27.9011426 L22.1557551,22.0238447 L23.3795376,24.1552801 L23.5082653,24.2843654 C23.5082653,24.2843654 23.5726291,24.3489081 23.5726291,24.3489081 L23.7013568,24.4779933 C23.7013568,24.4779933 23.7657206,24.4779933 23.7657206,24.542536 C23.7657206,24.542536 23.8300845,24.542536 23.8300845,24.6070786 L23.8944483,24.6070786 L23.9588121,24.6070786 L24.0875398,24.6070786 L24.1519037,24.6070786 L24.9892992,24.6070786 C23.4441268,26.3507846 21.1898895,28.4820048 19.0000054,30.4197909 L18.9998927,30.4197909 Z" id="Shape" fill="#5AAAD1"></path>
            <path d="M37.033791,6.58763292 L30.5287062,6.58763292 L30.5287062,4.00420525 C30.5287062,3.4874336 30.0779446,3.03541987 29.5626045,3.03541987 L22.9287062,3.03541987 C22.4779446,1.29171384 20.9321497,0 18.9999463,0 C17.0677429,0 15.5219266,1.29171384 15.0711864,3.03541987 L8.43728814,3.03541987 C7.92194802,3.03541987 7.47118644,3.4874336 7.47118644,4.00420525 L7.47118644,6.58763292 L0.966101695,6.58763292 C0.450761582,6.58763292 0,7.03964664 0,7.55641829 L0,59.0312146 C0,59.5479863 0.450761582,60 0.966101695,60 L37.0338983,60 C37.5492384,60 38,59.5479863 38,59.0312146 L38,7.55641829 C38,7.03964664 37.6136023,6.58763292 37.0338983,6.58763292 L37.033791,6.58763292 Z M9.40328249,4.97299062 L15.972774,4.97299062 C16.4881141,4.97299062 16.9388757,4.52097689 16.9388757,4.00420525 C16.9388757,2.84155515 17.9049774,1.93757075 18.9997853,1.93757075 C20.0945932,1.93757075 21.0606949,2.90635613 21.0606949,4.00420525 C21.0606949,4.52097689 21.5114565,4.97299062 22.0267966,4.97299062 L28.5962881,4.97299062 L28.5962881,10.139846 L9.40360452,10.139846 L9.40328249,4.97299062 Z M36.0676893,58.0624292 L1.93209605,58.0624292 L1.93209605,8.52520367 L7.4710791,8.52520367 L7.4710791,11.1086313 C7.4710791,11.625403 7.92184068,12.0774167 8.43718079,12.0774167 L29.5626045,12.0774167 C30.0779446,12.0774167 30.5287062,11.625403 30.5287062,11.1086313 L30.5287062,8.52520367 L36.0676893,8.52520367 L36.0676893,58.0624292 Z" id="Shape" fill="#785891"></path>
            <path d="M29.8846384,49.2141895 L8.11514689,49.2141895 C7.59980678,49.2141895 7.1490452,49.6662032 7.1490452,50.1829749 C7.1490452,50.6997465 7.59980678,51.1517602 8.11514689,51.1517602 L29.8846384,51.1517602 C30.3999785,51.1517602 30.8507401,50.6997465 30.8507401,50.1829749 C30.8507401,49.6662032 30.3997692,49.2141895 29.8846384,49.2141895 Z" id="Path" fill="#785891"></path>
            <path d="M29.8846384,42.7556203 L8.11514689,42.7556203 C7.59980678,42.7556203 7.1490452,43.207634 7.1490452,43.7244057 C7.1490452,44.2411773 7.59980678,44.6931911 8.11514689,44.6931911 L29.8846384,44.6931911 C30.3999785,44.6931911 30.8507401,44.2411773 30.8507401,43.7244057 C30.8507401,43.207634 30.3997692,42.7556203 29.8846384,42.7556203 Z" id="Path" fill="#5AAAD1"></path>
            <path d="M29.8846384,36.2970511 L8.11514689,36.2970511 C7.59980678,36.2970511 7.1490452,36.7490649 7.1490452,37.2658365 C7.1490452,37.7826081 7.59980678,38.2346219 8.11514689,38.2346219 L29.8846384,38.2346219 C30.3999785,38.2346219 30.8507401,37.7826081 30.8507401,37.2658365 C30.8507401,36.7490649 30.3997692,36.2970511 29.8846384,36.2970511 Z" id="Path" fill="#785891"></path>
        </g>
    </g>
</svg>