<?xml version="1.0" encoding="UTF-8"?>
<svg width="60px" height="60px" viewBox="0 0 60 60" version="1.1" xmlns="http://www.w3.org/2000/svg" xmlns:xlink="http://www.w3.org/1999/xlink">
    <title></title>
    <g id="icon-/-category-information-sources" stroke="none" stroke-width="1" fill="none" fill-rule="evenodd">
        <path d="M33.8709677,19.3548387 C33.8709677,17.2199742 32.1348645,15.483871 30,15.483871 C27.8651355,15.483871 26.1290323,17.2199742 26.1290323,19.3548387 C26.1290323,21.4897032 27.8651355,23.2258065 30,23.2258065 C32.1348645,23.2258065 33.8709677,21.4897032 33.8709677,19.3548387 Z M28.0645161,19.3548387 C28.0645161,18.2874839 28.9326452,17.4193548 30,17.4193548 C31.0673548,17.4193548 31.9354839,18.2874839 31.9354839,19.3548387 C31.9354839,20.4221935 31.0673548,21.2903226 30,21.2903226 C28.9326452,21.2903226 28.0645161,20.4221935 28.0645161,19.3548387 Z" id="Shape" fill="#785891" fill-rule="nonzero"></path>
        <path d="M25.1612903,38.7096774 L25.1612903,44.516129 L34.8387097,44.516129 L34.8387097,38.7096774 L32.9032258,38.7096774 L32.9032258,25.1612903 L25.1612903,25.1612903 L25.1612903,30.9677419 L27.0967742,30.9677419 L27.0967742,38.7096774 L25.1612903,38.7096774 Z M27.0967742,29.0322581 L27.0967742,27.0967742 L30.9677419,27.0967742 L30.9677419,40.6451613 L32.9032258,40.6451613 L32.9032258,42.5806452 L27.0967742,42.5806452 L27.0967742,40.6451613 L29.0322581,40.6451613 L29.0322581,29.0322581 L27.0967742,29.0322581 Z" id="Shape" fill="#785891" fill-rule="nonzero"></path>
        <path d="M30,0 C13.4585806,0 0,13.4585806 0,30 C0,46.5414194 13.4585806,60 30,60 C46.5414194,60 60,46.5414194 60,30 C60,13.4585806 46.5414194,0 30,0 Z M30,58.0645161 C14.5249032,58.0645161 1.93548387,45.4750968 1.93548387,30 C1.93548387,14.5249032 14.5249032,1.93548387 30,1.93548387 C45.4750968,1.93548387 58.0645161,14.5249032 58.0645161,30 C58.0645161,45.4750968 45.4750968,58.0645161 30,58.0645161 Z" id="Shape" fill="#785891" fill-rule="nonzero"></path>
        <path d="M30,5.8064 C24.9328516,5.8064 20.0769032,7.36170323 15.956129,10.3054452 L17.0807226,11.8808258 C20.8714323,9.17316129 25.3393032,7.74193548 29.9999484,7.74193548 C42.2729806,7.74193548 52.2580129,17.7269677 52.2580129,30 C52.2580129,34.6606968 50.8267871,39.1287742 48.1189161,42.9192258 L49.6942968,44.0438194 C52.6382452,39.9230452 54.1934968,35.0667871 54.1934968,29.9999484 C54.1934968,16.6595613 43.3403355,5.8064 29.9999484,5.8064 L30,5.8064 Z" id="Path" fill="#5AAAD1" fill-rule="nonzero"></path>
        <path d="M30,52.2554839 C17.7269677,52.2554839 7.74193548,42.2704516 7.74193548,29.9974194 C7.74193548,25.3357419 9.17316129,20.8686452 11.8810323,17.0781935 L10.3064258,15.9536 C7.36247742,20.0743742 5.8064,24.9306323 5.8064,29.997471 C5.8064,43.3378581 16.6595613,54.1910194 29.9999484,54.1910194 C35.0670968,54.1910194 39.9230452,52.6357677 44.0438194,49.6920258 L42.9192258,48.1166452 C39.1285161,50.8243097 34.6606452,52.2555355 30,52.2555355 L30,52.2554839 Z" id="Path" fill="#5AAAD1" fill-rule="nonzero"></path>
    </g>
</svg>