<?xml version="1.0" encoding="UTF-8"?>
<svg width="60px" height="60px" viewBox="0 0 60 60" version="1.1" xmlns="http://www.w3.org/2000/svg" xmlns:xlink="http://www.w3.org/1999/xlink">
    <title></title>
    <g id="icon-/-category-manufacturing-relationships" stroke="none" stroke-width="1" fill="none" fill-rule="evenodd">
        <path d="M44.99996,23.9999757 C49.9628889,23.9999757 53.999952,19.9629063 53.999952,14.9999635 C53.999952,10.0370329 49.9628889,5.99996352 44.99996,5.99996352 C42.2489224,5.99996352 39.6889247,7.22993768 37.9791662,9.37601913 L39.5412449,10.6239133 C40.8722837,8.95601885 42.8612419,7.99996352 45.00044,7.99996352 C48.8593699,7.99996352 52.0004338,11.1410337 52.0004338,14.9999635 C52.0004338,18.8589055 48.8593699,21.9999743 45.00044,21.9999743 C42.8615086,21.9999743 40.8725503,21.0439203 39.5412449,19.3760259 L37.9791662,20.6239201 C39.6891381,22.7699482 42.2491358,23.9999757 44.99996,23.9999757 Z" id="Path" fill="#785891" fill-rule="nonzero"></path>
        <path d="M60,12.6602347 C60,12.2281491 59.7239042,11.8473275 59.3139206,11.711274 L56.7449629,10.8602335 C56.594963,10.4302332 56.4220458,10.0131396 56.2260034,9.61233929 L57.3130957,7.33025775 C57.4680929,7.00317486 57.4351809,6.61628394 57.2251811,6.32129707 C56.2462487,4.94524281 55.0541431,3.753402 53.678091,2.77420134 C53.3820485,2.5642012 52.9960116,2.53211584 52.6691318,2.68628661 L50.3870539,3.77338068 C49.9860142,3.57838322 49.5691346,3.40546577 49.1391617,3.25442033 L48.2881224,0.685458596 C48.1529119,0.27629032 47.7710402,0.000231466823 47.3400166,0.000231466823 L42.6600207,0.000231466823 C42.2279358,0.000231466823 41.8471148,0.27627432 41.7110616,0.686258597 L40.8450357,3.3023137 L39.6571434,3.79523136 L37.3300522,2.68733728 C37.0040098,2.53441985 36.6171461,2.56525187 36.321093,2.77525201 C34.9450409,3.754186 33.753202,4.94629347 32.7740029,6.32234774 C32.5640031,6.61734527 32.5310858,7.0044282 32.6860883,7.33130842 L33.9860871,10.0602703 L35.7931789,9.20133635 L34.7521131,7.01530821 C35.4110459,6.16928097 36.1691785,5.41136046 37.0150444,4.75237334 L39.2000558,5.79322738 C39.4560983,5.9153128 39.752162,5.92218747 40.0129618,5.81426899 L42.0340266,4.97426843 C42.3019411,4.86322835 42.5090235,4.64031087 42.5990395,4.36530802 L43.3829854,2.00029308 L46.6169559,2.00029308 L47.4001019,4.36424135 C47.5030191,4.67424156 47.7501016,4.91421505 48.0621813,5.00818845 C48.707194,5.20110591 49.3221802,5.45610342 49.890073,5.76818896 C50.1711127,5.9211064 50.5111391,5.93110641 50.7990322,5.79318898 L52.9850569,4.75212161 C53.8310828,5.41105539 54.5890021,6.16918923 55.2479882,7.01505647 L54.2071358,9.20028462 C54.0692213,9.48924481 54.0792213,9.82817837 54.2321358,10.1092452 C54.5442208,10.6771389 54.798162,11.2931927 54.9921351,11.9371398 C55.0860924,12.2492253 55.3260922,12.4971402 55.6360812,12.5992202 L58.0000258,13.3831674 L58.0000258,16.617143 L55.6360812,17.4002902 C55.3260815,17.5032076 55.0861084,17.7502904 54.9921351,18.0623706 C54.799218,18.7073844 54.5442208,19.3223715 54.2321358,19.8902652 C54.0792186,20.1713054 54.0692186,20.5102656 54.2071358,20.7992258 L55.2482016,22.9852539 C54.5892688,23.8312812 53.8311362,24.5892017 52.9852702,25.2481888 L50.8000455,24.2073348 C50.5121311,24.070252 50.1721527,24.080252 49.8910863,24.2323348 C49.3231935,24.5444203 48.7071407,24.7983618 48.0631946,24.9923353 C47.7511096,25.0862927 47.5031951,25.3262928 47.4011152,25.6362824 L46.6171692,28.0002315 L43.3831988,28.0002315 L42.6000528,25.6362824 C42.5090129,25.3612849 42.3021384,25.1383674 42.03504,25.027322 L40.0139751,24.1873214 C39.751058,24.0794067 39.4550423,24.085236 39.2010692,24.208363 L37.0150444,25.2494304 C36.1690185,24.5904966 35.4110992,23.8323628 34.7521131,22.9864955 L35.7931789,20.8004674 L33.9860871,19.9415335 L32.6860883,22.6704953 C32.5310911,22.9975782 32.5640031,23.3844691 32.7740029,23.679456 C33.7529353,25.0555103 34.9450409,26.2473511 36.321093,27.2265517 C36.6171355,27.4355119 37.0031724,27.4675919 37.3300522,27.3144665 L39.6571434,26.2065724 L40.8450357,26.69949 L41.7110616,29.3155451 C41.8471041,29.7242974 42.2289758,30.0003456 42.6600207,30.0003456 L47.3400166,30.0003456 C47.7721015,30.0003456 48.1529225,29.7243027 48.2889757,29.3143185 L49.140015,26.7453567 C49.5700146,26.5953566 49.9871076,26.4224392 50.3879072,26.2263964 L52.6699852,27.3134905 C52.9970676,27.4674479 53.3839579,27.4355759 53.6789443,27.2255757 C55.0549964,26.2466417 56.2468353,25.0545343 57.2260345,23.67848 C57.4360343,23.3834825 57.4689516,22.9963995 57.3139491,22.6695193 L56.2268567,20.3874378 C56.4218538,19.9863975 56.594771,19.5695172 56.7458162,19.1395436 L59.3147739,18.288503 C59.7239416,18.1532923 60,17.77142 60,17.3403957 L60,12.6602347 Z" id="Path" fill="#785891" fill-rule="nonzero"></path>
        <path d="M14.9999867,7.99996352 C17.1389181,7.99996352 19.1278763,8.95601885 20.4591818,10.6239133 L22.0212604,9.37601913 C20.3112886,7.22999102 17.7512909,5.99996352 15.0004747,5.99996352 C10.0375377,5.99996352 6.00047467,10.0370329 6.00047467,14.9999635 C6.00047467,19.9629063 10.0375377,23.9999757 15.0004747,23.9999757 C17.7515042,23.9999757 20.3115019,22.7700015 22.0212604,20.6239201 L20.4591818,19.3760259 C19.128143,21.0439203 17.1391848,21.9999743 14.9999867,21.9999743 C11.1410568,21.9999743 7.99999289,18.8589055 7.99999289,14.9999635 C7.99999289,11.1410337 11.1410568,7.99996352 14.9999867,7.99996352 Z" id="Path" fill="#785891" fill-rule="nonzero"></path>
        <path d="M18.2890504,29.3141126 L19.1400897,26.7451509 C19.5700893,26.5951508 19.9871822,26.4222333 20.3879819,26.2261905 L22.6700598,27.3132846 C22.9979742,27.467242 23.3840325,27.43537 23.679019,27.2253699 C25.0550711,26.2464359 26.24691,25.0543284 27.2261091,23.6782741 C27.4361089,23.3832766 27.4690262,22.9961937 27.3140237,22.6693134 L26.0140249,19.9403516 L24.2071465,20.8001389 L25.2482122,22.986167 C24.5892795,23.8321942 23.8311468,24.5901147 22.9852809,25.2491019 L20.8000562,24.2072345 C20.5121418,24.0701517 20.1729634,24.0801517 19.891097,24.2322345 C19.3232042,24.54432 18.7071514,24.7982616 18.0632053,24.992235 C17.7511202,25.0861924 17.5032058,25.3261926 17.4011259,25.6361821 L16.6171799,28.0001304 L13.3832094,28.0001304 L12.6000635,25.6361821 C12.5090235,25.3611846 12.3021491,25.1382671 12.0350506,25.0272217 L10.0139858,24.1872211 C9.75106867,24.0793064 9.45606626,24.0851357 9.20107982,24.2082628 L7.0150551,25.2493301 C6.16902918,24.5903963 5.41110986,23.8322625 4.75212378,22.9863953 L5.79297618,20.8001538 C5.91401608,20.5441109 5.92193607,20.2480467 5.81401777,19.9872466 L4.97401851,17.9661785 C4.86214128,17.6980557 4.64006148,17.4911809 4.36399239,17.4001515 L2.00004782,16.6172176 L2.00004782,13.3832421 L4.36399239,12.6000949 C4.63898948,12.5090549 4.86190661,12.30218 4.97295185,12.0350812 L5.8129511,10.0140132 C5.92086567,9.75192765 5.91399101,9.45609279 5.79190952,9.20110595 L4.75212378,7.01507781 C5.41105652,6.16905057 6.16918918,5.41113006 7.0150551,4.75214294 L9.20006649,5.79299698 C9.45610893,5.9150824 9.75217266,5.92195707 10.0129724,5.81403859 L12.0340373,4.97403803 C12.3019517,4.86299795 12.5090342,4.64008047 12.5990501,4.36507762 L13.3829961,2.00006268 L16.6169666,2.00006268 L17.4001125,4.36401095 C17.5030298,4.67401116 17.7501122,4.91398465 18.0621919,5.00795805 C18.7072047,5.20087551 19.3221908,5.45587302 19.8900837,5.76795856 C20.1721687,5.920876 20.5111498,5.93087601 20.7990428,5.79295858 L22.9850676,4.75189121 C23.8310935,5.41082499 24.5890128,6.16895883 25.2479989,7.01482607 L24.2071465,9.20005422 L26.0142382,10.0589881 L27.3142371,7.33002629 C27.4692342,7.0029434 27.4363223,6.61605247 27.2263225,6.3210656 C26.24739,4.94501134 25.0552844,3.75317054 23.6792323,2.77396987 C23.3842352,2.56396973 22.9971529,2.53188438 22.6702732,2.68605515 L20.3881952,3.77314922 C19.9871556,3.57815175 19.5702759,3.4052343 19.140303,3.25418887 L18.2892637,0.68522713 C18.1530132,0.276058853 17.7711415,0 17.3400913,0 L12.6600954,0 C12.2280105,0 11.8471895,0.276042853 11.7111363,0.68602713 L10.8451104,3.30208223 L9.65721808,3.7949999 L7.33012682,2.68710582 C7.00304444,2.53294038 6.61722078,2.5639804 6.32116771,2.77398054 C4.9451156,3.75291454 3.75306333,4.94502201 2.77407753,6.32107627 C2.56407772,6.6160738 2.53116042,7.0029434 2.68720294,7.33003695 L3.79509529,9.65713186 L3.3021784,10.845026 L0.68612739,11.7110532 C0.276127755,11.847096 0.000101333243,12.2289683 0.000101333243,12.6600139 L0.000101333243,17.340017 C0.000101333243,17.7721027 0.276143755,18.1529243 0.68612739,18.2889777 L3.3021784,19.1550049 L3.79509529,20.3428991 L2.68720294,22.669994 C2.53220575,22.9970769 2.56511772,23.3839678 2.77511753,23.6789547 C3.75405,25.0550089 4.9461556,26.2468497 6.32220771,27.2260504 C6.61720478,27.4350105 7.00327377,27.4670906 7.33116682,27.3139651 L9.65825808,26.206071 L10.8461504,26.6989887 L11.7121763,29.3150438 C11.8471735,29.7240041 12.2290505,30.0000576 12.6600687,30.0000576 L17.3400646,30.0000576 C17.7711042,30.0000576 18.1529705,29.7240147 18.2890237,29.3140305 L18.2890504,29.3141126 Z" id="Path" fill="#785891" fill-rule="nonzero"></path>
        <path d="M0,48.4170588 L0,58.9999993 C0,59.5529064 0.447082269,60 1,60 L14.9999867,60 C15.5528928,60 15.9999858,59.552917 15.9999858,58.9999993 L15.9999858,48.9573259 C15.9339432,46.4583909 14.4339605,44.5623362 12.3260157,44.147296 C13.3599881,43.0691619 13.9999876,41.6091609 13.9999876,40.0001958 C13.9999876,36.6912376 11.3089499,34.0001958 8,34.0001958 C4.69103583,34.0001958 2,36.6912376 2,40.0001958 C2,41.5791342 2.61791767,43.0131085 3.61791678,44.0862292 C2.74794422,44.254144 1.94293161,44.6701763 1.30186551,45.3051634 C0.462932922,46.1380706 0,47.2430847 0,48.4172722 L0,48.4170588 Z M7.99999289,35.9999838 C9.84207125,35.9999838 11.3810566,37.2579046 11.8439361,38.9549724 C10.6749772,38.802055 9.57103149,38.2310253 8.74895222,37.327078 C8.36999256,36.9110351 7.6489532,36.9110351 7.2700202,37.327078 C6.44292761,38.2360386 5.33210193,38.809159 4.15503631,38.9581191 C4.61712123,37.2589713 6.15711453,35.9999838 8.00004622,35.9999838 L7.99999289,35.9999838 Z M8.00999288,39.3779061 C9.11393857,40.2889467 10.466044,40.8229204 11.8750028,40.9468671 C11.4470885,42.694975 9.87793789,43.9999892 8.00001956,43.9999892 C6.12210122,43.9999892 4.55500928,42.6960416 4.12604967,40.9489471 C5.54103507,40.827907 6.90103387,40.29396 8.00999288,39.3779061 Z M8.94791205,50.7741804 L8.00001956,52.1973281 L7.05212706,50.7743938 L7.84316636,46.0264972 L8.15816341,46.0294139 L8.94791205,50.7741804 Z M2.00018489,48.4173255 C2.00018489,47.7802584 2.25227,47.180258 2.71122426,46.7252177 C3.1880985,46.2523 3.83911659,46.0162572 4.505196,46.0002039 L5.8181015,46.0102039 L5.01415554,50.8352205 C4.97207238,51.0852206 5.02811393,51.3431355 5.16811274,51.5541543 L7.16811096,54.5541563 C7.35415346,54.8331165 7.66623319,55.0002039 8.00021689,55.0002039 C8.33420059,55.0002039 8.64624298,54.8331165 8.83232282,54.5551963 L10.832321,51.5551943 C10.9733609,51.3441542 11.0283635,51.086234 10.9862782,50.8362605 L10.1883589,46.0452172 L11.4743845,46.0552172 C12.9393965,46.0673005 13.9543823,47.2541514 14.0004089,48.9831126 L14.0002006,58.0001853 L2.00018489,58.0001853 L2.00018489,48.4173255 Z" id="Shape" fill="#785891" fill-rule="nonzero"></path>
        <path d="M43.9999076,48.4170588 L43.9999076,58.9999993 C43.9999076,59.5529064 44.4470432,60 44.99996,60 L58.9999476,60 C59.5528537,60 59.9999467,59.552917 59.9999467,58.9999993 L59.9999467,48.9573259 C59.9339041,46.4583909 58.4339214,44.5623362 56.3259766,44.147296 C57.359949,43.0691619 57.9999484,41.6091609 57.9999484,40.0001958 C57.9999484,36.6912376 55.3089108,34.0001958 51.9999538,34.0001958 C48.6909967,34.0001958 45.9999591,36.6912376 45.9999591,40.0001958 C45.9999591,41.5791342 46.6178786,43.0141752 47.618891,44.0862292 C46.7499318,44.2551894 45.9428392,44.6701763 45.3028397,45.3051634 C44.4628405,46.1380706 43.9999076,47.2430847 43.9999076,48.4172722 L43.9999076,48.4170588 Z M51.9999538,35.9999838 C53.8420321,35.9999838 55.3810174,37.2579046 55.843897,38.9549724 C54.6749381,38.802055 53.5709924,38.2310253 52.7489131,37.327078 C52.3699534,36.9110351 51.6489141,36.9110351 51.2699811,37.327078 C50.4428885,38.2360386 49.3320628,38.809159 48.1549972,38.9581191 C48.6170821,37.2589713 50.1570754,35.9999838 52.0000071,35.9999838 L51.9999538,35.9999838 Z M52.0099538,39.3779061 C53.1138995,40.2889467 54.4660049,40.8229204 55.8749637,40.9468671 C55.4470494,42.694975 53.8778988,43.9999892 51.9999804,43.9999892 C50.1220621,43.9999892 48.5549702,42.6960416 48.1260106,40.9489471 C49.540996,40.827907 50.9009948,40.29396 52.0099538,39.3779061 L52.0099538,39.3779061 Z M52.9478729,50.7741804 L51.9999804,52.1973281 L51.052088,50.7743938 L51.8431273,46.0264972 L52.1581243,46.0294139 L52.9478729,50.7741804 Z M46.0001458,48.4173255 C46.0001458,47.7802584 46.2522309,47.180258 46.7111851,46.7252177 C47.1882674,46.2523 47.8101175,46.0162572 48.5051569,46.0002039 L49.8180624,46.0102039 L49.0141164,50.8352205 C48.9720333,51.0852206 49.0280748,51.3431355 49.1680736,51.5541543 L51.1680719,54.5541563 C51.3541144,54.8331165 51.6661941,55.0002039 52.0001778,55.0002039 C52.3341615,55.0002039 52.6462039,54.8331165 52.8322837,54.5551963 L54.8322819,51.5551943 C54.9733218,51.3441542 55.0283244,51.086234 54.9862391,50.8362605 L54.1883198,46.0452172 L55.4743454,46.0552172 C56.9393574,46.0673005 57.9543432,47.2541514 58.0003698,48.9831126 L58.0001615,58.0001853 L46.0001458,58.0001853 L46.0001458,48.4173255 Z" id="Shape" fill="#785891" fill-rule="nonzero"></path>
        <path d="M39.9999644,43.9999824 C39.9999644,38.4858521 35.5139418,33.9999824 29.9999822,33.9999824 C24.4860049,33.9999824 19.9999822,38.4860121 19.9999822,43.9999824 C19.9999822,49.5139662 24.4860049,53.9999959 29.9999822,53.9999959 C35.5139418,53.9999959 39.9999644,49.5139662 39.9999644,43.9999824 Z M21.9999804,43.9999838 C21.9999804,39.5889462 25.5889373,35.9999838 29.9999804,35.9999838 C34.4110094,35.9999838 37.9999662,39.5889462 37.9999662,43.9999838 C37.9999662,48.4110322 34.4110094,51.9999946 29.9999804,51.9999946 C25.5889373,51.9999946 21.9999804,48.4110322 21.9999804,43.9999838 Z" id="Shape" fill="#5AAAD1" fill-rule="nonzero"></path>
        <path d="M30.999976,49.9999851 L30.999976,48.8160458 C32.1610381,48.4020882 32.999976,47.3020714 32.999976,45.9999851 C32.999976,44.3460161 31.6539452,42.9999851 29.999976,42.9999851 C29.4478672,42.9999851 28.999976,42.5520735 28.999976,41.9999851 C28.999976,41.4479021 29.4478885,40.9999851 29.999976,40.9999851 C30.5520582,40.9999851 30.999976,41.4479021 30.999976,41.9999851 L32.999976,41.9999851 C32.999976,40.697907 32.1610381,39.5979062 30.999976,39.1839326 L30.999976,37.9999851 L28.999976,37.9999851 L28.999976,39.1839326 C27.8389086,39.5978902 26.999976,40.697907 26.999976,41.9999851 C26.999976,43.6539623 28.3460015,44.9999851 29.999976,44.9999851 C30.5520795,44.9999851 30.999976,45.4479048 30.999976,45.9999851 C30.999976,46.5520762 30.5520582,46.9999851 29.999976,46.9999851 C29.4478885,46.9999851 28.999976,46.5520762 28.999976,45.9999851 L26.999976,45.9999851 C26.999976,47.3020714 27.8389086,48.4020722 28.999976,48.8160458 L28.999976,49.9999851 L30.999976,49.9999851 Z" id="Path" fill="#5AAAD1" fill-rule="nonzero"></path>
        <path d="M12.9998658,13.9999689 L46.9999582,13.9999689 C47.4039152,13.9999689 47.7699842,13.7570514 47.9239041,13.3829018 C48.0789013,13.0089443 47.992864,12.5789546 47.7068216,12.2928724 L44.7068243,9.29287241 L43.2928522,10.7068467 L44.585971,11.9999676 L12.9998658,11.9999676 L12.9998658,13.9999689 Z" id="Path" fill="#5AAAD1" fill-rule="nonzero"></path>
        <path d="M47.0000809,15.9999703 L12.9999884,15.9999703 C12.5960315,15.9999703 12.2299625,16.2428878 12.0760426,16.6170374 C11.9210454,16.9909949 12.0070827,17.4209846 12.2931251,17.7070648 L15.2931224,20.7070668 L16.7070945,19.2930925 L15.4139756,17.9999703 L47.0000809,17.9999703 L47.0000809,15.9999703 Z" id="Path" fill="#5AAAD1" fill-rule="nonzero"></path>
    </g>
</svg>