<?xml version="1.0" encoding="UTF-8"?>
<svg width="60px" height="60px" viewBox="0 0 60 60" version="1.1" xmlns="http://www.w3.org/2000/svg" xmlns:xlink="http://www.w3.org/1999/xlink">
    <title></title>
    <g id="icon-/-category-med-meetings-and-conferences" stroke="none" stroke-width="1" fill="none" fill-rule="evenodd">
        <path d="M56.8340026,24.3589919 C58.752951,22.8970924 60,20.5939431 60,17.9999967 C60,13.5890455 56.410953,9.99999667 52,9.99999667 C47.5890603,9.99999667 44.0000133,13.5890455 44.0000133,17.9999967 C44.0000133,20.3900432 45.0590125,22.5329925 46.7260111,23.9999967 L41.4140155,23.9999967 L34.7070211,17.2929942 C34.3160064,16.9019794 33.6839719,16.9019794 33.2929723,17.2929942 L29.2929756,21.2929929 C28.9019609,21.6840078 28.9019609,22.3160426 29.2929756,22.7070424 L38.2929681,31.7070394 C38.4800779,31.8949294 38.7339827,32.0000093 39.0000175,32.0000093 L47.0000108,32.0000093 L47.0000108,39.000007 L29.8680251,39.000007 L34.832071,31.5550095 L33.1680224,30.4460099 L27.4650271,39.000007 L24.9999792,39.000007 L24.9999792,34.0000087 C24.9999792,33.4470589 24.5529095,33.000009 23.99998,33.000009 L15.9999867,33.000009 L15.9999867,29.0000103 C15.9999867,26.892011 14.6839878,25.0929616 12.8339893,24.3590119 C14.7529377,22.8971124 15.9999867,20.5939631 15.9999867,18.000014 C15.9999867,13.5890655 12.4109397,9.99999667 8,9.99999667 C3.58904701,9.99999667 0,13.5890655 0,18.000014 C0,20.5939631 1.24704896,22.8970624 3.16599736,24.3590119 C1.3159989,25.0930116 0,26.892011 0,29.0000103 L0,42.9999967 C0,45.7570547 2.24294813,47.9999967 5,47.9999967 L5,59.9999967 L7,59.9999967 L7,47.9999967 L13.9999883,47.9999967 L13.9999883,58.9999967 C13.9999883,59.5529501 14.447058,59.9999967 14.9999875,59.9999967 L21.9999817,59.9999967 C22.5529312,59.9999967 22.9999808,59.5529301 22.9999808,58.9999967 L22.9999808,43.9999967 C22.9999808,42.8750057 22.6269361,41.8359561 21.9980317,40.9999967 L29.0000258,40.9999967 L29.0000258,57.9999967 L25.0000292,57.9999967 L25.0000292,59.9999967 L35.0000208,59.9999967 L35.0000208,57.9999967 L31.0000242,57.9999967 L31.0000242,40.9999967 L38.0260183,40.9999967 C37.3910688,41.8381061 37.0000192,42.8699057 37.0000192,43.9999967 L37.0000192,58.9999967 C37.0000192,59.5529501 37.4470888,59.9999967 38.0000183,59.9999967 L45.0000125,59.9999967 C45.552962,59.9999967 46.0000117,59.5529301 46.0000117,58.9999967 L46.0000117,47.9999967 L53,47.9999967 L53,59.9999967 L55,59.9999967 L55,47.9999967 C57.7570519,47.9999967 60,45.7570547 60,42.9999967 L60,29.0000103 C60,26.892011 58.6840011,25.0929616 56.8340026,24.3590119 L56.8340026,24.3589919 Z M1.99904833,17.999996 C1.99904833,14.6909951 4.69004609,11.999996 7.99904833,11.999996 C11.3080406,11.999996 13.9990483,14.6909951 13.9990483,17.999996 C13.9990483,21.3089929 11.3080406,23.999996 7.99904833,23.999996 C4.69004609,23.999996 1.99904833,21.3089929 1.99904833,17.999996 Z M22.9990308,38.9999913 L9.99904833,38.9999913 L9.99904833,30.9999913 L7.99904833,30.9999913 L7.99904833,39.9999913 C7.99904833,40.5529365 8.44611296,40.9999913 8.99904833,40.9999913 L17.999035,40.9999913 C19.6529336,40.9999913 20.9990325,42.3460859 20.9990325,43.9999913 L20.9990325,57.9999807 L15.9990367,57.9999807 L15.9990367,46.9999913 C15.9990367,46.4470345 15.551967,45.9999913 14.9990375,45.9999913 L4.99904833,45.9999913 C3.34514721,45.9999913 1.99904833,44.6538851 1.99904833,42.9999913 L1.99904833,28.9999913 C1.99904833,27.3460909 3.34514721,25.9999913 4.99904833,25.9999913 L10.9990483,25.9999913 C12.6529395,25.9999913 13.9990483,27.3460909 13.9990483,28.9999913 L13.9990483,33.9999913 C13.9990483,34.5529385 14.446108,34.9999913 14.9990375,34.9999913 L22.9990308,34.9999913 L22.9990308,38.9999913 Z M45.9990117,17.999996 C45.9990117,14.6909951 48.6900094,11.999996 51.9990117,11.999996 C55.3080039,11.999996 57.9990117,14.6909951 57.9990117,17.999996 C57.9990117,21.3089929 55.3080039,23.999996 51.9990117,23.999996 C48.6900094,23.999996 45.9990117,21.3089929 45.9990117,17.999996 Z M57.9990017,42.9999857 C57.9990017,44.6538851 56.6529028,45.9999847 54.9990042,45.9999847 L44.9990125,45.9999847 C44.446063,45.9999847 43.9990133,46.4470545 43.9990133,46.9999843 L43.9990133,57.9999807 L38.9990175,57.9999807 L38.9990175,43.9999853 C38.9990175,42.3460859 40.3451164,40.9999863 41.999015,40.9999863 L47.99901,40.9999863 C48.5519595,40.9999863 48.9990092,40.5529165 48.9990092,39.9999867 L48.9990092,30.9999897 C48.9990092,30.4470399 48.5519395,29.99999 47.99901,29.99999 L39.4130238,29.99999 L31.4130238,21.9999927 L33.9989717,19.4140435 L40.2919664,25.7070414 C40.4790763,25.8949314 40.7329811,26.0000113 40.9990158,26.0000113 L54.9990042,26.0000113 C56.6529028,26.0000113 57.9990017,27.3461109 57.9990017,29.0000103 L57.9990017,42.9999857 Z" id="Shape" fill="#785891" fill-rule="nonzero"></path>
        <path d="M39.9990167,0 L19.9990358,0 C18.3451347,0 16.9990358,1.34609955 16.9990358,3 L16.9990358,11 C16.9990358,12.6538958 18.3451347,14 19.9990358,14 L20.9990358,14 L20.9990358,20 C20.9990358,20.4038982 21.2420023,20.7698931 21.616032,20.923993 C21.7400569,20.975948 21.8699368,20.999968 21.9990358,20.999968 C22.2590015,20.999968 22.5150412,20.898013 22.7060911,20.7069981 L29.4130855,14 L39.9990767,14 C41.6529753,14 42.9990742,12.6539008 42.9990742,11 L42.9990742,3 C42.9990742,1.34610455 41.6529753,0 39.9990767,0 L39.9990167,0 Z M40.9990158,10.9999963 C40.9990158,11.5519461 40.5509712,11.999996 39.9990167,11.999996 L28.9990258,11.999996 C28.7330111,11.999996 28.4791263,12.105076 28.2919764,12.2929659 L22.9989842,17.5859641 L22.9989842,13.0000193 C22.9989842,12.4470659 22.5519112,12.0000193 21.9989842,12.0000193 L19.9989842,12.0000193 C19.4470338,12.0000193 18.9989842,11.5519711 18.9989842,11.0000193 L18.9989842,3.00001933 C18.9989842,2.44806918 19.4470288,2.00001933 19.9989842,2.00001933 L39.9989667,2.00001933 C40.5509162,2.00001933 40.9990158,2.44806418 40.9990158,3.00001933 L40.9990158,10.9999963 Z" id="Shape" fill="#5AAAD1" fill-rule="nonzero"></path>
        <polygon id="Path" fill="#5AAAD1" fill-rule="nonzero" points="20.9990325 3.99999867 26.9990275 3.99999867 26.9990275 5.999998 20.9990325 5.999998"></polygon>
        <polygon id="Path" fill="#5AAAD1" fill-rule="nonzero" points="20.9990325 7.99999733 38.9990175 7.99999733 38.9990175 9.99999667 20.9990325 9.99999667"></polygon>
        <polygon id="Path" fill="#5AAAD1" fill-rule="nonzero" points="28.9990258 3.99999867 38.9990175 3.99999867 38.9990175 5.999998 28.9990258 5.999998"></polygon>
    </g>
</svg>