<?xml version="1.0" encoding="UTF-8"?>
<svg width="60px" height="60px" viewBox="0 0 60 60" version="1.1" xmlns="http://www.w3.org/2000/svg" xmlns:xlink="http://www.w3.org/1999/xlink">
    <title></title>
    <g id="icon-/-category-med-advertising" stroke="none" stroke-width="1" fill="none" fill-rule="evenodd">
        <path d="M60,37.7419649 C60,34.3365426 57.4713817,31.5174434 54.1935509,31.0451849 L54.1935509,25.1613089 C54.1935509,23.0264425 52.4574484,21.2903378 50.3225848,21.2903378 C48.4471792,21.2903378 46.8812444,22.6316551 46.5280058,24.4044566 L46.4515929,24.4258275 L46.4515929,0 L0,0 L0,36.7742252 L15.4838643,36.7742252 L15.4838643,41.612939 C15.4838643,44.2810703 17.654444,46.4516529 20.3225719,46.4516529 L23.2257965,46.4516529 L23.2257965,47.8327121 C23.2257965,48.0456155 23.1753934,48.2595254 23.0796288,48.4500546 L19.7050238,55.1999959 C19.4757903,55.6596711 19.3548201,56.171558 19.3548201,56.6834552 C19.3548201,58.511689 20.8431291,60 22.6713606,60 L25.4032304,60 C26.8334749,60 28.0973711,59.0883089 28.5493968,57.7326432 L29.5731899,54.6620857 L33.2370851,54.3389009 C34.7011877,54.2100699 35.8064259,53.0032095 35.8064259,51.5322405 C35.8064259,51.2864751 35.7745709,51.0415149 35.7116698,50.8064592 L34.923954,47.8558502 L46.5280781,51.0794401 C46.8810998,52.8522416 48.447045,54.1935589 50.3224506,54.1935589 C52.4573142,54.1935589 54.1934167,52.4574542 54.1934167,50.3225878 L54.1934167,44.4387118 C57.4712475,43.9665359 60,41.1473541 60,37.7419318 L60,37.7419649 Z M23.2258223,42.5806787 L27.0967883,42.5806787 L27.0967883,40.6451932 L23.2258223,40.6451932 L23.2258223,34.8387365 L27.0967883,34.8387365 L27.0967883,32.903251 L23.2258223,32.903251 L23.2258223,30.9677655 L29.0322714,30.9677655 L29.0322714,44.547132 L23.2258223,44.5267691 L23.2258223,42.5806787 Z M30.9677544,44.7484225 L30.9677544,30.7004104 L46.4516187,26.4316583 L46.4516187,49.0500004 L30.9677544,44.7484225 Z M44.5161357,1.93548244 L44.5161357,7.74193905 L1.93550884,7.74193905 L1.93550884,1.93548244 L44.5161357,1.93548244 Z M15.4838901,33.8709938 L15.4838901,34.8387365 L1.93550884,34.8387365 L1.93550884,9.67742458 L44.5161357,9.67742458 L44.5161357,24.9641474 L29.8684001,29.0324864 L20.3225977,29.0324864 C17.6544698,29.0324864 15.4838901,31.2030689 15.4838901,33.8712002 L15.4838901,33.8709938 Z M17.4193732,41.6129359 L17.4193732,33.8709938 C17.4193732,32.270373 18.721979,30.9677655 20.3225977,30.9677655 L21.2903392,30.9677655 L21.2903392,44.5197771 L20.3225977,44.5159465 C18.721979,44.5159465 17.4193732,43.2133389 17.4193732,41.6127182 L17.4193732,41.6129359 Z M26.7133046,57.120046 C26.5256041,57.6851562 25.9991888,58.0646146 25.4030084,58.0646146 L22.6711386,58.0646146 C21.9094357,58.0646146 21.2900812,57.4452592 21.2900812,56.6835553 C21.2900812,56.4706519 21.3404842,56.2567421 21.4362488,56.0662129 L24.8108538,49.3162716 C25.0400873,48.8565963 25.1610576,48.3447095 25.1610576,47.8328122 L25.1610576,46.451753 L29.8681007,46.451753 L30.2358425,46.554375 L26.7133046,57.120046 Z M33.8415596,51.3058475 C33.8609145,51.3794372 33.8705919,51.455845 33.8705919,51.532258 C33.8705919,51.9929449 33.5250282,52.3693684 33.06636,52.410091 L30.2405547,52.6596861 L32.1034701,47.0720684 L32.760502,47.2539214 L33.8415596,51.3058475 Z M52.2575517,50.3225692 C52.2575517,51.389925 51.3894231,52.2580548 50.3220687,52.2580548 C49.2547143,52.2580548 48.3865856,51.389925 48.3865856,50.3225692 L48.3865856,25.1612573 C48.3865856,24.0939015 49.2547143,23.2257717 50.3220687,23.2257717 C51.3894231,23.2257717 52.2575517,24.0939015 52.2575517,25.1612573 L52.2575517,50.3225692 Z M54.1930348,42.4830786 L54.1930348,33.001264 C56.3984532,33.451267 58.0640008,35.4050854 58.0640008,37.7421713 C58.0640008,40.0792572 56.3984532,42.0331169 54.1930348,42.4830786 Z" id="Shape" fill="#785891" fill-rule="nonzero"></path>
        <path d="M36.7767842,30.9677655 L34.8413011,30.9677655 C33.7739468,30.9677655 32.9058181,31.8358953 32.9058181,32.903251 L32.9058181,42.5806787 C32.9058181,43.6480344 33.7739468,44.5161642 34.8413011,44.5161642 L36.7767842,44.5161642 C37.8441386,44.5161642 38.7122672,43.6480344 38.7122672,42.5806787 L38.7122672,32.903251 C38.7122672,31.8358953 37.8441386,30.9677655 36.7767842,30.9677655 Z M34.8413011,42.5806787 L34.8413011,32.903251 L36.7767842,32.903251 L36.7777922,42.5806787 L34.8413011,42.5806787 Z" id="Shape" fill="#5AAAD1" fill-rule="nonzero"></path>
        <polygon id="Path" fill="#785891" fill-rule="nonzero" points="3.87357253 3.87096798 5.80905557 3.87096798 5.80905557 5.80645351 3.87357253 5.80645351"></polygon>
        <polygon id="Path" fill="#5AAAD1" fill-rule="nonzero" points="7.7445386 3.87096798 9.68002164 3.87096798 9.68002164 5.80645351 7.7445386 5.80645351"></polygon>
        <polygon id="Path" fill="#785891" fill-rule="nonzero" points="11.6155047 3.87096798 13.5509877 3.87096798 13.5509877 5.80645351 11.6155047 5.80645351"></polygon>
        <path d="M3.87357253,23.2258233 L15.4864708,23.2258233 L15.4864708,11.6129101 L3.87357253,11.6129101 L3.87357253,23.2258233 Z M5.80905557,13.5483957 L13.5509877,13.5483957 L13.5509877,21.2903378 L5.80905557,21.2903378 L5.80905557,13.5483957 Z" id="Shape" fill="#5AAAD1" fill-rule="nonzero"></path>
        <path d="M29.034852,11.6129101 L17.4219538,11.6129101 L17.4219538,23.2258233 L29.034852,23.2258233 L29.034852,11.6129101 Z M27.099369,21.2903378 L19.3574368,21.2903378 L19.3574368,13.5483957 L27.099369,13.5483957 L27.099369,21.2903378 Z" id="Shape" fill="#5AAAD1" fill-rule="nonzero"></path>
        <path d="M42.5832333,11.6129101 L30.9703351,11.6129101 L30.9703351,23.2258233 L42.5832333,23.2258233 L42.5832333,11.6129101 Z M40.6477503,21.2903378 L32.9058181,21.2903378 L32.9058181,13.5483957 L40.6477503,13.5483957 L40.6477503,21.2903378 Z" id="Shape" fill="#5AAAD1" fill-rule="nonzero"></path>
        <polygon id="Path" fill="#785891" fill-rule="nonzero" points="3.87357253 25.1613089 15.4864708 25.1613089 15.4864708 27.0967944 3.87357253 27.0967944"></polygon>
        <polygon id="Path" fill="#785891" fill-rule="nonzero" points="13.5509877 29.0322799 15.4864708 29.0322799 15.4864708 30.9677655 13.5509877 30.9677655"></polygon>
        <polygon id="Path" fill="#5AAAD1" fill-rule="nonzero" points="3.87357253 29.0322799 11.6155047 29.0322799 11.6155047 30.9677655 3.87357253 30.9677655"></polygon>
    </g>
</svg>