<?xml version="1.0" encoding="UTF-8"?>
<svg width="60px" height="60px" viewBox="0 0 60 60" version="1.1" xmlns="http://www.w3.org/2000/svg" xmlns:xlink="http://www.w3.org/1999/xlink">
    <title></title>
    <g id="icon-/-category-new-medicine-treatment" stroke="none" stroke-width="1" fill="none" fill-rule="evenodd">
        <path d="M19.6960869,45.0762146 L3.36737022,45.0762146 C2.65162336,45.0762146 2.06933766,44.4949604 2.06933766,43.7794011 L2.06933766,39.8045307 L13.8949125,39.8045307 C14.4662189,39.8045307 14.9293882,39.3423325 14.9293882,38.7712022 C14.9293882,38.2000718 14.4662465,37.7378736 13.8949125,37.7378736 L2.06933766,37.7378736 L2.06933766,27.2282337 L17.2935101,27.2282337 C17.8648165,27.2282337 18.3279858,26.7660355 18.3279858,26.1949052 C18.3279858,25.6237914 17.8648441,25.1615766 17.2935101,25.1615766 L2.06933766,25.1615766 L2.06933766,21.4753769 C2.06933766,20.0241979 3.25079171,18.8436132 4.70358183,18.8436132 C7.24000598,18.8961404 9.46840463,16.668002 9.41626705,14.1361542 L9.41626705,12.5538665 L15.7406379,12.5538665 L15.7406379,14.1361542 C15.7406379,16.7315448 17.850527,18.8436132 20.4438335,18.8436132 C21.6981146,18.8287591 22.846631,19.7766399 23.054133,21.0323408 C23.1560744,21.5944164 23.6935769,21.9647062 24.2569386,21.8647902 C24.8191969,21.7618872 25.1918288,21.2239061 25.0899261,20.6628776 C24.7162238,18.4377768 22.6843148,16.7504478 20.4438335,16.776901 C18.9910434,16.776901 17.8095893,15.5922381 17.8095893,14.1360991 L17.8095893,12.5538113 L18.8733614,12.5538113 C19.4446679,12.5538113 19.9078371,12.0916131 19.9078371,11.5204828 L19.9078371,7.91805159 C19.9078371,6.44471801 18.7082867,5.24688358 17.2337036,5.24688358 L7.92066342,5.24688358 C6.44630103,5.24688358 5.24652987,6.44466289 5.24652987,7.91805159 L5.24652987,11.5204828 C5.24652987,12.0915966 5.70967155,12.5538113 6.2810056,12.5538113 L7.3467087,12.5538113 L7.3467087,14.1360991 C7.37580313,15.5588409 6.12691009,16.8055587 4.70297494,16.776901 C2.10988911,16.7766857 1.77635684e-15,18.8846708 1.77635684e-15,21.4751014 L1.77635684e-15,38.7710919 L1.77635684e-15,43.7792908 C1.77635684e-15,45.6341018 1.51033457,47.142541 3.36698402,47.142541 L19.6951489,47.142541 C21.0416777,47.1304855 21.0548638,45.086851 19.6953644,45.0761044 L19.6960869,45.0762146 Z M7.31603305,7.91772092 C7.31603305,7.58468603 7.58736914,7.31320996 7.92121514,7.31320996 L17.2342553,7.31320996 C17.5680903,7.31320996 17.8394374,7.58467501 17.8394374,7.91772092 L17.8394374,10.4868236 C16.3377097,10.4825181 8.81825732,10.4825181 7.31647443,10.4868236 L7.31603305,7.91772092 Z" id="Shape" fill="#5AAAD1" fill-rule="nonzero"></path>
        <path d="M30.3547731,35.182714 C30.3558506,35.1756096 30.3562816,35.1695822 30.3573593,35.1624778 C30.7551993,32.2990832 27.1858498,30.306936 24.9545822,32.1555194 C24.9545822,32.1553041 22.7669005,33.8749229 22.7669005,33.8749229 C21.3335309,34.9745498 21.0690913,37.1518695 22.2102146,38.5703126 C22.2128008,38.5744028 22.2151715,38.577417 22.2184043,38.5804304 C23.3677483,40.0256024 25.4808925,40.2587213 26.9185655,39.1304643 C28.0836335,38.1373667 30.2810254,36.9258097 30.3547353,35.1827085 L30.3547731,35.182714 Z M25.6384465,37.5068489 C25.0856227,37.9378324 24.2839178,37.8472026 23.8442518,37.3021231 C23.4535234,36.7060441 23.4142961,36.0511618 24.0502862,35.4957547 L26.2319542,33.7813111 C27.0849691,33.1005818 28.4524081,33.8267346 28.3000229,34.9324115 C28.2228703,35.2551131 28.095285,35.5793027 27.8170524,35.7844804 C27.8170524,35.7842652 25.6384189,37.5069151 25.6384189,37.5069151 L25.6384465,37.5068489 Z" id="Shape" fill="#5AAAD1" fill-rule="nonzero"></path>
        <path d="M35.3180497,44.2010542 C37.4309733,41.7167671 35.0100794,37.9476256 31.8663766,38.8152357 C30.931045,38.9939161 29.2606012,40.6003314 28.4997788,41.13656 C27.0629334,42.2424144 26.8142178,44.4208363 27.9411619,45.8248404 C27.9437481,45.8278543 27.9461188,45.8319448 27.948705,45.8349582 C29.1008627,47.2828857 31.2180897,47.5156189 32.6594592,46.3849921 C33.0415697,46.0562669 35.0426154,44.5779623 35.3180894,44.2010041 L35.3180497,44.2010542 Z M29.5751922,44.5564751 C29.1708859,44.0064413 29.2120498,43.1915997 29.7838087,42.757216 L31.9628835,41.0345609 C32.8165605,40.3439668 34.2072821,41.0929012 34.0303453,42.2011474 C33.9960785,42.5270785 33.8243109,42.827813 33.5469445,43.0497444 L31.3799523,44.761212 C30.8226044,45.1954249 30.016596,45.1019954 29.5752197,44.5564862 L29.5751922,44.5564751 Z" id="Shape" fill="#785891" fill-rule="nonzero"></path>
        <path d="M37.2093472,34.2634649 C36.5153933,34.8274694 36.0744583,35.6177591 35.9643349,36.5058154 C35.8714473,37.3837313 36.1188608,38.2525539 36.6725232,38.9670661 C37.830474,40.4087661 39.9393148,40.6483881 41.3675534,39.5048268 L43.5446972,37.7933592 C46.9575844,34.9865634 42.9272669,29.8810939 39.4056909,32.5380433 L37.2231402,34.2524868 C37.2183989,34.2563619 37.2138729,34.2593757 37.2093472,34.263466 L37.2093472,34.2634649 Z M41.1023966,33.9470074 C42.4258635,33.516024 43.3791259,35.3241174 42.2711611,36.1647784 L40.081107,37.8863313 C39.5356376,38.3222691 38.7308817,38.2264699 38.2975053,37.6876291 C37.8520352,37.1257739 37.9488015,36.3143768 38.5093549,35.8715611 C38.7929723,35.6885765 40.7977256,33.9661584 41.1024407,33.9469798 L41.1023966,33.9470074 Z" id="Shape" fill="#5AAAD1" fill-rule="nonzero"></path>
        <path d="M38.2763744,16.9101591 L42.0728728,16.9101591 L42.0728728,20.7024472 C42.0728728,21.273561 42.5360144,21.7357757 43.1073485,21.7357757 L47.9282261,21.7357757 C48.4995325,21.7357757 48.9627018,21.2735775 48.9627018,20.7024472 L48.9627018,16.9101591 L52.7590346,16.9101591 C53.3303411,16.9101591 53.7935104,16.4479609 53.7935104,15.8768305 L53.7935104,11.0612992 C53.7935104,10.4901854 53.3303687,10.0279707 52.7590346,10.0279707 L48.9625363,10.0279707 L48.9625363,6.23584787 C48.9625363,5.66473408 48.4993946,5.20251934 47.9280606,5.20251934 L43.107183,5.20251934 C42.5358765,5.20251934 42.0727072,5.66471755 42.0727072,6.23584787 L42.0727072,10.028136 L38.2763744,10.0279207 C37.7050679,10.0279207 37.2418987,10.4901189 37.2418987,11.0612492 L37.2418987,15.8767806 C37.2418987,16.4478944 37.7050404,16.9101091 38.2763744,16.9101091 L38.2763744,16.9101591 Z M39.3108501,12.0946277 C45.0189493,12.0302582 44.0720316,12.9529241 44.1418242,7.26901106 L46.8937503,7.26901106 C46.9579761,12.9713312 46.034501,12.0251329 51.7245589,12.0946277 L51.7245589,14.843502 C46.0164598,14.9078715 46.9633775,13.9852056 46.8935848,19.6691187 L44.1416587,19.6691187 C44.0774329,13.9673496 45.000908,14.9132172 39.3108501,14.843502 L39.3108501,12.0946277 Z" id="Shape" fill="#5AAAD1" fill-rule="nonzero"></path>
        <path d="M56.1355634,42.3394095 L44.7132962,27.8876902 C52.9571022,28.4480573 60.0296059,21.697639 59.9999068,13.4690373 C59.9999068,5.49174111 53.5033054,-0.997562011 45.5171528,-0.997562011 C35.6700473,-1.18313128 28.3663728,9.25967023 31.9233141,18.4141343 L15.8180442,31.1133285 C14.3900264,32.2394637 14.1775588,34.3676796 15.3473605,35.8612388 L34.1681982,59.674088 C34.8643038,60.5429657 35.8849865,61 36.8983314,61 C37.6060783,61 38.3101838,60.7769719 38.8961661,60.3147516 L55.6657073,47.0870443 C57.0911321,45.959862 57.3032134,43.8316462 56.1389786,42.3432122 C56.1374699,42.3421358 56.1363924,42.3410595 56.1353148,42.3391219 L56.1355634,42.3394095 Z M45.5171528,1.06909503 C52.3617959,1.06909503 57.9308616,6.63143358 57.9308616,13.4690373 C58.0222375,21.2606099 50.4947741,27.3051684 42.900343,25.5945275 L37.3174844,18.5309693 C36.4793659,17.4752658 35.0054449,16.9426745 33.7114951,17.3159403 C31.0313478,9.51279439 37.2319677,0.926523253 45.517208,1.06926037 L45.5171528,1.06909503 Z M54.3832995,45.4658483 L37.6143099,58.6924534 C37.0783246,59.1152584 36.2580709,58.9759712 35.7878396,58.3876243 L16.9736226,34.5835929 C16.5068175,33.9872934 16.5634957,33.1587017 17.0999169,32.7358912 L33.8689064,19.5081839 C34.2641644,19.2108884 34.8258103,19.199475 35.2516281,19.442095 C35.415638,19.5421984 35.5692976,19.6534947 35.6949464,19.8119384 L41.4979415,27.1593176 C41.5145361,27.1662064 54.4964739,43.6054988 54.5102669,43.6176232 C54.9755658,44.2139226 54.9180213,45.0425143 54.3831119,45.4653248 L54.3832995,45.4658483 Z" id="Shape" fill="#785891" fill-rule="nonzero"></path>
        <path d="M50.4986362,41.8461674 C50.1865721,39.3881131 46.9904669,38.2340367 45.1322727,39.7945556 L42.9698046,41.5129121 C39.5394279,44.3155746 43.5781867,49.4169108 47.1113489,46.7662992 L49.2949478,45.0408334 C50.2102519,44.289948 50.7507724,43.0172179 50.498581,41.8461123 L50.4986362,41.8461674 Z M48.4818223,42.5834955 C48.4475555,42.9094266 48.2796664,43.20713 48.0104876,43.4200783 L45.8309714,45.1427334 C44.9643841,45.8884384 43.5620213,45.0112003 43.7639509,43.977249 C43.7982177,43.6513179 43.9665371,43.3555435 44.2477821,43.1376903 L46.4141674,41.4171845 C47.2624375,40.7035541 48.6533798,41.4684205 48.4835602,42.5654743 C48.4833447,42.5715023 48.4829137,42.5775298 48.4818361,42.5835572 L48.4818223,42.5834955 Z" id="Shape" fill="#785891" fill-rule="nonzero"></path>
        <path d="M30.9346312,31.6925436 C30.9354932,31.6936199 30.9367863,31.694481 30.9376484,31.6957727 C30.9387259,31.6970644 30.939157,31.6985713 30.9402346,31.6996477 C32.0393719,33.1118633 34.2386949,33.4087455 35.6367544,32.2505413 C36.7986224,31.2667023 39.0227176,30.0463276 39.0649794,28.3008566 L39.0649794,28.2987038 C39.4561381,25.403896 35.9251386,23.4231016 33.6626437,25.2856832 C33.2891565,25.6064449 31.2956528,27.0853833 31.0206202,27.4464145 C29.9878548,28.602034 29.9398,30.5035789 30.9346291,31.6925405 L30.9346312,31.6925436 Z M34.9471281,26.9054494 C35.7960602,26.2195948 37.1880508,26.9551781 37.0096244,28.0649267 C36.9753576,28.3938723 36.8029444,28.7025593 36.5404469,28.9105476 L34.3538135,30.6291245 C33.8156709,31.0715159 32.9751746,30.9679681 32.551674,30.404162 C32.1102977,29.8859932 32.2296955,29.0249027 32.773438,28.6220974 C32.7732225,28.6218822 34.947106,26.9055045 34.947106,26.9055045 L34.9471281,26.9054494 Z" id="Shape" fill="#785891" fill-rule="nonzero"></path>
        <path d="M38.8898875,45.9767259 C37.171775,45.6296984 35.4884209,47.4834567 34.2489811,48.3854561 C32.808715,49.4510795 32.5375444,51.6959651 33.6862815,53.0838769 C34.7664396,54.5203964 36.9978728,54.7884556 38.3884288,53.640772 C39.5636484,52.6475091 41.756737,51.4466987 41.8271917,49.6880562 C42.060597,47.9096289 40.6787305,46.1506007 38.8899427,45.9766708 L38.8898875,45.9767259 Z M37.1051824,52.01908 C35.7965568,53.0543374 34.2062779,51.0406419 35.5222414,50.0139818 L37.7093162,48.2954049 C38.5513519,47.581554 39.9216046,48.3548199 39.7720332,49.4417658 C39.695311,49.7648973 39.5705284,50.0964277 39.2918654,50.3005031 L37.105232,52.01908 L37.1051824,52.01908 Z" id="Shape" fill="#5AAAD1" fill-rule="nonzero"></path>
        <rect id="Rectangle" fill="#5AAAD1" x="3" y="49" width="2" height="8" rx="1"></rect>
        <rect id="Rectangle-Copy-5" fill="#785891" x="22" y="54" width="2" height="6" rx="1"></rect>
        <rect id="Rectangle-Copy" fill="#785891" x="55" y="27" width="2" height="8" rx="1"></rect>
        <rect id="Rectangle-Copy-3" fill="#785891" x="25" y="1" width="2" height="8" rx="1"></rect>
        <rect id="Rectangle" fill="#5AAAD1" transform="translate(4.000000, 53.000000) rotate(-270.000000) translate(-4.000000, -53.000000) " x="3" y="49" width="2" height="8" rx="1"></rect>
        <rect id="Rectangle-Copy-6" fill="#785891" transform="translate(23.000000, 57.000000) rotate(-270.000000) translate(-23.000000, -57.000000) " x="22" y="54" width="2" height="6" rx="1"></rect>
        <rect id="Rectangle-Copy-2" fill="#785891" transform="translate(56.000000, 31.000000) rotate(-270.000000) translate(-56.000000, -31.000000) " x="55" y="27" width="2" height="8" rx="1"></rect>
        <rect id="Rectangle-Copy-4" fill="#785891" transform="translate(26.000000, 5.000000) rotate(-270.000000) translate(-26.000000, -5.000000) " x="25" y="1" width="2" height="8" rx="1"></rect>
    </g>
</svg>