<?xml version="1.0" encoding="UTF-8"?>
<svg width="60px" height="60px" version="1.1" viewBox="0 0 1200 1200" xmlns="http://www.w3.org/2000/svg">
 <g fill-rule="evenodd">
  <path d="m599.97 269.38c-25.902 0-47.172 21.352-47.172 47.25 0 20.375 13.195 37.871 31.426 44.434v66.48c-35.926 3.2617-68.723 17.551-94.973 39.453l-47.109-47.109c8.2773-17.531 5.2773-39.25-9.1328-53.66-18.312-18.312-48.488-18.312-66.805 0-18.312 18.316-18.312 48.508 0 66.82 14.422 14.422 36.168 17.414 53.707 9.1172l47.078 47.078c-21.902 26.266-36.176 59.094-39.438 95.035h-66.527c-6.543-18.254-24.008-31.488-44.387-31.488-25.898 0-47.25 21.332-47.25 47.23 0 25.902 21.352 47.188 47.25 47.188 20.375 0 37.84-13.195 44.387-31.426h66.527c3.2617 35.93 17.527 68.734 39.422 94.984l-47.094 47.094c-17.539-8.2578-39.27-5.2422-53.676 9.1641-18.312 18.316-18.266 48.461 0.046875 66.773 18.312 18.316 48.414 18.316 66.73 0 14.418-14.418 17.453-36.148 9.1758-53.688l47.078-47.078c26.254 21.895 59.059 36.16 94.988 39.422v66.543c-18.23 6.5586-31.426 24.055-31.426 44.434 0 25.898 21.27 47.184 47.172 47.184 25.898 0 47.246-21.285 47.246-47.184 0-20.379-13.234-37.875-31.488-44.434v-66.543c35.941-3.2617 68.77-17.535 95.031-39.438l47.082 47.078c-8.3008 17.539-5.3047 39.27 9.1172 53.688 18.312 18.316 48.504 18.316 66.816 0 18.309-18.312 18.312-48.477 0-66.789-14.406-14.406-36.125-17.402-53.656-9.1328l-47.109-47.105c21.902-26.25 36.191-59.047 39.453-94.973h66.48c6.5625 18.23 24.059 31.426 44.434 31.426 25.898 0 47.246-21.285 47.246-47.188 0-25.898-21.348-47.23-47.246-47.23-20.379 0-37.875 13.234-44.434 31.488h-66.48c-3.2656-35.938-17.559-68.754-39.469-95.02l47.078-47.078c17.539 8.2812 39.285 5.25 53.703-9.1641 18.316-18.312 18.344-48.457 0.03125-66.773v-0.015625c-18.312-18.312-48.488-18.312-66.805 0-14.406 14.41-17.441 36.164-9.1758 53.707l-47.078 47.078c-26.266-21.91-59.082-36.207-95.02-39.469v-66.48c18.254-6.5586 31.488-24.055 31.488-44.434 0-25.898-21.348-47.25-47.246-47.25zm0 31.488c8.8789 0 15.758 6.8789 15.758 15.762s-6.8789 15.742-15.758 15.742c-8.8828 0-15.746-6.8594-15.746-15.742s6.8633-15.762 15.746-15.762zm200.43 82.918c4 0 8.0078 1.5664 11.148 4.707v0.015625c6.2812 6.2773 6.2344 15.949-0.046875 22.23s-15.953 6.3242-22.23 0.03125c-6.2812-6.2812-6.2812-15.996 0-22.277 3.1406-3.1406 7.1328-4.707 11.129-4.707zm-400.78 0.015625c4 0 7.9922 1.5664 11.133 4.707 6.2812 6.2773 6.2812 15.98 0 22.262s-15.996 6.2812-22.277 0-6.2812-15.984 0-22.262c3.1406-3.1406 7.1484-4.707 11.145-4.707zm200.36 74.492c78.441 0 141.74 63.285 141.74 141.73 0 78.445-63.301 141.68-141.74 141.68-78.445 0-141.67-63.238-141.67-141.68 0-78.441 63.223-141.73 141.67-141.73zm-283.33 125.98c8.8789 0 15.68 6.8633 15.68 15.742 0 8.8828-6.8008 15.762-15.68 15.762-8.8828 0-15.762-6.8789-15.762-15.762 0-8.8789 6.8789-15.742 15.762-15.742zm566.74 0c8.8828 0 15.746 6.8633 15.746 15.742 0 8.8828-6.8633 15.762-15.746 15.762-8.8828 0-15.742-6.8789-15.742-15.762 0-8.8789 6.8594-15.742 15.742-15.742zm-83.008 200.27c3.9961 0 7.9883 1.5664 11.129 4.707 6.2812 6.2812 6.2812 15.996 0 22.277s-15.98 6.2812-22.262 0-6.2812-15.996 0-22.277c3.1406-3.1406 7.1328-4.707 11.133-4.707zm-400.75 0.03125c4 0 7.9922 1.5664 11.133 4.707v0.015625c6.2812 6.2773 6.2344 15.949-0.046875 22.23s-15.949 6.3242-22.23 0.03125c-6.2812-6.2812-6.2812-16 0-22.277 3.1406-3.1406 7.1484-4.707 11.145-4.707zm200.36 83.102c8.8789 0 15.758 6.8633 15.758 15.746 0 8.8828-6.8789 15.699-15.758 15.699-8.8828 0-15.746-6.8164-15.746-15.699 0-8.8828 6.8633-15.746 15.746-15.746z"/>
  <path d="m599.97 489.79c-34.594 0-62.93 28.398-62.93 62.992 0 11.691 3.293 22.637 8.918 32.059-22.703 3.3555-40.406 23.047-40.406 46.617v31.504c-0.47656 21.461 31.965 21.461 31.488 0v-31.504c0-8.9961 6.7656-15.684 15.758-15.684h94.418c8.9961 0 15.742 6.6875 15.742 15.684v31.504c0 21.004 31.504 21.004 31.504 0v-31.504c0-23.578-17.719-43.285-40.438-46.633 5.6289-9.418 8.9336-20.352 8.9336-32.043 0-34.594-28.395-62.992-62.988-62.992zm0 31.488c17.578 0 31.504 13.926 31.504 31.504s-13.926 31.488-31.504 31.488-31.426-13.91-31.426-31.488c-0.003906-17.578 13.848-31.504 31.426-31.504z"/>
 </g>
</svg>
