<?xml version="1.0" encoding="UTF-8"?>
<svg width="60px" height="60px" viewBox="0 0 60 60" version="1.1" xmlns="http://www.w3.org/2000/svg" xmlns:xlink="http://www.w3.org/1999/xlink">
    <title></title>
    <g id="icon-/-category-professional-journal" stroke="none" stroke-width="1" fill="none" fill-rule="evenodd">
        <path d="M57.0970198,39.6774194 L56.1292737,39.6774194 L56.1292737,12.5806452 L52.2582893,12.5806452 L52.2582893,8.70967742 L30.9678751,8.70967742 L30.9678751,2.90322581 C30.9678751,1.30260645 29.6652631,0 28.0646368,0 L2.90323829,0 C1.30261205,0 0,1.30260645 0,2.90322581 L0,18.3870968 C0,19.9877161 1.30261205,21.2903226 2.90323829,21.2903226 L3.87098439,21.2903226 L3.87098439,51.2903226 L25.2589474,51.2903226 C25.7079402,53.4957419 27.6638093,55.1612903 29.999871,55.1612903 C32.3359326,55.1612903 34.291812,53.4957419 34.7407946,51.2903226 L36.7740937,51.2903226 L36.7740937,57.0967742 C36.7740937,58.6973935 38.0767057,60 39.6773319,60 L57.0967617,60 C58.6973879,60 60,58.6973935 60,57.0967742 L60,42.5806452 C60,40.9800258 58.6973879,39.6774194 57.0967617,39.6774194 L57.0970198,39.6774194 Z M54.1937815,14.516129 L54.1937815,39.6774194 L52.2582893,39.6774194 L52.2582893,14.516129 L54.1937815,14.516129 Z M50.3227971,10.6451613 L50.3227971,39.6774194 L48.3873049,39.6774194 L48.3873049,28.0645161 L32.9033673,28.0645161 L32.9033673,43.5483871 L36.7743517,43.5483871 L36.7743517,45.483871 L30.9678751,45.483871 L30.9678751,10.6451613 L50.3227971,10.6451613 Z M36.952417,41.6130065 L34.8389111,41.6130065 L34.8389111,30 L46.4518643,30 L46.4518643,38.3091613 L44.6335339,36.4898065 C44.1980482,36.0561394 43.5960069,35.8065548 42.981501,35.8065548 C41.6933922,35.8065548 40.6453877,36.8545548 40.6453877,38.1426581 L40.6453877,39.6775226 L39.6776416,39.6775226 C38.4175588,39.6775226 37.3530381,40.4893935 36.952417,41.6130065 L36.952417,41.6130065 Z M29.0323829,45.483871 L9.67746098,45.483871 L9.67746098,21.2903226 L11.6129532,21.2903226 L11.6129532,31.9354839 L27.0968907,31.9354839 L27.0968907,21.2903226 L28.0646368,21.2903226 C28.405366,21.2903226 28.7285365,21.2205626 29.0323829,21.1122994 L29.0323829,45.483871 Z M13.5484454,21.2903226 L16.0510626,21.2903226 L19.2377602,24.4780387 C19.6732459,24.9117058 20.2752872,25.1612903 20.8897931,25.1612903 C22.1779018,25.1612903 23.2259063,24.1132903 23.2259063,22.8251871 L23.2259063,21.2903226 L25.1613985,21.2903226 L25.1613985,30 L13.5484454,30 L13.5484454,21.2903226 Z M1.9354922,18.3870968 L1.9354922,2.90322581 C1.9354922,2.36892903 2.36997148,1.93548387 2.90323829,1.93548387 L28.0646368,1.93548387 C28.5979036,1.93548387 29.0323829,2.36894968 29.0323829,2.90322581 L29.0323829,18.3870968 C29.0323829,18.9213935 28.5979036,19.3548387 28.0646368,19.3548387 L21.2904142,19.3548387 L21.2904142,22.8251871 C21.2904142,23.1513961 20.8375916,23.3401084 20.6061273,23.1086555 L16.8523047,19.354849 L2.90334152,19.354849 C2.37007471,19.354849 1.9354922,18.9213832 1.9354922,18.3871071 L1.9354922,18.3870968 Z M32.9033673,49.3548387 L32.9033673,50.3225806 C32.9033673,51.9232 31.6007553,53.2258065 30.000129,53.2258065 C28.3995028,53.2258065 27.0968907,51.9232 27.0968907,50.3225806 L27.0968907,49.3548387 L5.80647659,49.3548387 L5.80647659,21.2903226 L7.74196878,21.2903226 L7.74196878,47.4193548 L36.7743517,47.4193548 L36.7743517,49.3548387 L32.9033673,49.3548387 Z M58.0647659,57.0967742 C58.0647659,57.631071 57.6302866,58.0645161 57.0970198,58.0645161 L39.67759,58.0645161 C39.1443232,58.0645161 38.7098439,57.6310503 38.7098439,57.0967742 L38.7098439,42.5806452 C38.7098439,42.0463484 39.1443232,41.6129032 39.67759,41.6129032 L42.5808283,41.6129032 L42.5808283,38.1425548 C42.5808283,37.8163458 43.0336509,37.6276335 43.2651151,37.8590865 L47.0189377,41.6128929 L57.0969165,41.6128929 C57.6301834,41.6128929 58.0647659,42.0463587 58.0647659,42.5806348 L58.0647659,57.0967742 Z" id="Shape" fill="#785891" fill-rule="nonzero"></path>
        <path d="M40.6453361,51.1612903 L42.5808283,51.4381058 L42.5808283,53.225409 C42.5808283,54.8260284 43.8834404,56.1286348 45.4840666,56.1286348 L47.4195588,56.1286348 C49.020185,56.1286348 50.3227971,54.8260284 50.3227971,53.225409 L50.3227971,52.5441703 L56.1292737,53.3735897 L56.1292737,43.3999123 L40.6453361,45.6121961 L40.6453361,51.1612903 Z M48.3873049,53.2253935 C48.3873049,53.7596903 47.9528256,54.1931355 47.4195588,54.1931355 L45.4840666,54.1931355 C44.9507998,54.1931355 44.5163205,53.7596697 44.5163205,53.2253935 L44.5163205,51.7146839 L48.3873049,52.2683355 L48.3873049,53.2253935 Z M42.5808283,47.2904258 L54.1937815,45.6317419 L54.1937815,51.1409032 L42.5808283,49.4822194 L42.5808283,47.2904258 Z" id="Shape" fill="#5AAAD1" fill-rule="nonzero"></path>
        <polygon id="Path" fill="#785891" fill-rule="nonzero" points="11.6129532 33.8709677 13.5484454 33.8709677 13.5484454 35.8064516 11.6129532 35.8064516"></polygon>
        <polygon id="Path" fill="#785891" fill-rule="nonzero" points="15.4839376 33.8709677 27.0968907 33.8709677 27.0968907 35.8064516 15.4839376 35.8064516"></polygon>
        <polygon id="Path" fill="#5AAAD1" fill-rule="nonzero" points="11.6129532 37.7419355 27.0968907 37.7419355 27.0968907 39.6774194 11.6129532 39.6774194"></polygon>
        <polygon id="Path" fill="#785891" fill-rule="nonzero" points="11.6129532 41.6129032 27.0968907 41.6129032 27.0968907 43.5483871 11.6129532 43.5483871"></polygon>
        <polygon id="Path" fill="#785891" fill-rule="nonzero" points="32.9033673 12.5806452 48.3873049 12.5806452 48.3873049 14.516129 32.9033673 14.516129"></polygon>
        <polygon id="Path" fill="#5AAAD1" fill-rule="nonzero" points="36.952417 16.4516129 48.3873049 16.4516129 48.3873049 18.3870968 36.952417 18.3870968"></polygon>
        <polygon id="Path" fill="#5AAAD1" fill-rule="nonzero" points="32.9033673 16.4516129 35.0168732 16.4516129 35.0168732 18.3870968 32.9033673 18.3870968"></polygon>
        <polygon id="Path" fill="#785891" fill-rule="nonzero" points="32.9033673 20.3225806 48.3873049 20.3225806 48.3873049 22.2580645 32.9033673 22.2580645"></polygon>
        <polygon id="Path" fill="#5AAAD1" fill-rule="nonzero" points="32.9033673 24.1935484 44.6025144 24.1935484 44.6025144 26.1290323 32.9033673 26.1290323"></polygon>
        <polygon id="Path" fill="#5AAAD1" fill-rule="nonzero" points="46.5380066 24.1935484 48.3874081 24.1935484 48.3874081 26.1290323 46.5380066 26.1290323"></polygon>
        <path d="M8.9375,13.6219 L12.3781,13.6219 L12.3781,17.0625 C12.3781,17.58065 12.797825,18 13.3156,18 L17.68455,18 C18.2023,18 18.62205,17.580665 18.62205,17.0625 L18.62205,13.6219 L22.0625,13.6219 C22.58025,13.6219 23,13.202565 23,12.6844 L23,8.31545 C23,7.7973 22.580275,7.37795 22.0625,7.37795 L18.6219,7.37795 L18.6219,3.9375 C18.6219,3.41935 18.202175,3 17.6844,3 L13.31545,3 C12.7977,3 12.37795,3.419335 12.37795,3.9375 L12.37795,7.3781 L8.9375,7.3779047 C8.41975,7.3779047 8,7.7972397 8,8.3154047 L8,12.6843547 C8,13.2025047 8.419725,13.6218547 8.9375,13.6218547 L8.9375,13.6219 Z M9.875,9.25295 C15.048,9.19455 14.18985,10.03165 14.2531,4.87485 L16.74705,4.87485 C16.805255,10.04835 15.96835,9.1899 21.125,9.25295 L21.125,11.7469 C15.952,11.8053 16.81015,10.9682 16.7469,16.125 L14.25295,16.125 C14.194745,10.952 15.03165,11.81015 9.875,11.7469 L9.875,9.25295 Z" id="Shape" fill="#5AAAD1" fill-rule="nonzero"></path>
    </g>
</svg>