<?xml version="1.0" encoding="UTF-8"?>
<svg width="60px" height="60px" viewBox="0 0 60 60" version="1.1" xmlns="http://www.w3.org/2000/svg" xmlns:xlink="http://www.w3.org/1999/xlink">
    <title></title>
    <g id="icon-/-category-sales-rep-interaction" stroke="none" stroke-width="1" fill="none" fill-rule="evenodd">
        <path d="M21.722476,50.2043469 C23.4959555,50.2043469 24.9385222,51.6525643 24.9385222,53.4329908 C24.9385222,55.2134173 23.4959555,56.6616347 21.722476,56.6616347 C19.9492056,56.6616347 18.505817,55.2134173 18.5064296,53.4329908 C18.5064296,51.6525643 19.9489965,50.2043469 21.722476,50.2043469 Z M21.722476,52.0791128 C20.9787065,52.0791128 20.3740849,52.6860979 20.3738806,53.4329908 C20.3738806,54.1798838 20.979334,54.7868688 21.722476,54.7868688 C22.4658272,54.7868688 23.0710714,54.1798838 23.0710714,53.4329908 C23.0710714,52.6860979 22.4664547,52.0791128 21.722476,52.0791128 Z" id="Combined-Shape" fill="#5AAAD1" fill-rule="nonzero"></path>
        <path d="M42.4630978,50.2043469 C44.2365773,50.2043469 45.679144,51.6525643 45.679144,53.4329908 C45.679144,55.2134173 44.2365773,56.6616347 42.4630978,56.6616347 C40.6898275,56.6616347 39.2470516,55.2134173 39.2470516,53.4329908 C39.2470516,51.6525643 40.6896183,50.2043469 42.4630978,50.2043469 Z M42.4630978,52.0791128 C41.7193283,52.0791128 41.1147067,52.6860979 41.1145024,53.4329908 C41.1145024,54.1798838 41.7191191,54.7868688 42.4630978,54.7868688 C43.206449,54.7868688 43.8116932,54.1798838 43.8116932,53.4329908 C43.8116932,52.6860979 43.2070765,52.0791128 42.4630978,52.0791128 Z" id="Combined-Shape" fill="#5AAAD1" fill-rule="nonzero"></path>
        <path d="M51.0067991,29.3352852 C51.0178298,29.4244903 51.0243665,29.5294868 51.027022,29.647608 C51.0519429,30.6856563 50.5798713,31.4587984 49.8706573,31.9995832 C49.2784864,32.4511523 48.5234738,32.7214344 47.7827896,32.8336233 L47.7827896,33.4871743 C47.7827896,33.9543249 47.4057069,34.333079 46.9401855,34.333079 C46.4748576,34.333079 46.0975814,33.9545192 46.0975814,33.4871743 L46.0975814,32.8178213 C45.4876308,32.710772 44.9052388,32.4897071 44.4033787,32.1544006 C43.6724734,31.6655104 43.1123584,30.9442628 42.8749985,29.9908942 C42.763875,29.5387108 43.0396392,29.0814141 43.4900739,28.9698552 C43.9405086,28.8582964 44.3960054,29.1351408 44.5071289,29.5873399 C44.6333705,30.0953027 44.9352814,30.482488 45.3307505,30.7468168 C45.8118083,31.0683688 46.4277099,31.2219682 47.0519366,31.206791 C47.1577471,31.2041251 47.2833769,31.1942817 47.426572,31.1772607 C47.953376,31.1128663 48.4810168,30.9442996 48.8560653,30.658226 C49.1567525,30.4291603 49.3573449,30.1082016 49.3475399,29.6876379 C49.3469271,29.6548265 49.342229,29.6035567 49.3338537,29.5334242 C49.2697105,29.0051866 48.971068,28.6528706 48.5729319,28.4112736 C48.0767561,28.110637 47.4245158,27.9512995 46.8133624,27.850802 C46.0544801,27.7255044 45.2314861,27.4984913 44.5620778,27.059443 C43.7946194,26.5561998 43.2428713,25.812609 43.1893752,24.7035829 C43.1358581,23.5999117 43.6097673,22.7140033 44.3567738,22.1042883 C44.8431446,21.7072701 45.4477717,21.4343054 46.0910332,21.3043196 L46.0963442,21.3030892 L46.0963442,20.6218191 C46.0963442,20.1546684 46.4734269,19.7759144 46.9389483,19.7759144 C47.4042762,19.7759144 47.7815524,20.1544742 47.7815524,20.6218191 L47.7815524,21.2899646 C47.8665292,21.3063703 47.951506,21.3248266 48.0352592,21.3463583 C49.1497369,21.6297649 50.1641772,22.3661897 50.6968904,23.6392729 C50.8766491,24.0697168 50.6746249,24.565185 50.2458595,24.7456216 C49.8170952,24.9260844 49.3235602,24.7232688 49.1438277,24.2928239 C48.8398721,23.5656178 48.2620035,23.1456316 47.6273181,22.9842519 C47.2279688,22.8825365 46.8096057,22.8765885 46.4206994,22.9553369 C46.041572,23.0320317 45.6912583,23.1876838 45.4167178,23.4114157 C45.0657818,23.6974893 44.8435294,24.1109027 44.8676367,24.6233909 C44.8905151,25.0971038 45.1356406,25.4213121 45.4767506,25.6444298 C45.9159318,25.9319419 46.5148799,26.0906652 47.083571,26.1845846 C47.8700119,26.3137776 48.727572,26.5297187 49.4421094,26.963449 C50.2565274,27.4570535 50.8695633,28.1973684 51.0068336,29.335321 L51.0067991,29.3352852 Z" id="Path" fill="#5AAAD1" fill-rule="nonzero"></path>
        <path d="M24.2363155,0 C25.1300103,0 25.8567844,0.729831016 25.8567844,1.62681654 L25.8567844,8.62903643 L27.1242727,8.62903643 C27.627597,8.62903643 28.0720859,8.91387632 28.2833044,9.37262199 C28.4943136,9.83135192 28.423843,10.3557099 28.0976208,10.740832 L23.3722293,16.3282234 C23.1250382,16.6202451 22.7794361,16.781021 22.398264,16.781021 C22.0170972,16.781021 21.6712755,16.6208593 21.4249264,16.3288376 L16.6987295,10.740832 C16.3725073,10.3557572 16.3018275,9.83136767 16.5130459,9.37262199 C16.7248866,8.91388157 17.1687533,8.62903643 17.6720776,8.62903643 L18.9395659,8.62903643 L18.9395659,1.62681654 C18.9395659,0.729621023 19.6665492,0 20.5600348,0 Z M23.9901808,1.87538012 L20.8080207,1.87538012 L20.8080207,9.56637737 C20.8080207,10.0841679 20.3896889,10.5041541 19.8739031,10.5041541 L18.9489368,10.504679 L22.3991007,14.5837425 L25.8492646,10.504679 L24.9242984,10.504679 C24.4085282,10.504679 23.9901808,10.0847086 23.9901808,9.56690236 L23.9901808,1.87538012 Z" id="Combined-Shape" fill="#5AAAD1" fill-rule="nonzero"></path>
        <path d="M37.1758028,3.67487924e-05 C38.0694976,3.67487924e-05 38.7962718,0.729867765 38.7962718,1.62685329 L38.7962718,8.62907318 L40.06376,8.62907318 C40.5670843,8.62907318 41.0115733,8.91454305 41.2227917,9.37328872 C41.4338009,9.83144116 41.3627185,10.3557992 41.0371082,10.7409213 L36.3110891,16.3288376 C36.0645255,16.6202451 35.7189234,16.781021 35.3377514,16.781021 C34.9565845,16.781021 34.6107628,16.6208593 34.3644137,16.3288376 L29.6382168,10.7408688 C29.3119946,10.3557939 29.240703,9.83140442 29.4525332,9.37265874 C29.664374,8.91391832 30.1082406,8.62907318 30.6115649,8.62907318 L31.8790532,8.62907318 L31.8790532,1.62685329 C31.8790532,0.729657772 32.6060365,3.67487924e-05 33.4995221,3.67487924e-05 Z M36.9296681,1.87538012 L33.747508,1.87538012 L33.747508,9.56637737 C33.747508,10.0841679 33.3291762,10.5041541 32.8133904,10.5041541 L31.8884242,10.504679 L35.3385881,14.5837425 L38.788752,10.504679 L37.8637857,10.504679 C37.3480156,10.504679 36.9296681,10.0847086 36.9296681,9.56690236 L36.9296681,1.87538012 Z" id="Combined-Shape" fill="#5AAAD1" fill-rule="nonzero"></path>
        <path d="M7.55953149,8.94716516 C8.60869465,8.94716516 9.59573322,9.28924392 10.4148576,9.93686263 C11.2306874,10.5818039 11.7920261,11.4658749 12.0391962,12.4934761 L13.7289017,19.5208952 L38.8250436,19.5211002 C40.8472307,17.3278273 43.736286,15.952425 46.9404616,15.952425 C53.0386604,15.952425 58,20.9334613 58,27.0552851 C57.998745,31.9336972 54.8493729,36.0869407 50.4847014,37.5741118 L49.9088461,39.4476703 C49.4343355,40.9916445 48.5126637,42.3047314 47.2439204,43.2451855 C45.9660258,44.1921809 44.4429795,44.6921429 42.8388261,44.6921429 L16.4243667,44.6921429 C15.8839141,44.6921429 15.3728033,44.9060314 14.9850945,45.2958731 C14.5973858,45.6854628 14.38372,46.1987909 14.38372,46.7407831 C14.38372,47.2827753 14.596774,47.7964657 14.9850945,48.1856931 C15.3731641,48.5749206 15.8844893,48.7894233 16.4243667,48.7894233 L17.1035538,48.7894233 C18.2873203,47.6030673 19.9202351,46.8687214 21.7211164,46.8687214 C23.5219976,46.8687214 25.1549124,47.6036972 26.3386789,48.7894233 L37.845849,48.7898334 C39.0296155,47.6034774 40.6625303,46.8691315 42.4634116,46.8691315 C46.0694622,46.8691315 49.0032284,49.8142322 49.0032284,53.4345658 C49.0032284,57.0547418 46.0696191,60 42.4634116,60 C39.0827456,60 36.2930008,57.4112051 35.9575854,54.1044437 L28.228093,54.1044437 C27.892892,57.4112051 25.1029327,60 21.7222668,60 C18.3063551,60 15.4955987,57.3559769 15.2085967,53.9999722 C13.7155668,53.747298 12.3312551,53.0353164 11.2434993,51.9432998 C9.85505636,50.5494181 9.09089241,48.7021088 9.09089241,46.7406157 C9.09089241,44.7790702 9.85568388,42.9311834 11.2434993,41.5379317 C11.8252638,40.9538884 12.5071179,40.4682584 13.2457626,40.1085612 L7.03068799,14.2615606 L3.64672758,14.2615606 C2.18700866,14.2615606 1,13.0699022 1,11.6044654 C1,10.1390286 2.18700866,8.94716516 3.64672758,8.94716516 L7.55953149,8.94716516 Z M21.7229989,48.7428474 C19.1469198,48.7428474 17.0506999,50.8475033 17.0513126,53.4328333 C17.0513126,56.0190033 19.1469198,58.1228192 21.7229989,58.1228192 C24.2990781,58.1228192 26.3946852,56.0190033 26.3946852,53.4328333 C26.3946852,50.8466633 24.2990781,48.7428474 21.7229989,48.7428474 Z M42.4636207,48.7428474 C39.8875416,48.7428474 37.7919345,50.8475033 37.7919345,53.4328333 C37.7919345,56.0190033 39.8875416,58.1228192 42.4636207,58.1228192 C45.0396999,58.1228192 47.135307,56.0190033 47.135307,53.4328333 C47.135307,50.8466633 45.0396999,48.7428474 42.4636207,48.7428474 Z M36.53616,50.6637593 L27.6496753,50.6637593 C27.8784591,51.1553007 28.0478009,51.6794959 28.1497312,52.2282604 L36.036104,52.2282604 C36.1380344,51.6797059 36.3073762,51.1553164 36.53616,50.6637593 Z M7.5602636,10.8219051 L3.64745969,10.8219051 C3.21810445,10.8219051 2.86839211,11.1729663 2.86839211,11.6040244 C2.86839211,12.0350615 3.21808353,12.3861437 3.64745969,12.3861437 L7.56005442,12.3861437 C7.83724623,12.3861437 8.09360956,12.4726819 8.30073862,12.636739 C8.50868869,12.8013946 8.65780865,13.0364083 8.72113077,13.2988997 L15.2494431,40.4452326 C15.3619785,40.9144097 15.1017403,41.3928422 14.6474411,41.5509513 C13.8708313,41.8214224 13.151169,42.27485 12.5655349,42.8627782 C11.5300726,43.9014565 10.9601787,45.2783288 10.9601787,46.7390408 C10.9601787,48.2000153 11.5300726,49.576625 12.5655349,50.6161434 C13.3270319,51.3806233 14.2828512,51.8957731 15.3168493,52.1117142 C15.4238835,51.587309 15.5946582,51.0861394 15.8181289,50.6148834 C15.0089926,50.4868926 14.2611442,50.1062801 13.6669339,49.5097422 C12.9264485,48.7663667 12.5185178,47.782654 12.5185178,46.7392508 C12.5185178,45.6966875 12.9262497,44.7123449 13.6669339,43.9687593 C14.407409,43.2253733 15.3872833,42.8158447 16.4266153,42.8158447 L42.8410747,42.8158447 C44.042987,42.8158447 45.1830362,42.4424245 46.1367638,41.7357452 C47.0821245,41.0349982 47.7697048,40.051863 48.1259538,38.8936461 L48.3823067,38.0624134 C47.9102538,38.1241419 47.4297922,38.1563381 46.9421978,38.1563381 C46.8721298,38.1563381 46.8028828,38.1549026 46.7336359,38.1536721 L46.6466144,38.4370788 C46.3890169,39.2743738 45.8928568,39.9837147 45.2124146,40.4883964 C44.5405486,40.9871457 43.7202215,41.2502513 42.8416395,41.2502513 L17.7700755,41.2502513 C17.3386704,41.2502513 16.9634231,40.9541296 16.8621046,40.5329149 L12.9145778,24.1167044 C12.8471664,23.8372088 12.9113095,23.5425203 13.0884117,23.3167357 C13.264902,23.0909511 13.5353323,22.9590912 13.8217225,22.9590912 L36.6614028,22.9592963 C36.8771132,22.4152566 37.1353016,21.8929145 37.430064,21.3947952 L12.994911,21.3947952 C12.5635059,21.3947952 12.1882587,21.0980592 12.0869401,20.6774587 L10.2246141,12.9329132 C10.0768851,12.3186834 9.74353016,11.7916742 9.26042772,11.4098333 C8.77404649,11.0253359 8.18574536,10.8219051 7.5602636,10.8219051 Z M30.8617995,35.7267507 L24.8715866,35.7267507 L24.8715866,39.3765882 L30.8617995,39.3765882 L30.8617995,35.7267507 Z M23.0042404,35.7267507 L17.6263836,35.7267507 L18.5043381,39.3765882 L23.0042404,39.3765882 L23.0042404,35.7267507 Z M38.7194109,35.7263832 L32.729198,35.7263832 L32.729198,39.3764258 L38.7194109,39.3762207 L38.7194109,35.7263832 Z M40.5868094,36.1373449 L40.5868094,39.376457 L42.8399243,39.376457 C43.3164744,39.376457 43.7524029,39.2400875 44.1015034,38.9814915 C44.4401818,38.7306547 44.691844,38.3763124 44.8356509,37.9550977 C43.2792937,37.6526026 41.8379821,37.0220459 40.5868094,36.1373449 Z M46.9404616,17.8271017 C41.8722866,17.8271017 37.7488447,21.9662756 37.7488447,27.0547234 C37.7488447,32.1427512 41.8718682,36.2823452 46.9404616,36.2823452 C52.0088458,36.2823452 56.1322828,32.1429612 56.1320785,27.0547234 C56.1320785,21.9666956 52.009055,17.8271017 46.9404616,17.8271017 Z M30.8617995,30.254488 L24.8715866,30.254488 L24.8715866,33.8518273 L30.8617995,33.8518273 L30.8617995,30.254488 Z M23.0036651,30.254488 L16.3101579,30.254488 L17.175039,33.8518273 L23.0036651,33.8518273 L23.0036651,30.254488 Z M36.3498908,30.2542833 L32.729198,30.2542833 L32.729198,33.8516226 L38.2018105,33.8516226 C37.3800191,32.7885325 36.7459717,31.5726724 36.3498908,30.2542833 Z M30.8617995,24.8350911 L24.8715866,24.8350911 L24.8715866,28.3793546 L30.8617995,28.3793546 L30.8617995,24.8350911 Z M36.1042162,24.8350911 L32.7292346,24.8350911 L32.7292346,28.3793596 L35.9610211,28.3795646 C35.9093416,27.9449839 35.8819691,27.5034787 35.8819691,27.0551906 C35.8819691,26.2951731 35.9583646,25.5524275 36.1042162,24.8350911 Z M23.0041358,24.8352486 L15.0069009,24.8352486 L15.8593362,28.3795121 L23.0036651,28.3795121 L23.0041358,24.8352486 Z" id="Combined-Shape" fill="#785891" fill-rule="nonzero"></path>
    </g>
</svg>