<?xml version="1.0" encoding="UTF-8"?>
<svg width="60px" height="60px" viewBox="0 0 60 60" version="1.1" xmlns="http://www.w3.org/2000/svg" xmlns:xlink="http://www.w3.org/1999/xlink">
    <title></title>
    <g id="icon-/-category-social-network" stroke="none" stroke-width="1" fill="none" fill-rule="evenodd">
        <path d="M27.428075,17.8809557 L22.5086499,17.8809557 L22.5086499,13.0108584 C22.5086499,12.9749373 22.507221,12.9385399 22.5034105,12.9033337 C22.4162438,12.0233923 21.8170273,10.4523597 20.0684511,10.1387866 C19.884119,10.1147598 18.9205365,10.0312619 18.1384328,10.7182849 C17.7580931,11.0522838 17.3051155,11.6829379 17.3051155,12.7936288 L17.3051155,16.4081546 C17.3051155,16.6370039 17.2196194,16.8561032 17.0636255,17.0250088 L14.7963295,19.4826208 C14.4774338,19.1419595 14.027334,18.9257225 13.5255024,18.9257225 L8.7173448,18.9257225 C7.75520115,18.9257225 6.97163419,19.7076761 6.97163419,20.6694669 L6.97163419,30.4365792 C6.97163419,31.3976392 7.75446953,32.1803236 8.7173448,32.1803236 L13.5255024,32.1803236 C14.265233,32.1803236 14.8944278,31.7169126 15.1483005,31.0665269 L15.4467108,31.2323388 C16.2521654,31.6809999 17.1659611,31.9186797 18.0878655,31.9186797 L27.427018,31.9186797 C28.8492908,31.9186797 30.0067171,30.7625576 30.0067171,29.3418868 C30.0067171,28.7909322 29.8333343,28.2806466 29.5370701,27.8612905 C29.8326271,27.4426042 30.0067171,26.9315939 30.0067171,26.3813641 C30.0067171,25.8304095 29.8333343,25.3193931 29.5370701,24.9007678 C29.8326271,24.4820815 30.0067171,23.9710712 30.0067171,23.4201715 C30.0067171,22.8692717 29.8333343,22.3589313 29.5370701,21.9395752 C29.8326271,21.5208889 30.0067171,21.0098786 30.0067171,20.4596488 C30.007669,19.0373336 28.8509369,17.8811506 27.4279325,17.8811506 L27.428075,17.8809557 Z M13.0767034,29.9872299 L9.16758712,29.9872299 L9.16758712,21.1183899 L13.0767034,21.1183899 L13.0767034,29.9872299 Z M27.428075,23.034298 C27.636703,23.034298 27.8129385,23.2103351 27.8129385,23.4187281 C27.8129385,23.6271212 27.636703,23.8031582 27.428075,23.8031582 C26.8214873,23.8031582 26.3306423,24.294163 26.3306423,24.8993549 C26.3306423,25.5045468 26.8214873,25.9955515 27.428075,25.9955515 C27.636703,25.9955515 27.8129385,26.1715886 27.8129385,26.3799816 C27.8129385,26.5883747 27.636703,26.7636992 27.428075,26.7636992 C26.8214873,26.7636992 26.3306423,27.2547039 26.3306423,27.8598959 C26.3306423,28.4650878 26.8214873,28.9560925 27.428075,28.9560925 C27.636703,28.9560925 27.8129385,29.1321295 27.8129385,29.3405226 C27.8129385,29.5489157 27.636703,29.7249527 27.428075,29.7249527 L18.0889225,29.7247147 C17.5402062,29.7247147 16.9967331,29.5836464 16.5166063,29.3155411 L15.271264,28.6228057 L15.271264,22.2021382 L18.6783658,18.5086862 C19.2087429,17.9341817 19.5007088,17.1874647 19.5007088,16.4062419 L19.5007088,12.7917161 C19.5007088,12.5169544 19.5578667,12.3913485 19.5878754,12.3635173 C19.618598,12.3342568 19.7100501,12.3152256 19.7817369,12.3137981 C20.1746971,12.4220353 20.2902019,12.9444157 20.31426,13.0833891 L20.31426,18.9759333 C20.31426,19.5811253 20.8051051,20.07213 21.4116927,20.07213 L27.4285505,20.07213 C27.6371786,20.07213 27.8134141,20.248167 27.8134141,20.4565601 C27.8134141,20.6649532 27.6371786,20.8402777 27.4285505,20.8402777 C26.8219629,20.8402777 26.3311178,21.3312824 26.3311178,21.9364743 C26.3313559,22.5411912 26.8222007,23.0345589 27.4280628,23.0345589 L27.428075,23.034298 Z" id="Shape" fill="#5AAAD1" fill-rule="nonzero"></path>
        <path d="M54.105445,53.9306011 C54.0775806,53.9151381 51.5200154,52.4340491 50.5395203,49.3909462 C56.3977381,46.1037569 60,39.9904508 60,33.2293534 C60,23.0079284 51.6747535,14.6920587 41.4411934,14.6920587 C39.4942258,14.6920587 37.59207,15.007739 35.7622839,15.5953248 C33.0055939,8.8037774 26.3353368,4 18.5588066,4 C8.32585623,4 0,12.3158697 0,22.5372947 C0,29.2977831 3.60262774,35.4109065 9.45987004,38.6982785 C8.48248426,41.7156817 5.9189424,43.22484 5.89394532,43.2393341 C5.47168979,43.4791272 5.25664175,43.9672696 5.3664277,44.4407048 C5.47621975,44.9129159 5.88370871,45.2576149 6.36881056,45.2869077 C6.60958729,45.3023708 6.8465535,45.3087939 7.0814102,45.3087939 C12.0088831,45.3087939 15.5103032,42.182441 16.6729722,40.9804004 C17.2969236,41.0432003 17.9285571,41.0746064 18.5584835,41.0746064 C20.5411786,41.0746064 22.4507116,40.7589261 24.2430631,40.1815715 C27.0635871,47.1521643 33.8340153,51.7665433 41.4404434,51.7665433 C42.0703698,51.7665433 42.7024301,51.7351421 43.3249793,51.6723374 C44.4874044,52.873708 47.9876661,56 52.9159316,56 C53.1507578,56 53.3886751,55.9926256 53.6299335,55.9781138 C54.1150597,55.9488533 54.5225731,55.6039149 54.6323163,55.131241 C54.7428217,54.6583174 54.5284809,54.170181 54.1055121,53.9306011 L54.105445,53.9306011 Z M40.4643563,29.8678663 C40.6524989,30.2339777 41.0292659,30.4642582 41.4410714,30.4642582 C41.8530842,30.4642582 42.2305523,30.2339838 42.4177865,29.8678663 C43.2048897,28.3317902 44.949198,27.3048367 46.6715577,27.339306 C47.6065704,27.3649984 48.8692887,27.731111 49.5782912,29.3271368 C51.6107366,33.9041233 45.5483963,38.6825664 44.3128699,39.5948456 C43.442179,40.237156 42.4778405,40.8466413 41.4404617,41.4102082 C40.4037536,40.8466474 39.4394761,40.237156 38.5680535,39.5941757 C37.3725225,38.7121028 34.5872383,36.4392608 33.4093272,33.6419496 C34.8068468,31.7821302 35.8595286,29.6511238 36.4798829,27.3455177 C38.081525,27.4064176 39.7188337,28.4129088 40.4644782,29.8678663 L40.4643563,29.8678663 Z M16.4336282,38.7470593 C16.0532885,38.6761658 15.6567678,38.8179528 15.4005172,39.1241144 C15.3726528,39.1576568 13.1604132,41.752794 9.70185395,42.7400409 C10.5827876,41.6600436 11.4306153,40.206974 11.8169116,38.3604916 C11.8914578,38.0038928 11.7819023,37.6332869 11.5270736,37.371844 C11.4303836,37.2724068 11.3177322,37.1950945 11.1948441,37.139426 C5.64195648,34.3396788 2.19467644,28.7492585 2.19467644,22.5380864 C2.19467644,13.5249138 9.53589164,6.19318503 18.5586176,6.19318503 C27.5819533,6.19318503 34.9225588,13.5249138 34.9225588,22.5380864 C34.9230352,31.551259 27.5819533,38.8823787 18.5592273,38.8823787 C17.8473593,38.8823787 17.1333574,38.8371794 16.4339269,38.7472542 L16.4336282,38.7470593 Z M44.601068,49.8180366 C44.3450491,49.5090188 43.9485223,49.3743693 43.567957,49.4371753 C42.8699288,49.528525 42.1551953,49.5746749 41.4411934,49.5746749 C34.7431957,49.5746749 28.7792585,45.5164939 26.2862572,39.3849179 C28.3815611,38.4223963 30.2670724,37.0821741 31.8553624,35.4509116 C33.3931705,38.287016 36.0519451,40.4635145 37.2641815,41.3572193 C38.3682598,42.1719979 39.6038471,42.9348899 40.9361304,43.624763 C41.0942705,43.7066002 41.2676466,43.7475126 41.4410226,43.7475126 C41.6143987,43.7475126 41.7877809,43.7065953 41.9459149,43.624763 C43.2796005,42.9348899 44.5147,42.1719979 45.6178638,41.3578892 C47.6862806,39.8320443 54.2296622,34.3915593 51.5856419,28.4373844 C50.6842229,26.4072282 48.9151613,25.20805 46.7334041,25.1473937 C44.7761938,25.0926789 42.7790492,26.0002347 41.4436565,27.4653625 C40.2795242,26.181229 38.6262419,25.3498247 36.9250992,25.1858824 C37.04942,24.319948 37.1175279,23.4364134 37.1175279,22.5367405 C37.1175279,20.8522516 36.8869939,19.2217199 36.4642506,17.6695055 C38.0680266,17.1580445 39.7346611,16.8840197 41.4415348,16.8840197 C50.4648705,16.8840197 57.805476,24.2157484 57.805476,33.228921 C57.805476,39.4303491 54.3676461,45.0142532 48.829086,47.8186896 C48.6966686,47.8741182 48.5744938,47.9569018 48.4706584,48.0627639 C48.2160662,48.3237318 48.1077069,48.6948431 48.1824848,49.0521423 C48.568775,50.8988683 49.4175843,52.3516943 50.2975425,53.4309608 C46.8399587,52.4444447 44.6267418,49.8502344 44.6005863,49.8178966 L44.601068,49.8180366 Z" id="Shape" fill="#785891" fill-rule="nonzero"></path>
    </g>
</svg>