<?xml version="1.0" encoding="UTF-8"?>
<svg width="60px" height="60px" viewBox="0 0 60 60" version="1.1" xmlns="http://www.w3.org/2000/svg" xmlns:xlink="http://www.w3.org/1999/xlink">
    <title></title>
    <g id="icon-/-category-telehealth" stroke="none" stroke-width="1" fill="none" fill-rule="evenodd">
        <polygon id="Path" fill="#5AAAD1" fill-rule="nonzero" points="26.9998427 50.0011842 32.9998267 50.0011842 32.9998267 52.0012206 26.9998427 52.0012206"></polygon>
        <path d="M57.749094,16.0005646 L53.9991307,16.0005646 L53.9991307,18.0006011 L57.749094,18.0006011 C57.8865923,18.0006011 57.9990933,18.1131045 57.9990933,18.2506056 L57.9990933,46.000978 L55.9990987,46.000978 L55.9990987,37.663226 C55.9990987,36.2507203 55.1490743,34.9756571 53.8491311,34.4381539 L48.8116512,32.3381157 C48.4491508,31.5256209 47.6491476,31.000598 46.76163,31.000598 L45.6116597,31.000598 L44.9741681,30.7380918 C44.9616678,30.6755894 44.9366684,30.6130869 44.8991709,30.5505898 L42.5492039,25.8505041 L44.3866923,24.9380075 C45.999168,24.1379929 47.0241786,22.4879362 47.0116986,20.6879034 L47.0116986,20.0003709 L48.5116946,20.0003709 C50.4491828,20.0003709 52.0116853,18.4378357 52.0116853,16.5003071 L52.0116853,14.5002706 C52.0116853,12.562742 50.4491828,11.0002068 48.5116946,11.0002068 L47.0116986,11.0002068 C47.5616705,11.0002068 48.011696,10.5501986 48.011696,10.0001886 L48.011696,6.80013031 C48.011696,5.28762275 47.0491919,3.95005171 45.6241823,3.47505639 L41.3366738,2.05001709 C41.2741726,2.02501663 41.2116714,2.01251667 41.1491756,2.01251667 C40.236698,0.749987 38.7866752,0 37.249186,0 L24.9990853,0 C24.4491135,0 23.999088,0.4500082 23.999088,1.00001822 L23.999088,6.25014056 C23.999088,8.87520173 26.1240957,11.0002004 28.7490487,11.0002004 L28.999048,11.0002004 L28.999048,16.0002916 L25.9615628,16.0002916 C25.4115909,8.83749437 19.1493143,3.48753022 11.9866667,4.0374069 C10.4616574,4.14991029 8.97419474,4.53741602 7.57419847,5.17492097 L8.41168957,6.99996755 C13.9364748,4.47490821 20.4740574,6.91246729 22.999384,12.4374 C24.1493543,14.9624593 24.3118605,17.8374984 23.4368815,20.4748798 C23.3493831,20.7248843 23.3743803,20.999892 23.4868814,21.2374003 L25.3743963,25.0124558 L20.9243815,25.0124558 C20.6868835,25.0124558 20.4493855,25.099956 20.2618766,25.2624603 C15.6993821,29.2750135 8.749374,28.8375122 4.73711803,24.2749223 C0.724862067,19.7123325 1.17462087,12.7499123 5.73711537,8.73703921 C6.01211197,8.49953621 6.28708723,8.27452945 6.58713977,8.06204024 L5.4246362,6.4369973 C-0.400414932,10.6370738 -1.7252114,18.7620219 2.47467073,24.5871947 C6.67455287,30.4123675 14.7994379,31.7371917 20.624489,27.5372218 C20.861987,27.3622213 21.0994851,27.1872154 21.3244871,26.9997187 L26.999672,26.9997187 C27.5496439,26.9997187 27.9996693,26.5497105 27.9996693,25.9997004 C27.9996693,25.8496977 27.9621697,25.6871934 27.8996696,25.5496922 L25.4746627,20.6995772 C25.7371634,19.8245746 25.8996643,18.9120246 25.9746614,17.999528 L28.9996667,17.999528 L28.9996667,20.6496029 C28.9996667,22.4371555 29.999664,24.0871589 31.5996597,24.8871735 L33.4621614,25.8371641 L31.0996611,30.5622636 L31.0246639,30.7497657 L30.3871723,31.0122718 L29.249682,31.0122718 C28.3621644,31.0122718 27.5496865,31.537284 27.1996608,32.3497895 L22.1621809,34.4498278 C20.8621844,34.9873309 19.99968,36.2623408 20.0122133,37.6748999 L20.0122133,45.9998516 L2,45.9998516 L2,25.9994871 L0,25.9994871 L0,53.7498594 C0,54.9873753 1.0124773,55.9999271 2.25002067,55.9999271 L23.7251634,55.9999271 L23.2251647,57.9999636 L20.00016,57.9999636 L20.00016,60 L40.0001067,60 L40.0001067,57.9999636 L36.7751019,57.9999636 L36.2751033,55.9999271 L51.9998613,55.9999271 L51.9998613,53.9998907 L2.25012733,53.9998907 C2.11262903,53.9998907 2.000128,53.8873873 2.000128,53.7498861 L2.000128,47.9999147 L57.9999787,47.9999147 L57.9999787,53.7498861 C57.9999787,53.8873873 57.8874776,53.9998907 57.7499793,53.9998907 L54.000016,53.9998907 L54.000016,55.9999271 L57.7499793,55.9999271 C58.9874694,55.9999271 60,54.9874287 60,53.7498594 L60,18.2494792 C60,17.0119633 58.9875227,15.9994115 57.7499793,15.9994115 L57.749094,16.0005646 Z M34.2243567,56.0012935 L34.7243554,58.00133 L25.2870472,58.00133 L25.7870472,56.0012935 L34.2243567,56.0012935 Z M47.9992587,38.0009655 C49.0992504,38.0009655 49.999248,38.9009819 49.999248,40.001002 C49.999248,41.101022 49.0992504,42.0010384 47.9992587,42.0010384 C46.8992563,42.0010384 45.9992587,41.101022 45.9992587,40.001002 C45.9992587,38.9009819 46.8992563,38.0009655 47.9992587,38.0009655 Z M48.499256,13.00051 C49.3242631,13.00051 49.999256,13.6755089 49.999256,14.5005373 L49.999256,16.5005737 C49.999256,17.3256021 49.3242631,18.0006011 48.499256,18.0006011 L46.999256,18.0006011 L46.999256,13.00051 L48.499256,13.00051 Z M41.9990027,4.38808636 L44.9739814,5.37562436 C45.5864598,5.575628 45.998992,6.15062514 45.998992,6.80066366 L45.998992,9.00070375 L41.9990027,9.00070375 L41.9990027,4.38808636 Z M25.9990453,6.25062697 L25.9990453,2.00052285 L37.2491487,2.00052285 C38.7616246,2.00052285 39.9991147,3.23803874 39.9991147,4.7505463 L39.9991147,9.00065041 L28.7490113,9.00065041 C27.2365354,9.00065041 25.9990453,7.76313453 25.9990453,6.25062697 Z M30.999032,20.6508894 L30.999032,11.0005802 L44.9989947,11.0005802 L44.9989947,20.6882234 C44.9989947,21.7257356 44.4114762,22.6882598 43.4739854,23.1507749 L38.111333,25.8383439 C38.0363359,25.8758443 37.9613334,25.8758443 37.886331,25.8383439 L32.498616,23.1132809 C31.5736011,22.6382749 30.998616,21.6882416 30.998616,20.6507294 L30.999032,20.6508894 Z M35.2490473,26.7262001 L36.986536,27.6012027 C37.6240277,27.9262113 38.3740523,27.9262113 39.011544,27.6012027 L40.7490327,26.7262001 L42.8240138,30.876249 L37.9990133,37.3387668 L33.1740129,30.9013162 L35.2490473,26.7262001 Z M21.9989493,46.0017513 L21.9989493,37.6639994 C21.9989493,37.0639885 22.3614497,36.5140051 22.9239602,36.2764541 L26.998936,34.5764231 L26.998936,38.0265127 C25.2739273,38.2765172 23.9989493,39.7515574 23.9989493,41.4890824 L23.9989493,43.989128 L25.9989387,43.989128 L25.9989387,41.4890824 C25.9989387,40.6640541 26.6739235,39.9890551 27.4989347,39.9890551 L28.498932,39.9890551 C29.3239431,39.9890551 29.998928,40.6640541 29.998928,41.4890824 L29.998928,43.989128 L31.9989227,43.989128 L31.9989227,41.4890824 C31.9989227,39.7515574 30.7239394,38.2765439 28.9989307,38.0265127 L28.9989307,33.7514481 L30.7989259,33.0014611 L30.9989253,33.0014611 L30.9989253,32.9139608 L31.8989229,32.5389567 L37.1989088,39.6014854 C37.5364066,40.038992 38.1614129,40.1389885 38.5989051,39.801489 C38.6739022,39.7389865 38.7364034,39.6764841 38.7989045,39.6014854 L44.0988904,32.5389567 L44.998888,32.9139608 L44.998888,33.0014611 L45.1988875,33.0014611 L46.9988827,33.7514481 L46.9988827,36.126478 C44.861395,36.6764614 43.5738785,38.8640213 44.1239037,41.0015535 C44.6739289,43.1390858 46.8613897,44.4266293 48.9988773,43.8765926 C51.136365,43.3265559 52.4238815,41.1390494 51.8738563,39.0015171 C51.511356,37.5890114 50.4113536,36.4889913 48.9988773,36.126478 L48.9988773,34.5889567 L53.0738531,36.2889877 C53.6363583,36.5264907 53.998864,37.0639885 53.998864,37.676533 L53.998864,46.0014846 L21.9989493,46.0017513 Z" id="Shape" fill="#785891" fill-rule="nonzero"></path>
        <polygon id="Path" fill="#5AAAD1" fill-rule="nonzero" points="32.9998267 14.0005282 34.9998213 14.0005282 34.9998213 17.0005829 32.9998267 17.0005829"></polygon>
        <polygon id="Path" fill="#5AAAD1" fill-rule="nonzero" points="40.9998053 14.0005282 42.9998 14.0005282 42.9998 17.0005829 40.9998053 17.0005829"></polygon>
        <path d="M40.9998053,20.5009042 L40.9998053,20.0009042 L34.9998213,20.0009042 L34.9998213,20.5009042 C34.9998213,21.875925 36.1248317,23.0009589 37.4998213,23.0009589 L38.4998213,23.0009589 C39.874795,23.0009589 40.9998053,21.875925 40.9998053,20.5009042 Z" id="Path" fill="#5AAAD1" fill-rule="nonzero"></path>
        <path d="M14.9998747,10.0004553 L10.9998853,10.0004553 C10.4499135,10.0004553 9.999888,10.4504635 9.999888,11.0004735 L9.999888,14.0005282 L6.99989867,14.0005282 C6.44992413,14.0005282 5.99989867,14.4505364 5.99989867,15.0005464 L5.99989867,19.0006193 C5.99989867,19.5506027 6.44989747,20.0006375 6.99989867,20.0006375 L9.999888,20.0006375 L9.999888,23.0006922 C9.999888,23.5506755 10.4498868,24.0007104 10.9998853,24.0007104 L14.9998747,24.0007104 C15.5498465,24.0007104 15.999872,23.5507022 15.999872,23.0006922 L15.999872,20.0006375 L18.999864,20.0006375 C19.5498359,20.0006375 19.9998613,19.5506293 19.9998613,19.0006193 L19.9998613,15.0005464 C19.9998613,14.4505631 19.5498625,14.0005282 18.999864,14.0005282 L15.999872,14.0005282 L15.999872,11.0004735 C15.999872,10.4504902 15.5498732,10.0004553 14.9998747,10.0004553 Z M17.9998667,16.0005646 L17.9998667,18.0006011 L14.9998747,18.0006011 C14.4499028,18.0006011 13.9998773,18.4506093 13.9998773,19.0006193 L13.9998773,22.000674 L11.9998827,22.000674 L11.9998827,19.0006193 C11.9998827,18.4506359 11.5498839,18.0006011 10.9998933,18.0006011 L7.99989333,18.0006011 L7.99989333,16.0005646 L10.9998933,16.0005646 C11.5498572,16.0005646 11.9998827,15.5505564 11.9998827,15.0005464 L11.9998827,12.0004917 L13.9998773,12.0004917 L13.9998773,15.0005464 C13.9998773,15.5505298 14.4498761,16.0005646 14.9998747,16.0005646 L17.9998667,16.0005646 Z" id="Shape" fill="#5AAAD1" fill-rule="nonzero"></path>
        <polygon id="Path" fill="#785891" fill-rule="nonzero" points="3.999904 33.0008744 12.99988 33.0008744 12.99988 35.0009109 3.999904 35.0009109"></polygon>
        <polygon id="Path" fill="#785891" fill-rule="nonzero" points="14.9998747 33.0008744 17.9998667 33.0008744 17.9998667 35.0009109 14.9998747 35.0009109"></polygon>
        <polygon id="Path" fill="#785891" fill-rule="nonzero" points="3.999904 41.0010202 12.99988 41.0010202 12.99988 43.0010566 3.999904 43.0010566"></polygon>
        <polygon id="Path" fill="#785891" fill-rule="nonzero" points="14.9998747 41.0010202 17.9998667 41.0010202 17.9998667 43.0010566 14.9998747 43.0010566"></polygon>
        <polygon id="Path" fill="#5AAAD1" fill-rule="nonzero" points="8.99989067 37.0009473 17.9998667 37.0009473 17.9998667 39.0009838 8.99989067 39.0009838"></polygon>
        <polygon id="Path" fill="#5AAAD1" fill-rule="nonzero" points="3.999904 37.0009473 6.999896 37.0009473 6.999896 39.0009838 3.999904 39.0009838"></polygon>
    </g>
</svg>