<?xml version="1.0" encoding="UTF-8"?>
<svg width="60px" height="60px" viewBox="0 0 60 60" version="1.1" xmlns="http://www.w3.org/2000/svg" xmlns:xlink="http://www.w3.org/1999/xlink">
    <title>icon / sort alphabetical z-a</title>
    <g id="icon-/-sort-alphabetical-z-a" stroke="none" stroke-width="1" fill="none" fill-rule="evenodd">
        <rect id="Rectangle" fill="#4F5474" x="2" y="2" width="56" height="56" rx="5"></rect>
        <path d="M28.53924,27.5810932 C29.2558392,26.8063023 30.7441608,26.8063023 31.46076,27.5810932 C31.8741827,28.035281 32.2876054,28.4761103 32.701028,28.930298 C35.6087674,32.0828955 38.502726,35.2221346 41.4104653,38.3747321 C42.1546261,39.1762399 42.2373106,40.4052186 41.4104653,41.2067264 C40.6525238,41.9414419 39.233106,42.0082343 38.4889452,41.2067264 C38.0755225,40.7525387 37.6620999,40.3117093 37.2486772,39.8575216 C34.3409379,36.7049241 31.4469793,33.565685 28.53924,30.4130875 L32.067,34.239 L32.0671133,50.99421 C32.0671133,52.065316 31.2007195,52.8686454 30.1511159,52.985936 L30,52.9979796 C28.8837588,53.0514135 27.9328867,52.0361702 27.9328867,50.99421 L27.9328867,50.99421 L27.932,34.243 L25.8657734,36.4845094 L25.8657734,36.4845094 L21.5110548,41.2067264 C20.766894,42.0215927 19.3474762,41.9414419 18.5895347,41.2067264 C17.7626894,40.4185771 17.8453739,39.1762399 18.5895347,38.3747321 C19.0029574,37.9205443 19.41638,37.479715 19.8298027,37.0255272 L19.8298027,37.0255272 Z" id="Combined-Shape" fill="#FFFFFF" fill-rule="nonzero" transform="translate(30.000000, 40.000000) rotate(-180.000000) translate(-30.000000, -40.000000) "></path>
        <path d="M45.2809325,7 L52.118948,25 L47.6479378,25 L46.3807531,21.1937244 L40.7381949,21.1937244 L39.4710102,25 L35,25 L41.8141064,7 L45.2809325,7 Z M43.559474,12.3533424 L41.6945607,18.1241473 L45.4722056,18.1241473 L43.559474,12.3533424 Z" id="Combined-Shape" fill="#FFFFFF" fill-rule="nonzero"></path>
        <polygon id="Path" fill="#FFFFFF" fill-rule="nonzero" points="34 21 34 17 26 17 26 21"></polygon>
        <polygon id="Path" fill="#FFFFFF" fill-rule="nonzero" points="22.7913927 25 22.7913927 21.0463847 15.4512851 21.0463847 22.7913927 9.97135061 22.7913927 7 10 7 10 10.9536153 17.3161984 10.9536153 10 22.0286494 10 25"></polygon>
    </g>
</svg>