<svg width="24" height="24" viewBox="0 0 24 24" fill="none" xmlns="http://www.w3.org/2000/svg">
<path d="M20.8887 6.41042C21.2531 6.41051 21.5213 6.49485 21.7134 6.693C21.8977 6.88114 22.0002 7.13558 22.0002 7.40013C22.0002 7.66513 21.8972 7.91969 21.7134 8.10721L12.6336 17.322C12.4538 17.4994 12.2129 17.5996 11.9613 17.5996C11.7079 17.5996 11.4667 17.4969 11.2825 17.3154L2.25395 8.09792C2.02819 7.84755 1.94493 7.48871 2.03669 7.15499C2.12841 6.82182 2.38319 6.55829 2.71327 6.46385C3.04284 6.36968 3.39156 6.46384 3.64965 6.70417L11.9878 15.2044L20.3376 6.69289C20.4852 6.54058 20.6774 6.44239 20.8887 6.41042Z" fill="#785891"/>
</svg>
